{"glyphs":{"0":{"ha":1006,"x_min":93,"x_max":914,"o":"m 504 -17 q 288 51 381 -17 q 144 238 196 118 q 93 518 93 358 q 144 798 93 678 q 288 985 196 918 q 503 1051 379 1051 q 718 985 626 1051 q 862 798 810 918 q 914 518 914 678 q 863 238 914 358 q 719 50 811 117 q 504 -17 626 -17 m 504 110 q 649 160 588 110 q 744 303 710 211 q 778 518 778 394 q 744 733 778 642 q 648 875 710 825 q 503 925 586 925 q 358 875 419 925 q 263 733 297 825 q 229 518 229 642 q 263 304 229 396 q 359 161 297 213 q 504 110 421 110 z "},"1":{"ha":531,"x_min":51,"x_max":385,"o":"m 247 0 l 247 917 l 51 917 l 51 1035 l 385 1035 l 385 0 l 247 0 z "},"2":{"ha":832,"x_min":67,"x_max":754,"o":"m 75 0 l 75 94 l 361 404 q 497 553 446 494 q 571 657 547 611 q 594 754 594 703 q 544 885 594 839 q 413 931 494 931 q 271 883 329 931 q 190 747 213 835 l 67 779 q 133 924 85 863 q 254 1018 182 985 q 413 1051 326 1051 q 578 1015 507 1051 q 691 913 650 978 q 732 761 732 847 q 708 650 732 704 q 639 535 685 596 q 519 396 593 475 l 264 118 l 754 118 l 754 0 l 75 0 z "},"3":{"ha":847,"x_min":57,"x_max":765,"o":"m 408 -17 q 256 13 326 -17 q 133 95 185 42 q 57 222 82 149 l 172 269 q 264 149 201 192 q 408 106 326 106 q 522 131 472 106 q 601 203 572 156 q 629 317 629 250 q 601 431 629 385 q 522 503 572 478 q 407 528 472 528 q 362 525 386 528 q 321 517 338 522 l 292 579 l 568 917 l 110 917 l 110 1035 l 722 1035 l 722 921 l 458 596 l 450 632 q 614 589 543 629 q 725 480 685 549 q 765 319 765 411 q 719 149 765 225 q 593 28 674 72 q 408 -17 513 -17 z "},"4":{"ha":886,"x_min":60,"x_max":831,"o":"m 568 0 l 568 239 l 60 239 l 60 351 l 565 1035 l 696 1035 l 696 351 l 831 351 l 831 239 l 696 239 l 696 0 l 568 0 m 163 303 l 143 351 l 568 351 l 568 921 l 608 910 l 163 303 z "},"5":{"ha":856,"x_min":67,"x_max":772,"o":"m 417 -17 q 265 12 336 -17 q 142 94 194 40 q 67 219 90 147 l 178 267 q 273 148 207 190 q 417 106 339 106 q 530 134 481 106 q 607 213 579 163 q 635 326 635 264 q 606 442 635 392 q 529 520 578 492 q 418 549 481 549 q 301 519 354 549 q 225 446 249 490 l 115 469 l 194 1035 l 731 1035 l 731 917 l 246 917 l 299 969 l 238 531 l 190 558 q 298 642 236 617 q 432 668 360 668 q 610 622 533 668 q 729 500 686 576 q 772 326 772 424 q 726 151 772 229 q 599 28 679 74 q 417 -17 519 -17 z "},"6":{"ha":832,"x_min":75,"x_max":760,"o":"m 418 -17 q 241 28 318 -17 q 119 149 164 72 q 75 325 75 226 q 88 432 75 379 q 128 539 100 485 q 199 651 156 593 l 490 1035 l 654 1035 l 297 571 l 272 574 q 319 617 293 601 q 374 639 344 632 q 438 646 404 646 q 602 603 529 646 q 717 488 675 561 q 760 318 760 414 q 715 147 760 222 q 594 27 671 71 q 418 -17 517 -17 m 418 106 q 522 133 476 106 q 595 208 568 160 q 622 317 622 257 q 596 426 622 379 q 524 500 569 472 q 418 528 478 528 q 313 500 360 528 q 239 426 265 472 q 213 317 213 379 q 240 208 213 257 q 313 133 267 160 q 418 106 360 106 z "},"7":{"ha":761,"x_min":54,"x_max":704,"o":"m 107 0 l 561 917 l 54 917 l 54 1035 l 704 1035 l 704 917 l 254 0 l 107 0 z "},"8":{"ha":874,"x_min":83,"x_max":792,"o":"m 438 -17 q 253 25 333 -17 q 128 138 174 67 q 83 299 83 210 q 139 474 83 399 q 292 581 194 549 l 289 546 q 174 640 215 575 q 133 779 133 704 q 173 919 133 858 q 281 1016 213 981 q 438 1051 350 1051 q 593 1017 525 1051 q 701 920 661 982 q 740 779 740 858 q 698 638 740 700 q 586 544 656 575 l 582 581 q 736 473 681 549 q 792 299 792 397 q 747 138 792 210 q 622 25 701 67 q 438 -17 542 -17 m 438 101 q 551 126 503 101 q 627 197 600 151 q 654 300 654 242 q 627 405 654 360 q 551 474 600 450 q 438 499 503 499 q 323 474 372 499 q 247 405 274 450 q 221 300 221 360 q 247 197 221 242 q 323 126 274 151 q 438 101 372 101 m 438 617 q 522 638 485 617 q 581 694 558 658 q 603 776 603 729 q 581 858 603 824 q 522 913 558 893 q 438 933 485 933 q 351 913 389 933 q 292 858 314 893 q 269 776 269 824 q 292 694 269 729 q 351 638 314 658 q 438 617 389 617 z "},"9":{"ha":832,"x_min":72,"x_max":757,"o":"m 178 0 l 535 465 l 560 463 q 514 419 539 435 q 459 396 489 403 q 394 389 429 389 q 230 431 303 389 q 115 548 157 474 q 72 718 72 622 q 117 889 72 814 q 239 1008 161 964 q 414 1051 317 1051 q 591 1008 514 1051 q 713 887 668 964 q 757 710 757 810 q 744 603 757 656 q 705 496 732 550 q 633 383 678 442 l 342 0 l 178 0 m 414 508 q 520 535 474 508 q 593 610 567 563 q 619 718 619 658 q 592 828 619 781 q 519 903 565 875 q 414 931 474 931 q 310 903 356 931 q 237 828 264 875 q 210 718 210 781 q 236 610 210 658 q 309 535 263 563 q 414 508 356 508 z "},"A":{"ha":933,"x_min":15,"x_max":918,"o":"m 15 0 l 386 1035 l 547 1035 l 918 0 l 772 0 l 688 243 l 246 243 l 161 0 l 15 0 m 289 368 l 644 368 l 447 936 l 486 936 l 289 368 z "},"Á":{"ha":933,"x_min":15,"x_max":918,"o":"m 15 0 l 386 1035 l 547 1035 l 918 0 l 772 0 l 688 243 l 246 243 l 161 0 l 15 0 m 289 368 l 644 368 l 447 936 l 486 936 l 289 368 m 403 1176 l 513 1396 l 688 1396 l 532 1176 l 403 1176 z "},"Ă":{"ha":933,"x_min":15,"x_max":918,"o":"m 15 0 l 386 1035 l 547 1035 l 918 0 l 772 0 l 688 243 l 246 243 l 161 0 l 15 0 m 289 368 l 644 368 l 447 936 l 486 936 l 289 368 m 467 1178 q 335 1206 388 1178 q 255 1284 282 1235 q 228 1393 228 1333 l 354 1393 q 384 1310 354 1339 q 467 1281 414 1281 q 549 1310 519 1281 q 579 1393 579 1339 l 704 1393 q 678 1283 704 1332 q 599 1206 651 1235 q 467 1178 546 1178 z "},"Ắ":{"ha":933,"x_min":15,"x_max":918,"o":"m 15 0 l 386 1035 l 547 1035 l 918 0 l 772 0 l 688 243 l 246 243 l 161 0 l 15 0 m 289 368 l 644 368 l 447 936 l 486 936 l 289 368 m 467 1178 q 335 1204 388 1178 q 255 1274 282 1231 q 228 1372 228 1318 l 354 1372 q 384 1305 354 1329 q 467 1281 414 1281 q 549 1305 519 1281 q 579 1372 579 1329 l 704 1372 q 678 1274 704 1318 q 599 1203 651 1229 q 467 1178 546 1178 m 401 1414 l 513 1633 l 686 1633 l 532 1414 l 401 1414 z "},"Ặ":{"ha":933,"x_min":15,"x_max":918,"o":"m 15 0 l 386 1035 l 547 1035 l 918 0 l 772 0 l 688 243 l 246 243 l 161 0 l 15 0 m 289 368 l 644 368 l 447 936 l 486 936 l 289 368 m 389 -281 l 389 -125 l 544 -125 l 544 -281 l 389 -281 m 467 1178 q 335 1206 388 1178 q 255 1284 282 1235 q 228 1393 228 1333 l 354 1393 q 384 1310 354 1339 q 467 1281 414 1281 q 549 1310 519 1281 q 579 1393 579 1339 l 704 1393 q 678 1283 704 1332 q 599 1206 651 1235 q 467 1178 546 1178 z "},"Ằ":{"ha":933,"x_min":15,"x_max":918,"o":"m 15 0 l 386 1035 l 547 1035 l 918 0 l 772 0 l 688 243 l 246 243 l 161 0 l 15 0 m 289 368 l 644 368 l 447 936 l 486 936 l 289 368 m 467 1178 q 335 1203 389 1178 q 256 1274 282 1229 q 229 1372 229 1318 l 354 1372 q 384 1305 354 1329 q 467 1281 414 1281 q 549 1305 519 1281 q 579 1372 579 1329 l 706 1372 q 679 1274 706 1318 q 599 1204 653 1231 q 467 1178 546 1178 m 401 1414 l 247 1633 l 421 1633 l 532 1414 l 401 1414 z "},"Ẳ":{"ha":933,"x_min":15,"x_max":918,"o":"m 15 0 l 386 1035 l 547 1035 l 918 0 l 772 0 l 688 243 l 246 243 l 161 0 l 15 0 m 289 368 l 644 368 l 447 936 l 486 936 l 289 368 m 465 1178 q 334 1204 388 1178 q 254 1274 281 1231 q 228 1372 228 1318 l 353 1372 q 383 1305 353 1329 q 465 1281 414 1281 q 549 1305 519 1281 q 579 1372 578 1329 l 704 1372 q 677 1274 704 1318 q 597 1203 650 1229 q 465 1178 544 1178 m 476 1385 l 419 1456 q 472 1489 456 1469 q 488 1536 488 1508 q 468 1576 488 1560 q 414 1593 449 1593 q 381 1591 397 1593 q 343 1578 365 1589 l 325 1664 q 379 1683 351 1678 q 433 1689 407 1689 q 559 1649 511 1689 q 607 1544 607 1608 q 571 1451 607 1494 q 476 1385 535 1408 z "},"Ẵ":{"ha":933,"x_min":15,"x_max":918,"o":"m 15 0 l 386 1035 l 547 1035 l 918 0 l 772 0 l 688 243 l 246 243 l 161 0 l 15 0 m 289 368 l 644 368 l 447 936 l 486 936 l 289 368 m 542 1464 q 492 1477 511 1464 q 459 1506 474 1490 q 431 1535 444 1522 q 399 1549 418 1549 q 369 1530 379 1549 q 358 1469 358 1511 l 257 1469 q 274 1573 257 1532 q 321 1635 292 1614 q 388 1656 350 1656 q 438 1643 418 1656 q 473 1614 458 1631 q 501 1585 488 1597 q 532 1572 514 1572 q 563 1593 553 1572 q 572 1650 572 1614 l 674 1650 q 635 1514 674 1564 q 542 1464 597 1464 m 467 1176 q 335 1203 389 1176 q 256 1273 282 1229 q 228 1371 229 1317 l 353 1371 q 384 1303 354 1328 q 467 1279 414 1279 q 549 1303 519 1279 q 579 1371 579 1328 l 706 1371 q 678 1272 704 1317 q 598 1202 651 1228 q 467 1176 544 1176 z "},"Â":{"ha":933,"x_min":15,"x_max":918,"o":"m 15 0 l 386 1035 l 547 1035 l 918 0 l 772 0 l 688 243 l 246 243 l 161 0 l 15 0 m 289 368 l 644 368 l 447 936 l 486 936 l 289 368 m 228 1176 l 393 1392 l 542 1392 l 708 1176 l 567 1176 l 468 1303 l 369 1176 l 228 1176 z "},"Ấ":{"ha":933,"x_min":15,"x_max":918,"o":"m 15 0 l 386 1035 l 547 1035 l 918 0 l 772 0 l 688 243 l 246 243 l 161 0 l 15 0 m 289 368 l 644 368 l 447 936 l 486 936 l 289 368 m 228 1176 l 393 1378 l 542 1378 l 708 1176 l 567 1176 l 468 1289 l 369 1176 l 228 1176 m 651 1278 l 735 1465 l 899 1465 l 771 1278 l 651 1278 z "},"Ậ":{"ha":933,"x_min":15,"x_max":918,"o":"m 15 0 l 386 1035 l 547 1035 l 918 0 l 772 0 l 688 243 l 246 243 l 161 0 l 15 0 m 289 368 l 644 368 l 447 936 l 486 936 l 289 368 m 389 -281 l 389 -125 l 544 -125 l 544 -281 l 389 -281 m 228 1176 l 393 1392 l 542 1392 l 708 1176 l 567 1176 l 468 1303 l 369 1176 l 228 1176 z "},"Ầ":{"ha":933,"x_min":15,"x_max":918,"o":"m 15 0 l 386 1035 l 547 1035 l 918 0 l 772 0 l 688 243 l 246 243 l 161 0 l 15 0 m 289 368 l 644 368 l 447 936 l 486 936 l 289 368 m 228 1176 l 393 1378 l 542 1378 l 708 1176 l 567 1176 l 468 1289 l 369 1176 l 228 1176 m 735 1278 l 607 1465 l 771 1465 l 854 1278 l 735 1278 z "},"Ẩ":{"ha":933,"x_min":15,"x_max":918,"o":"m 15 0 l 386 1035 l 547 1035 l 918 0 l 772 0 l 688 243 l 246 243 l 161 0 l 15 0 m 289 368 l 644 368 l 447 936 l 486 936 l 289 368 m 228 1176 l 393 1378 l 542 1378 l 708 1176 l 567 1176 l 468 1289 l 369 1176 l 228 1176 m 693 1274 l 639 1343 q 690 1376 674 1357 q 706 1421 706 1394 q 686 1461 706 1444 q 633 1478 667 1478 q 602 1475 618 1478 q 564 1463 586 1472 l 546 1544 q 599 1564 572 1558 q 651 1569 626 1569 q 774 1531 728 1569 q 821 1429 821 1492 q 785 1339 821 1381 q 693 1274 750 1297 z "},"Ẫ":{"ha":933,"x_min":15,"x_max":918,"o":"m 15 0 l 386 1035 l 547 1035 l 918 0 l 772 0 l 688 243 l 246 243 l 161 0 l 15 0 m 289 368 l 644 368 l 447 936 l 486 936 l 289 368 m 226 1176 l 392 1378 l 542 1378 l 708 1176 l 567 1176 l 467 1289 l 368 1176 l 226 1176 m 543 1464 q 494 1477 514 1464 q 460 1506 475 1490 q 433 1535 446 1522 q 400 1549 419 1549 q 372 1530 382 1549 q 361 1469 361 1511 l 260 1469 q 277 1573 260 1532 q 324 1635 294 1614 q 389 1656 353 1656 q 440 1643 421 1656 q 474 1614 460 1631 q 503 1585 489 1597 q 535 1572 517 1572 q 565 1593 556 1572 q 574 1650 574 1614 l 676 1650 q 637 1514 675 1564 q 543 1464 599 1464 z "},"Ȁ":{"ha":933,"x_min":15,"x_max":918,"o":"m 15 0 l 386 1035 l 547 1035 l 918 0 l 772 0 l 688 243 l 246 243 l 161 0 l 15 0 m 289 368 l 644 368 l 447 936 l 486 936 l 289 368 m 282 1176 l 128 1397 l 292 1397 l 401 1176 l 282 1176 m 533 1176 l 378 1397 l 542 1397 l 653 1176 l 533 1176 z "},"Ä":{"ha":933,"x_min":15,"x_max":918,"o":"m 15 0 l 386 1035 l 547 1035 l 918 0 l 772 0 l 688 243 l 246 243 l 161 0 l 15 0 m 289 368 l 644 368 l 447 936 l 486 936 l 289 368 m 256 1176 l 256 1333 l 411 1333 l 411 1176 l 256 1176 m 522 1176 l 522 1333 l 679 1333 l 679 1176 l 522 1176 z "},"Ạ":{"ha":933,"x_min":15,"x_max":918,"o":"m 15 0 l 386 1035 l 547 1035 l 918 0 l 772 0 l 688 243 l 246 243 l 161 0 l 15 0 m 289 368 l 644 368 l 447 936 l 486 936 l 289 368 m 389 -281 l 389 -125 l 544 -125 l 544 -281 l 389 -281 z "},"À":{"ha":933,"x_min":15,"x_max":918,"o":"m 15 0 l 386 1035 l 547 1035 l 918 0 l 772 0 l 688 243 l 246 243 l 161 0 l 15 0 m 289 368 l 644 368 l 447 936 l 486 936 l 289 368 m 401 1176 l 247 1396 l 421 1396 l 532 1176 l 401 1176 z "},"Ả":{"ha":933,"x_min":15,"x_max":918,"o":"m 15 0 l 386 1035 l 547 1035 l 918 0 l 772 0 l 688 243 l 246 243 l 161 0 l 15 0 m 289 368 l 644 368 l 447 936 l 486 936 l 289 368 m 478 1121 l 421 1193 q 473 1226 457 1207 q 489 1272 489 1246 q 469 1314 489 1297 q 415 1331 449 1331 q 383 1328 399 1331 q 344 1315 367 1325 l 326 1400 q 381 1420 353 1415 q 435 1425 408 1425 q 560 1385 513 1425 q 608 1282 608 1346 q 572 1188 608 1231 q 478 1121 536 1146 z "},"Ȃ":{"ha":933,"x_min":15,"x_max":918,"o":"m 15 0 l 386 1035 l 547 1035 l 918 0 l 772 0 l 688 243 l 246 243 l 161 0 l 15 0 m 289 368 l 644 368 l 447 936 l 486 936 l 289 368 m 228 1176 q 255 1285 228 1236 q 335 1363 282 1335 q 467 1392 388 1392 q 599 1363 546 1392 q 678 1287 651 1335 q 704 1176 704 1239 l 579 1176 q 549 1260 579 1231 q 467 1289 519 1289 q 384 1260 414 1289 q 354 1176 354 1231 l 228 1176 z "},"Ā":{"ha":933,"x_min":15,"x_max":918,"o":"m 15 0 l 386 1035 l 547 1035 l 918 0 l 772 0 l 688 243 l 246 243 l 161 0 l 15 0 m 289 368 l 644 368 l 447 936 l 486 936 l 289 368 m 268 1204 l 268 1319 l 667 1319 l 667 1204 l 268 1204 z "},"Ą":{"ha":933,"x_min":15,"x_max":950,"o":"m 15 0 l 386 1035 l 547 1035 l 918 0 l 772 0 l 688 243 l 246 243 l 161 0 l 15 0 m 289 368 l 644 368 l 447 936 l 486 936 l 289 368 m 806 -322 q 680 -281 726 -322 q 633 -174 633 -239 q 658 -80 633 -122 q 726 -7 682 -37 q 824 36 769 24 l 867 36 l 867 0 q 812 -29 839 -7 q 767 -84 785 -51 q 749 -158 749 -117 q 770 -206 749 -186 q 825 -226 792 -226 q 874 -217 850 -226 q 918 -189 899 -207 l 951 -274 q 887 -309 925 -296 q 806 -322 849 -322 z "},"Å":{"ha":933,"x_min":15,"x_max":918,"o":"m 15 0 l 386 1035 l 547 1035 l 918 0 l 772 0 l 688 243 l 246 243 l 161 0 l 15 0 m 289 368 l 644 368 l 447 936 l 486 936 l 289 368 m 468 1139 q 356 1181 403 1139 q 308 1293 308 1222 q 355 1406 308 1364 q 468 1449 401 1449 q 580 1406 533 1449 q 626 1293 626 1364 q 580 1181 626 1224 q 468 1139 533 1139 m 468 1225 q 515 1244 496 1225 q 535 1293 535 1263 q 515 1344 535 1325 q 468 1363 496 1363 q 420 1344 440 1363 q 400 1293 400 1325 q 419 1244 400 1263 q 468 1225 439 1225 z "},"Ǻ":{"ha":933,"x_min":15,"x_max":918,"o":"m 15 0 l 386 1035 l 547 1035 l 918 0 l 772 0 l 688 243 l 246 243 l 161 0 l 15 0 m 289 368 l 644 368 l 447 936 l 486 936 l 289 368 m 468 1139 q 356 1181 403 1139 q 308 1293 308 1222 q 355 1406 308 1364 q 468 1449 401 1449 q 580 1406 533 1449 q 626 1293 626 1364 q 580 1181 626 1224 q 468 1139 533 1139 m 468 1225 q 515 1244 496 1225 q 535 1293 535 1263 q 515 1344 535 1325 q 468 1363 496 1363 q 420 1344 440 1363 q 400 1293 400 1325 q 419 1244 400 1263 q 468 1225 439 1225 m 443 1379 l 524 1572 l 688 1572 l 574 1379 l 443 1379 z "},"Ã":{"ha":933,"x_min":15,"x_max":918,"o":"m 15 0 l 386 1035 l 547 1035 l 918 0 l 772 0 l 688 243 l 246 243 l 161 0 l 15 0 m 289 368 l 644 368 l 447 936 l 486 936 l 289 368 m 556 1176 q 495 1189 518 1176 q 456 1218 472 1201 q 422 1247 439 1235 q 382 1260 406 1260 q 347 1242 360 1260 q 333 1182 333 1225 l 229 1182 q 270 1322 229 1275 q 376 1368 311 1368 q 438 1356 414 1368 q 478 1326 461 1343 q 510 1297 494 1310 q 550 1285 526 1285 q 589 1305 575 1285 q 603 1363 603 1325 l 706 1363 q 664 1226 706 1276 q 556 1176 622 1176 z "},"Æ":{"ha":1371,"x_min":15,"x_max":1318,"o":"m 15 0 l 386 1035 l 1318 1035 l 1318 910 l 781 910 l 781 582 l 1290 582 l 1290 457 l 781 457 l 781 125 l 1318 125 l 1317 0 l 643 0 l 643 243 l 246 243 l 161 0 l 15 0 m 289 368 l 643 368 l 643 910 l 478 910 l 289 368 z "},"Ǽ":{"ha":1371,"x_min":15,"x_max":1318,"o":"m 15 0 l 386 1035 l 1318 1035 l 1318 910 l 781 910 l 781 582 l 1290 582 l 1290 457 l 781 457 l 781 125 l 1318 125 l 1317 0 l 643 0 l 643 243 l 246 243 l 161 0 l 15 0 m 289 368 l 643 368 l 643 910 l 478 910 l 289 368 m 622 1176 l 732 1396 l 907 1396 l 751 1176 l 622 1176 z "},"B":{"ha":961,"x_min":115,"x_max":893,"o":"m 115 0 l 115 1035 l 550 1035 q 710 1001 643 1035 q 815 908 778 968 q 851 764 851 847 q 812 626 851 688 q 696 529 772 564 l 694 581 q 805 515 761 556 q 871 420 849 474 q 893 307 893 367 q 801 82 893 164 q 551 0 710 0 l 115 0 m 251 125 l 557 125 q 701 174 647 125 q 756 306 756 222 q 701 438 756 389 q 557 488 647 488 l 251 488 l 251 125 m 251 610 l 547 610 q 668 653 622 610 q 714 765 714 697 q 668 874 714 836 q 547 911 622 911 l 251 911 l 251 610 z "},"C":{"ha":1082,"x_min":85,"x_max":1013,"o":"m 592 -17 q 390 23 482 -17 q 228 135 297 63 q 122 304 160 207 q 85 517 85 401 q 122 731 85 633 q 228 900 160 828 q 389 1012 296 972 q 592 1051 482 1051 q 784 1014 699 1051 q 928 917 869 976 q 1013 789 988 857 l 888 732 q 775 872 851 818 q 592 925 699 925 q 399 874 483 925 q 268 731 315 822 q 221 517 221 639 q 268 304 221 396 q 399 161 315 213 q 592 110 483 110 q 775 163 699 110 q 888 303 851 217 l 1013 246 q 928 118 988 178 q 784 21 869 58 q 592 -17 699 -17 z "},"Ć":{"ha":1082,"x_min":85,"x_max":1013,"o":"m 592 -17 q 390 23 482 -17 q 228 135 297 63 q 122 304 160 207 q 85 517 85 401 q 122 731 85 633 q 228 900 160 828 q 389 1012 296 972 q 592 1051 482 1051 q 784 1014 699 1051 q 928 917 869 976 q 1013 789 988 857 l 888 732 q 775 872 851 818 q 592 925 699 925 q 399 874 483 925 q 268 731 315 822 q 221 517 221 639 q 268 304 221 396 q 399 161 315 213 q 592 110 483 110 q 775 163 699 110 q 888 303 851 217 l 1013 246 q 928 118 988 178 q 784 21 869 58 q 592 -17 699 -17 m 528 1176 l 638 1396 l 813 1396 l 657 1176 l 528 1176 z "},"Č":{"ha":1082,"x_min":85,"x_max":1013,"o":"m 592 -17 q 390 23 482 -17 q 228 135 297 63 q 122 304 160 207 q 85 517 85 401 q 122 731 85 633 q 228 900 160 828 q 389 1012 296 972 q 592 1051 482 1051 q 784 1014 699 1051 q 928 917 869 976 q 1013 789 988 857 l 888 732 q 775 872 851 818 q 592 925 699 925 q 399 874 483 925 q 268 731 315 822 q 221 517 221 639 q 268 304 221 396 q 399 161 315 213 q 592 110 483 110 q 775 163 699 110 q 888 303 851 217 l 1013 246 q 928 118 988 178 q 784 21 869 58 q 592 -17 699 -17 m 517 1176 l 351 1392 l 493 1392 l 592 1265 l 690 1392 l 832 1392 l 665 1176 l 517 1176 z "},"Ç":{"ha":1082,"x_min":85,"x_max":1013,"o":"m 592 -17 q 390 23 482 -17 q 228 135 297 63 q 122 304 160 207 q 85 517 85 401 q 122 731 85 633 q 228 900 160 828 q 389 1012 296 972 q 592 1051 482 1051 q 784 1014 699 1051 q 928 917 869 976 q 1013 789 988 857 l 888 732 q 775 872 851 818 q 592 925 699 925 q 399 874 483 925 q 268 731 315 822 q 221 517 221 639 q 268 304 221 396 q 399 161 315 213 q 592 110 483 110 q 775 163 699 110 q 888 303 851 217 l 1013 246 q 928 118 988 178 q 784 21 869 58 q 592 -17 699 -17 m 608 -322 q 528 -309 569 -322 q 460 -274 486 -296 l 492 -189 q 539 -217 513 -207 q 590 -226 565 -226 q 639 -212 621 -226 q 657 -174 657 -197 q 625 -126 657 -143 q 524 -100 593 -108 l 556 14 l 640 14 l 625 -49 q 735 -97 697 -62 q 774 -182 774 -132 q 727 -283 774 -244 q 608 -322 681 -322 z "},"Ḉ":{"ha":1082,"x_min":85,"x_max":1013,"o":"m 592 -17 q 390 23 482 -17 q 228 135 297 63 q 122 304 160 207 q 85 517 85 401 q 122 731 85 633 q 228 900 160 828 q 389 1012 296 972 q 592 1051 482 1051 q 784 1014 699 1051 q 928 917 869 976 q 1013 789 988 857 l 888 732 q 775 872 851 818 q 592 925 699 925 q 399 874 483 925 q 268 731 315 822 q 221 517 221 639 q 268 304 221 396 q 399 161 315 213 q 592 110 483 110 q 775 163 699 110 q 888 303 851 217 l 1013 246 q 928 118 988 178 q 784 21 869 58 q 592 -17 699 -17 m 608 -322 q 528 -309 569 -322 q 460 -274 486 -296 l 492 -189 q 539 -217 513 -207 q 590 -226 565 -226 q 639 -212 621 -226 q 657 -174 657 -197 q 625 -126 657 -143 q 524 -100 593 -108 l 556 14 l 640 14 l 625 -49 q 735 -97 697 -62 q 774 -182 774 -132 q 727 -283 774 -244 q 608 -322 681 -322 m 528 1176 l 638 1396 l 813 1396 l 657 1176 l 528 1176 z "},"Ĉ":{"ha":1082,"x_min":85,"x_max":1013,"o":"m 592 -17 q 390 23 482 -17 q 228 135 297 63 q 122 304 160 207 q 85 517 85 401 q 122 731 85 633 q 228 900 160 828 q 389 1012 296 972 q 592 1051 482 1051 q 784 1014 699 1051 q 928 917 869 976 q 1013 789 988 857 l 888 732 q 775 872 851 818 q 592 925 699 925 q 399 874 483 925 q 268 731 315 822 q 221 517 221 639 q 268 304 221 396 q 399 161 315 213 q 592 110 483 110 q 775 163 699 110 q 888 303 851 217 l 1013 246 q 928 118 988 178 q 784 21 869 58 q 592 -17 699 -17 m 353 1176 l 518 1392 l 667 1392 l 833 1176 l 692 1176 l 593 1303 l 494 1176 l 353 1176 z "},"Ċ":{"ha":1082,"x_min":85,"x_max":1013,"o":"m 592 -17 q 390 23 482 -17 q 228 135 297 63 q 122 304 160 207 q 85 517 85 401 q 122 731 85 633 q 228 900 160 828 q 389 1012 296 972 q 592 1051 482 1051 q 784 1014 699 1051 q 928 917 869 976 q 1013 789 988 857 l 888 732 q 775 872 851 818 q 592 925 699 925 q 399 874 483 925 q 268 731 315 822 q 221 517 221 639 q 268 304 221 396 q 399 161 315 213 q 592 110 483 110 q 775 163 699 110 q 888 303 851 217 l 1013 246 q 928 118 988 178 q 784 21 869 58 q 592 -17 699 -17 m 514 1176 l 514 1333 l 669 1333 l 669 1176 l 514 1176 z "},"D":{"ha":1029,"x_min":115,"x_max":972,"o":"m 115 0 l 115 1035 l 454 1035 q 728 971 611 1035 q 908 791 844 907 q 972 518 972 675 q 908 246 972 363 q 728 65 844 129 q 454 0 611 0 l 115 0 m 251 125 l 456 125 q 655 174 571 125 q 785 310 739 222 q 831 518 831 399 q 784 726 831 639 q 653 862 738 814 q 456 910 569 910 l 251 910 l 251 125 z "},"Ǆ":{"ha":1835,"x_min":115,"x_max":1808,"o":"m 115 0 l 115 1035 l 454 1035 q 728 971 611 1035 q 908 791 844 907 q 972 518 972 675 q 908 246 972 363 q 728 65 844 129 q 454 0 611 0 l 115 0 m 251 125 l 456 125 q 655 174 571 125 q 785 310 739 222 q 831 518 831 399 q 784 726 831 639 q 653 862 738 814 q 456 910 569 910 l 251 910 l 251 125 m 1056 0 l 1056 100 l 1618 910 l 1089 910 l 1089 1035 l 1794 1035 l 1794 935 l 1235 125 l 1808 125 l 1808 0 l 1056 0 m 1357 1176 l 1192 1392 l 1333 1392 l 1432 1265 l 1531 1392 l 1672 1392 l 1506 1176 l 1357 1176 z "},"Ď":{"ha":1029,"x_min":115,"x_max":972,"o":"m 115 0 l 115 1035 l 454 1035 q 728 971 611 1035 q 908 791 844 907 q 972 518 972 675 q 908 246 972 363 q 728 65 844 129 q 454 0 611 0 l 115 0 m 251 125 l 456 125 q 655 174 571 125 q 785 310 739 222 q 831 518 831 399 q 784 726 831 639 q 653 862 738 814 q 456 910 569 910 l 251 910 l 251 125 m 453 1176 l 288 1392 l 429 1392 l 528 1265 l 626 1392 l 768 1392 l 601 1176 l 453 1176 z "},"Đ":{"ha":1029,"x_min":33,"x_max":972,"o":"m 33 460 l 33 578 l 472 578 l 472 460 l 33 460 m 115 0 l 115 1035 l 454 1035 q 728 971 611 1035 q 908 791 844 907 q 972 518 972 675 q 908 246 972 363 q 728 65 844 129 q 454 0 611 0 l 115 0 m 251 125 l 456 125 q 655 174 571 125 q 785 310 739 222 q 831 518 831 399 q 784 726 831 639 q 653 862 738 814 q 456 910 569 910 l 251 910 l 251 125 z "},"Ḍ":{"ha":1029,"x_min":115,"x_max":972,"o":"m 115 0 l 115 1035 l 454 1035 q 728 971 611 1035 q 908 791 844 907 q 972 518 972 675 q 908 246 972 363 q 728 65 844 129 q 454 0 611 0 l 115 0 m 251 125 l 456 125 q 655 174 571 125 q 785 310 739 222 q 831 518 831 399 q 784 726 831 639 q 653 862 738 814 q 456 910 569 910 l 251 910 l 251 125 m 451 -281 l 451 -125 l 607 -125 l 607 -281 l 451 -281 z "},"Ḏ":{"ha":1029,"x_min":115,"x_max":972,"o":"m 115 0 l 115 1035 l 454 1035 q 728 971 611 1035 q 908 791 844 907 q 972 518 972 675 q 908 246 972 363 q 728 65 844 129 q 454 0 611 0 l 115 0 m 251 125 l 456 125 q 655 174 571 125 q 785 310 739 222 q 831 518 831 399 q 784 726 831 639 q 653 862 738 814 q 456 910 569 910 l 251 910 l 251 125 m 329 -253 l 329 -139 l 728 -139 l 728 -253 l 329 -253 z "},"ǅ":{"ha":1668,"x_min":115,"x_max":1642,"o":"m 115 0 l 115 1035 l 454 1035 q 728 971 611 1035 q 908 791 844 907 q 972 518 972 675 q 908 246 972 363 q 728 65 844 129 q 454 0 611 0 l 115 0 m 251 125 l 456 125 q 655 174 571 125 q 785 310 739 222 q 831 518 831 399 q 784 726 831 639 q 653 862 738 814 q 456 910 569 910 l 251 910 l 251 125 m 1056 0 l 1056 110 l 1501 672 l 1524 625 l 1078 625 l 1078 749 l 1639 749 l 1639 639 l 1197 75 l 1175 124 l 1642 124 l 1642 0 l 1056 0 m 1269 889 l 1104 1104 l 1246 1104 l 1344 978 l 1443 1104 l 1585 1104 l 1418 889 l 1269 889 z "},"Ð":{"ha":1029,"x_min":33,"x_max":972,"o":"m 33 460 l 33 578 l 472 578 l 472 460 l 33 460 m 115 0 l 115 1035 l 454 1035 q 728 971 611 1035 q 908 791 844 907 q 972 518 972 675 q 908 246 972 363 q 728 65 844 129 q 454 0 611 0 l 115 0 m 251 125 l 456 125 q 655 174 571 125 q 785 310 739 222 q 831 518 831 399 q 784 726 831 639 q 653 862 738 814 q 456 910 569 910 l 251 910 l 251 125 z "},"E":{"ha":842,"x_min":115,"x_max":789,"o":"m 115 0 l 115 1035 l 789 1035 l 789 910 l 251 910 l 251 582 l 761 582 l 761 457 l 251 457 l 251 125 l 789 125 l 789 0 l 115 0 z "},"É":{"ha":842,"x_min":115,"x_max":789,"o":"m 115 0 l 115 1035 l 789 1035 l 789 910 l 251 910 l 251 582 l 761 582 l 761 457 l 251 457 l 251 125 l 789 125 l 789 0 l 115 0 m 388 1176 l 497 1396 l 672 1396 l 517 1176 l 388 1176 z "},"Ĕ":{"ha":842,"x_min":115,"x_max":789,"o":"m 115 0 l 115 1035 l 789 1035 l 789 910 l 251 910 l 251 582 l 761 582 l 761 457 l 251 457 l 251 125 l 789 125 l 789 0 l 115 0 m 453 1178 q 321 1206 374 1178 q 241 1284 268 1235 q 214 1393 214 1333 l 340 1393 q 370 1310 340 1339 q 453 1281 400 1281 q 535 1310 506 1281 q 565 1393 565 1339 l 690 1393 q 664 1283 690 1332 q 585 1206 638 1235 q 453 1178 532 1178 z "},"Ě":{"ha":842,"x_min":115,"x_max":789,"o":"m 115 0 l 115 1035 l 789 1035 l 789 910 l 251 910 l 251 582 l 761 582 l 761 457 l 251 457 l 251 125 l 789 125 l 789 0 l 115 0 m 376 1176 l 211 1392 l 353 1392 l 451 1265 l 550 1392 l 692 1392 l 525 1176 l 376 1176 z "},"Ḝ":{"ha":842,"x_min":115,"x_max":789,"o":"m 115 0 l 115 1035 l 789 1035 l 789 910 l 251 910 l 251 582 l 761 582 l 761 457 l 251 457 l 251 125 l 789 125 l 789 0 l 115 0 m 468 -322 q 388 -309 429 -322 q 319 -274 346 -296 l 351 -189 q 399 -217 372 -207 q 450 -226 425 -226 q 499 -212 481 -226 q 517 -174 517 -197 q 485 -126 517 -143 q 383 -100 453 -108 l 415 14 l 500 14 l 485 -49 q 595 -97 557 -62 q 633 -182 633 -132 q 587 -283 633 -244 q 468 -322 540 -322 m 453 1178 q 321 1206 374 1178 q 241 1284 268 1235 q 214 1393 214 1333 l 340 1393 q 370 1310 340 1339 q 453 1281 400 1281 q 535 1310 506 1281 q 565 1393 565 1339 l 690 1393 q 664 1283 690 1332 q 585 1206 638 1235 q 453 1178 532 1178 z "},"Ê":{"ha":842,"x_min":115,"x_max":789,"o":"m 115 0 l 115 1035 l 789 1035 l 789 910 l 251 910 l 251 582 l 761 582 l 761 457 l 251 457 l 251 125 l 789 125 l 789 0 l 115 0 m 213 1176 l 378 1392 l 526 1392 l 693 1176 l 551 1176 l 453 1303 l 354 1176 l 213 1176 z "},"Ế":{"ha":842,"x_min":115,"x_max":882,"o":"m 115 0 l 115 1035 l 789 1035 l 789 910 l 251 910 l 251 582 l 761 582 l 761 457 l 251 457 l 251 125 l 789 125 l 789 0 l 115 0 m 213 1176 l 378 1378 l 526 1378 l 693 1176 l 551 1176 l 453 1289 l 354 1176 l 213 1176 m 636 1278 l 719 1465 l 883 1465 l 756 1278 l 636 1278 z "},"Ệ":{"ha":842,"x_min":115,"x_max":789,"o":"m 115 0 l 115 1035 l 789 1035 l 789 910 l 251 910 l 251 582 l 761 582 l 761 457 l 251 457 l 251 125 l 789 125 l 789 0 l 115 0 m 375 -281 l 375 -125 l 531 -125 l 531 -281 l 375 -281 m 213 1176 l 378 1392 l 526 1392 l 693 1176 l 551 1176 l 453 1303 l 354 1176 l 213 1176 z "},"Ề":{"ha":842,"x_min":115,"x_max":839,"o":"m 115 0 l 115 1035 l 789 1035 l 789 910 l 251 910 l 251 582 l 761 582 l 761 457 l 251 457 l 251 125 l 789 125 l 789 0 l 115 0 m 213 1176 l 378 1378 l 526 1378 l 693 1176 l 551 1176 l 453 1289 l 354 1176 l 213 1176 m 719 1278 l 592 1465 l 756 1465 l 839 1278 l 719 1278 z "},"Ể":{"ha":842,"x_min":115,"x_max":804,"o":"m 115 0 l 115 1035 l 789 1035 l 789 910 l 251 910 l 251 582 l 761 582 l 761 457 l 251 457 l 251 125 l 789 125 l 789 0 l 115 0 m 213 1176 l 378 1378 l 526 1378 l 693 1176 l 551 1176 l 453 1289 l 354 1176 l 213 1176 m 678 1274 l 624 1343 q 674 1376 658 1357 q 690 1421 690 1394 q 671 1461 690 1444 q 618 1478 651 1478 q 587 1475 603 1478 q 549 1463 571 1472 l 531 1544 q 584 1564 557 1558 q 636 1569 611 1569 q 759 1531 713 1569 q 806 1429 806 1492 q 770 1339 806 1381 q 678 1274 735 1297 z "},"Ễ":{"ha":842,"x_min":115,"x_max":789,"o":"m 115 0 l 115 1035 l 789 1035 l 789 910 l 251 910 l 251 582 l 761 582 l 761 457 l 251 457 l 251 125 l 789 125 l 789 0 l 115 0 m 211 1176 l 376 1378 l 526 1378 l 693 1176 l 551 1176 l 451 1289 l 353 1176 l 211 1176 m 528 1464 q 479 1477 499 1464 q 445 1506 460 1490 q 417 1535 431 1522 q 385 1549 404 1549 q 356 1530 367 1549 q 346 1469 346 1511 l 244 1469 q 262 1573 244 1532 q 308 1635 279 1614 q 374 1656 338 1656 q 425 1643 406 1656 q 459 1614 444 1631 q 488 1585 474 1597 q 519 1572 501 1572 q 549 1593 540 1572 q 558 1650 558 1614 l 661 1650 q 622 1514 660 1564 q 528 1464 583 1464 z "},"Ȅ":{"ha":842,"x_min":111,"x_max":789,"o":"m 115 0 l 115 1035 l 789 1035 l 789 910 l 251 910 l 251 582 l 761 582 l 761 457 l 251 457 l 251 125 l 789 125 l 789 0 l 115 0 m 267 1176 l 113 1397 l 276 1397 l 386 1176 l 267 1176 m 518 1176 l 363 1397 l 526 1397 l 638 1176 l 518 1176 z "},"Ë":{"ha":842,"x_min":115,"x_max":789,"o":"m 115 0 l 115 1035 l 789 1035 l 789 910 l 251 910 l 251 582 l 761 582 l 761 457 l 251 457 l 251 125 l 789 125 l 789 0 l 115 0 m 240 1176 l 240 1333 l 396 1333 l 396 1176 l 240 1176 m 507 1176 l 507 1333 l 664 1333 l 664 1176 l 507 1176 z "},"Ė":{"ha":842,"x_min":115,"x_max":789,"o":"m 115 0 l 115 1035 l 789 1035 l 789 910 l 251 910 l 251 582 l 761 582 l 761 457 l 251 457 l 251 125 l 789 125 l 789 0 l 115 0 m 375 1176 l 375 1333 l 531 1333 l 531 1176 l 375 1176 z "},"Ẹ":{"ha":842,"x_min":115,"x_max":789,"o":"m 115 0 l 115 1035 l 789 1035 l 789 910 l 251 910 l 251 582 l 761 582 l 761 457 l 251 457 l 251 125 l 789 125 l 789 0 l 115 0 m 375 -281 l 375 -125 l 531 -125 l 531 -281 l 375 -281 z "},"È":{"ha":842,"x_min":115,"x_max":789,"o":"m 115 0 l 115 1035 l 789 1035 l 789 910 l 251 910 l 251 582 l 761 582 l 761 457 l 251 457 l 251 125 l 789 125 l 789 0 l 115 0 m 388 1176 l 233 1396 l 407 1396 l 518 1176 l 388 1176 z "},"Ẻ":{"ha":842,"x_min":115,"x_max":789,"o":"m 115 0 l 115 1035 l 789 1035 l 789 910 l 251 910 l 251 582 l 761 582 l 761 457 l 251 457 l 251 125 l 789 125 l 789 0 l 115 0 m 463 1121 l 406 1193 q 458 1226 442 1207 q 474 1272 474 1246 q 453 1314 474 1297 q 400 1331 433 1331 q 367 1328 383 1331 q 329 1315 351 1325 l 311 1400 q 365 1420 338 1415 q 419 1425 393 1425 q 545 1385 497 1425 q 593 1282 593 1346 q 557 1188 593 1231 q 463 1121 521 1146 z "},"Ȇ":{"ha":842,"x_min":115,"x_max":789,"o":"m 115 0 l 115 1035 l 789 1035 l 789 910 l 251 910 l 251 582 l 761 582 l 761 457 l 251 457 l 251 125 l 789 125 l 789 0 l 115 0 m 214 1176 q 241 1285 214 1236 q 321 1363 268 1335 q 453 1392 374 1392 q 585 1363 532 1392 q 664 1287 638 1335 q 690 1176 690 1239 l 565 1176 q 535 1260 565 1231 q 453 1289 506 1289 q 370 1260 400 1289 q 340 1176 340 1231 l 214 1176 z "},"Ē":{"ha":842,"x_min":115,"x_max":789,"o":"m 115 0 l 115 1035 l 789 1035 l 789 910 l 251 910 l 251 582 l 761 582 l 761 457 l 251 457 l 251 125 l 789 125 l 789 0 l 115 0 m 253 1204 l 253 1319 l 651 1319 l 651 1204 l 253 1204 z "},"Ḗ":{"ha":842,"x_min":115,"x_max":789,"o":"m 115 0 l 115 1035 l 789 1035 l 789 910 l 251 910 l 251 582 l 761 582 l 761 457 l 251 457 l 251 125 l 789 125 l 789 0 l 115 0 m 376 1413 l 488 1632 l 663 1632 l 507 1413 l 376 1413 m 243 1204 l 243 1319 l 642 1319 l 642 1204 l 243 1204 z "},"Ḕ":{"ha":842,"x_min":115,"x_max":789,"o":"m 115 0 l 115 1035 l 789 1035 l 789 910 l 251 910 l 251 582 l 761 582 l 761 457 l 251 457 l 251 125 l 789 125 l 789 0 l 115 0 m 253 1204 l 253 1319 l 653 1319 l 653 1204 l 253 1204 m 388 1413 l 233 1632 l 407 1632 l 518 1413 l 388 1413 z "},"Ę":{"ha":842,"x_min":115,"x_max":789,"o":"m 115 0 l 115 1035 l 789 1035 l 789 910 l 251 910 l 251 582 l 761 582 l 761 457 l 251 457 l 251 125 l 789 125 l 789 0 l 115 0 m 610 -322 q 484 -281 531 -322 q 438 -174 438 -239 q 462 -80 438 -122 q 530 -7 486 -37 q 628 36 574 24 l 671 36 l 671 0 q 616 -29 643 -7 q 571 -84 589 -51 q 553 -158 553 -117 q 574 -206 553 -186 q 629 -226 596 -226 q 678 -217 654 -226 q 722 -189 703 -207 l 756 -274 q 691 -309 729 -296 q 610 -322 653 -322 z "},"Ẽ":{"ha":842,"x_min":115,"x_max":789,"o":"m 115 0 l 115 1035 l 789 1035 l 789 910 l 251 910 l 251 582 l 761 582 l 761 457 l 251 457 l 251 125 l 789 125 l 789 0 l 115 0 m 540 1176 q 480 1189 503 1176 q 440 1218 457 1201 q 407 1247 424 1235 q 367 1260 390 1260 q 331 1242 344 1260 q 318 1182 318 1225 l 214 1182 q 255 1322 214 1275 q 361 1368 296 1368 q 422 1356 399 1368 q 463 1326 446 1343 q 495 1297 479 1310 q 535 1285 511 1285 q 574 1305 560 1285 q 588 1363 588 1325 l 690 1363 q 649 1226 690 1276 q 540 1176 607 1176 z "},"Ə":{"ha":1147,"x_min":85,"x_max":1064,"o":"m 567 -17 q 373 20 461 -17 q 220 124 285 57 q 120 279 156 190 q 85 474 85 368 q 87 518 85 497 q 93 561 89 539 l 956 561 l 956 442 l 178 442 l 238 479 q 235 458 236 469 q 235 438 235 447 q 278 269 235 343 q 397 153 321 196 q 572 110 474 110 q 715 138 650 110 q 828 220 781 167 q 902 349 876 274 q 926 518 928 425 q 901 678 928 604 q 822 808 874 753 q 699 894 771 863 q 543 925 628 925 q 358 878 440 925 q 231 747 275 831 l 113 807 q 212 935 147 881 q 362 1021 276 990 q 544 1051 447 1051 q 751 1011 656 1051 q 916 897 846 971 q 1025 726 986 824 q 1064 513 1064 629 q 1028 309 1064 404 q 928 140 993 214 q 771 25 863 67 q 567 -17 679 -17 z "},"F":{"ha":810,"x_min":115,"x_max":771,"o":"m 115 0 l 115 1035 l 771 1035 l 771 910 l 251 910 l 251 575 l 722 575 l 722 450 l 251 450 l 251 0 l 115 0 z "},"G":{"ha":1135,"x_min":85,"x_max":1067,"o":"m 593 -17 q 390 23 483 -17 q 229 135 297 63 q 123 304 161 207 q 85 517 85 401 q 122 731 85 633 q 228 900 160 828 q 389 1012 296 972 q 592 1051 482 1051 q 784 1014 699 1051 q 928 917 869 976 q 1013 789 988 857 l 890 729 q 778 872 854 819 q 592 925 701 925 q 399 874 483 925 q 268 731 315 822 q 221 517 221 639 q 269 304 221 396 q 401 161 317 213 q 593 110 485 110 q 764 150 688 110 q 885 261 840 190 q 929 425 929 332 l 929 489 l 992 431 l 592 431 l 592 549 l 1067 549 l 1067 457 q 1029 261 1067 349 q 926 112 992 174 q 775 17 861 50 q 593 -17 689 -17 z "},"Ğ":{"ha":1135,"x_min":85,"x_max":1067,"o":"m 593 -17 q 390 23 483 -17 q 229 135 297 63 q 123 304 161 207 q 85 517 85 401 q 122 731 85 633 q 228 900 160 828 q 389 1012 296 972 q 592 1051 482 1051 q 784 1014 699 1051 q 928 917 869 976 q 1013 789 988 857 l 890 729 q 778 872 854 819 q 592 925 701 925 q 399 874 483 925 q 268 731 315 822 q 221 517 221 639 q 269 304 221 396 q 401 161 317 213 q 593 110 485 110 q 764 150 688 110 q 885 261 840 190 q 929 425 929 332 l 929 489 l 992 431 l 592 431 l 592 549 l 1067 549 l 1067 457 q 1029 261 1067 349 q 926 112 992 174 q 775 17 861 50 q 593 -17 689 -17 m 568 1178 q 436 1206 489 1178 q 356 1284 383 1235 q 329 1393 329 1333 l 456 1393 q 485 1310 456 1339 q 568 1281 515 1281 q 651 1310 621 1281 q 681 1393 681 1339 l 806 1393 q 779 1283 806 1332 q 700 1206 753 1235 q 568 1178 647 1178 z "},"Ǧ":{"ha":1135,"x_min":85,"x_max":1067,"o":"m 593 -17 q 390 23 483 -17 q 229 135 297 63 q 123 304 161 207 q 85 517 85 401 q 122 731 85 633 q 228 900 160 828 q 389 1012 296 972 q 592 1051 482 1051 q 784 1014 699 1051 q 928 917 869 976 q 1013 789 988 857 l 890 729 q 778 872 854 819 q 592 925 701 925 q 399 874 483 925 q 268 731 315 822 q 221 517 221 639 q 269 304 221 396 q 401 161 317 213 q 593 110 485 110 q 764 150 688 110 q 885 261 840 190 q 929 425 929 332 l 929 489 l 992 431 l 592 431 l 592 549 l 1067 549 l 1067 457 q 1029 261 1067 349 q 926 112 992 174 q 775 17 861 50 q 593 -17 689 -17 m 493 1176 l 328 1392 l 469 1392 l 568 1265 l 667 1392 l 808 1392 l 642 1176 l 493 1176 z "},"Ĝ":{"ha":1135,"x_min":85,"x_max":1067,"o":"m 593 -17 q 390 23 483 -17 q 229 135 297 63 q 123 304 161 207 q 85 517 85 401 q 122 731 85 633 q 228 900 160 828 q 389 1012 296 972 q 592 1051 482 1051 q 784 1014 699 1051 q 928 917 869 976 q 1013 789 988 857 l 890 729 q 778 872 854 819 q 592 925 701 925 q 399 874 483 925 q 268 731 315 822 q 221 517 221 639 q 269 304 221 396 q 401 161 317 213 q 593 110 485 110 q 764 150 688 110 q 885 261 840 190 q 929 425 929 332 l 929 489 l 992 431 l 592 431 l 592 549 l 1067 549 l 1067 457 q 1029 261 1067 349 q 926 112 992 174 q 775 17 861 50 q 593 -17 689 -17 m 328 1176 l 493 1392 l 642 1392 l 808 1176 l 667 1176 l 568 1303 l 469 1176 l 328 1176 z "},"Ģ":{"ha":1135,"x_min":85,"x_max":1067,"o":"m 593 -17 q 390 23 483 -17 q 229 135 297 63 q 123 304 161 207 q 85 517 85 401 q 122 731 85 633 q 228 900 160 828 q 389 1012 296 972 q 592 1051 482 1051 q 784 1014 699 1051 q 928 917 869 976 q 1013 789 988 857 l 890 729 q 778 872 854 819 q 592 925 701 925 q 399 874 483 925 q 268 731 315 822 q 221 517 221 639 q 269 304 221 396 q 401 161 317 213 q 593 110 485 110 q 764 150 688 110 q 885 261 840 190 q 929 425 929 332 l 929 489 l 992 431 l 592 431 l 592 549 l 1067 549 l 1067 457 q 1029 261 1067 349 q 926 112 992 174 q 775 17 861 50 q 593 -17 689 -17 m 435 -342 l 489 -97 l 649 -97 l 556 -342 l 435 -342 z "},"Ġ":{"ha":1135,"x_min":85,"x_max":1067,"o":"m 593 -17 q 390 23 483 -17 q 229 135 297 63 q 123 304 161 207 q 85 517 85 401 q 122 731 85 633 q 228 900 160 828 q 389 1012 296 972 q 592 1051 482 1051 q 784 1014 699 1051 q 928 917 869 976 q 1013 789 988 857 l 890 729 q 778 872 854 819 q 592 925 701 925 q 399 874 483 925 q 268 731 315 822 q 221 517 221 639 q 269 304 221 396 q 401 161 317 213 q 593 110 485 110 q 764 150 688 110 q 885 261 840 190 q 929 425 929 332 l 929 489 l 992 431 l 592 431 l 592 549 l 1067 549 l 1067 457 q 1029 261 1067 349 q 926 112 992 174 q 775 17 861 50 q 593 -17 689 -17 m 490 1176 l 490 1333 l 646 1333 l 646 1176 l 490 1176 z "},"Ḡ":{"ha":1135,"x_min":85,"x_max":1067,"o":"m 593 -17 q 390 23 483 -17 q 229 135 297 63 q 123 304 161 207 q 85 517 85 401 q 122 731 85 633 q 228 900 160 828 q 389 1012 296 972 q 592 1051 482 1051 q 784 1014 699 1051 q 928 917 869 976 q 1013 789 988 857 l 890 729 q 778 872 854 819 q 592 925 701 925 q 399 874 483 925 q 268 731 315 822 q 221 517 221 639 q 269 304 221 396 q 401 161 317 213 q 593 110 485 110 q 764 150 688 110 q 885 261 840 190 q 929 425 929 332 l 929 489 l 992 431 l 592 431 l 592 549 l 1067 549 l 1067 457 q 1029 261 1067 349 q 926 112 992 174 q 775 17 861 50 q 593 -17 689 -17 m 369 1204 l 369 1319 l 768 1319 l 768 1204 l 369 1204 z "},"H":{"ha":1021,"x_min":115,"x_max":907,"o":"m 115 0 l 115 1035 l 251 1035 l 251 574 l 769 574 l 769 1035 l 907 1035 l 907 0 l 769 0 l 769 449 l 251 449 l 251 0 l 115 0 z "},"Ħ":{"ha":1021,"x_min":-3,"x_max":1024,"o":"m -3 765 l -3 889 l 1024 889 l 1024 765 l -3 765 m 115 0 l 115 1035 l 251 1035 l 251 574 l 769 574 l 769 1035 l 907 1035 l 907 0 l 769 0 l 769 449 l 251 449 l 251 0 l 115 0 z "},"Ḫ":{"ha":1021,"x_min":115,"x_max":907,"o":"m 115 0 l 115 1035 l 251 1035 l 251 574 l 769 574 l 769 1035 l 907 1035 l 907 0 l 769 0 l 769 449 l 251 449 l 251 0 l 115 0 m 511 -340 q 379 -312 432 -340 q 299 -234 326 -283 q 272 -125 272 -185 l 399 -125 q 428 -208 399 -179 q 511 -237 458 -237 q 594 -208 564 -237 q 624 -125 624 -179 l 749 -125 q 722 -235 749 -186 q 643 -312 696 -283 q 511 -340 590 -340 z "},"Ĥ":{"ha":1021,"x_min":115,"x_max":907,"o":"m 115 0 l 115 1035 l 251 1035 l 251 574 l 769 574 l 769 1035 l 907 1035 l 907 0 l 769 0 l 769 449 l 251 449 l 251 0 l 115 0 m 271 1176 l 436 1392 l 585 1392 l 751 1176 l 610 1176 l 511 1303 l 413 1176 l 271 1176 z "},"Ḥ":{"ha":1021,"x_min":115,"x_max":907,"o":"m 115 0 l 115 1035 l 251 1035 l 251 574 l 769 574 l 769 1035 l 907 1035 l 907 0 l 769 0 l 769 449 l 251 449 l 251 0 l 115 0 m 433 -281 l 433 -125 l 589 -125 l 589 -281 l 433 -281 z "},"I":{"ha":367,"x_min":115,"x_max":251,"o":"m 115 0 l 115 1035 l 251 1035 l 251 0 l 115 0 z "},"Ĳ":{"ha":903,"x_min":115,"x_max":789,"o":"m 115 0 l 115 1035 l 251 1035 l 251 0 l 115 0 m 436 0 l 436 132 l 493 132 q 610 176 567 132 q 653 294 653 219 l 653 1035 l 790 1035 l 790 297 q 753 140 790 207 q 650 37 717 74 q 493 0 583 0 l 436 0 z "},"Í":{"ha":367,"x_min":115,"x_max":403,"o":"m 115 0 l 115 1035 l 251 1035 l 251 0 l 115 0 m 119 1176 l 229 1396 l 404 1396 l 249 1176 l 119 1176 z "},"Ĭ":{"ha":367,"x_min":-56,"x_max":422,"o":"m 115 0 l 115 1035 l 251 1035 l 251 0 l 115 0 m 183 1178 q 51 1206 104 1178 q -28 1284 -1 1235 q -56 1393 -56 1333 l 71 1393 q 101 1310 71 1339 q 183 1281 131 1281 q 266 1310 236 1281 q 296 1393 296 1339 l 421 1393 q 394 1283 421 1332 q 315 1206 368 1235 q 183 1178 263 1178 z "},"Î":{"ha":367,"x_min":-57,"x_max":425,"o":"m 115 0 l 115 1035 l 251 1035 l 251 0 l 115 0 m -56 1176 l 110 1392 l 258 1392 l 425 1176 l 283 1176 l 185 1303 l 86 1176 l -56 1176 z "},"Ȉ":{"ha":367,"x_min":-157,"x_max":368,"o":"m 115 0 l 115 1035 l 251 1035 l 251 0 l 115 0 m -1 1176 l -156 1397 l 8 1397 l 118 1176 l -1 1176 m 250 1176 l 94 1397 l 258 1397 l 369 1176 l 250 1176 z "},"Ï":{"ha":367,"x_min":-28,"x_max":396,"o":"m 115 0 l 115 1035 l 251 1035 l 251 0 l 115 0 m -28 1176 l -28 1333 l 128 1333 l 128 1176 l -28 1176 m 239 1176 l 239 1333 l 396 1333 l 396 1176 l 239 1176 z "},"Ḯ":{"ha":367,"x_min":-33,"x_max":397,"o":"m 115 0 l 115 1035 l 251 1035 l 251 0 l 115 0 m 111 1413 l 222 1632 l 396 1632 l 242 1413 l 111 1413 m -33 1176 l -33 1333 l 122 1333 l 122 1176 l -33 1176 m 233 1176 l 233 1333 l 390 1333 l 390 1176 l 233 1176 z "},"İ":{"ha":367,"x_min":106,"x_max":261,"o":"m 115 0 l 115 1035 l 251 1035 l 251 0 l 115 0 m 106 1176 l 106 1333 l 261 1333 l 261 1176 l 106 1176 z "},"Ị":{"ha":367,"x_min":106,"x_max":261,"o":"m 115 0 l 115 1035 l 251 1035 l 251 0 l 115 0 m 106 -281 l 106 -125 l 261 -125 l 261 -281 l 106 -281 z "},"Ì":{"ha":367,"x_min":-36,"x_max":251,"o":"m 115 0 l 115 1035 l 251 1035 l 251 0 l 115 0 m 118 1176 l -36 1396 l 138 1396 l 249 1176 l 118 1176 z "},"Ỉ":{"ha":367,"x_min":42,"x_max":324,"o":"m 115 0 l 115 1035 l 251 1035 l 251 0 l 115 0 m 194 1121 l 138 1193 q 190 1226 174 1207 q 206 1272 206 1246 q 185 1314 206 1297 q 132 1331 165 1331 q 99 1328 115 1331 q 61 1315 83 1325 l 43 1400 q 97 1420 69 1415 q 151 1425 125 1425 q 277 1385 229 1425 q 325 1282 325 1346 q 289 1188 325 1231 q 194 1121 253 1146 z "},"Ȋ":{"ha":367,"x_min":-56,"x_max":422,"o":"m 115 0 l 115 1035 l 251 1035 l 251 0 l 115 0 m -56 1176 q -28 1285 -56 1236 q 51 1363 -1 1335 q 183 1392 104 1392 q 315 1363 263 1392 q 394 1287 368 1335 q 421 1176 421 1239 l 296 1176 q 266 1260 296 1231 q 183 1289 236 1289 q 101 1260 131 1289 q 71 1176 71 1231 l -56 1176 z "},"Ī":{"ha":367,"x_min":-17,"x_max":383,"o":"m 115 0 l 115 1035 l 251 1035 l 251 0 l 115 0 m -15 1204 l -15 1319 l 383 1319 l 383 1204 l -15 1204 z "},"Į":{"ha":367,"x_min":-10,"x_max":308,"o":"m 115 0 l 115 1035 l 251 1035 l 251 0 l 115 0 m 163 -322 q 37 -281 83 -322 q -10 -174 -10 -239 q 15 -80 -10 -122 q 83 -7 39 -37 q 181 36 126 24 l 224 36 l 224 0 q 169 -29 196 -7 q 124 -84 142 -51 q 106 -158 106 -117 q 127 -206 106 -186 q 182 -226 149 -226 q 231 -217 207 -226 q 275 -189 256 -207 l 308 -274 q 244 -309 282 -296 q 163 -322 206 -322 z "},"Ĩ":{"ha":367,"x_min":-56,"x_max":422,"o":"m 115 0 l 115 1035 l 251 1035 l 251 0 l 115 0 m 272 1176 q 212 1189 235 1176 q 172 1218 189 1201 q 139 1247 156 1235 q 99 1260 122 1260 q 63 1242 76 1260 q 50 1182 50 1225 l -54 1182 q -13 1322 -54 1275 q 93 1368 28 1368 q 154 1356 131 1368 q 194 1326 178 1343 q 227 1297 211 1310 q 267 1285 243 1285 q 306 1305 292 1285 q 319 1363 319 1325 l 422 1363 q 381 1226 422 1276 q 272 1176 339 1176 z "},"J":{"ha":536,"x_min":69,"x_max":424,"o":"m 69 0 l 69 132 l 126 132 q 243 176 200 132 q 286 294 286 219 l 286 1035 l 424 1035 l 424 297 q 387 140 424 207 q 283 37 350 74 q 126 0 217 0 l 69 0 z "},"Ĵ":{"ha":536,"x_min":69,"x_max":596,"o":"m 69 0 l 69 132 l 126 132 q 243 176 200 132 q 286 294 286 219 l 286 1035 l 424 1035 l 424 297 q 387 140 424 207 q 283 37 350 74 q 126 0 217 0 l 69 0 m 115 1176 l 281 1392 l 429 1392 l 596 1176 l 454 1176 l 356 1303 l 257 1176 l 115 1176 z "},"K":{"ha":919,"x_min":115,"x_max":904,"o":"m 115 0 l 115 1035 l 251 1035 l 251 453 l 218 467 l 713 1035 l 883 1035 l 468 556 l 475 653 l 904 0 l 742 0 l 414 492 l 251 306 l 251 0 l 115 0 z "},"Ķ":{"ha":919,"x_min":115,"x_max":904,"o":"m 115 0 l 115 1035 l 251 1035 l 251 453 l 218 467 l 713 1035 l 883 1035 l 468 556 l 475 653 l 904 0 l 742 0 l 414 492 l 251 306 l 251 0 l 115 0 m 326 -342 l 381 -97 l 540 -97 l 447 -342 l 326 -342 z "},"L":{"ha":743,"x_min":115,"x_max":706,"o":"m 115 0 l 115 1035 l 251 1035 l 251 125 l 706 125 l 706 0 l 115 0 z "},"Ǉ":{"ha":1563,"x_min":115,"x_max":1449,"o":"m 115 0 l 115 1035 l 251 1035 l 251 125 l 706 125 l 706 0 l 115 0 m 1133 -17 q 915 52 1006 -17 q 799 236 825 121 l 925 272 q 1003 153 947 196 q 1135 110 1060 110 q 1229 133 1189 110 q 1290 196 1269 156 q 1311 289 1311 236 l 1311 1035 l 1449 1035 l 1449 289 q 1410 132 1449 201 q 1302 23 1372 63 q 1133 -17 1232 -17 z "},"Ĺ":{"ha":743,"x_min":115,"x_max":706,"o":"m 115 0 l 115 1035 l 251 1035 l 251 125 l 706 125 l 706 0 l 115 0 m 119 1176 l 229 1396 l 404 1396 l 249 1176 l 119 1176 z "},"Ľ":{"ha":743,"x_min":115,"x_max":706,"o":"m 115 0 l 115 1035 l 251 1035 l 251 125 l 706 125 l 706 0 l 115 0 m 479 810 l 479 1051 l 632 1051 l 592 810 l 479 810 z "},"Ļ":{"ha":743,"x_min":115,"x_max":706,"o":"m 115 0 l 115 1035 l 251 1035 l 251 125 l 706 125 l 706 0 l 115 0 m 276 -342 l 331 -97 l 490 -97 l 397 -342 l 276 -342 z "},"Ŀ":{"ha":743,"x_min":115,"x_max":706,"o":"m 479 431 q 417 456 443 431 q 392 518 392 481 q 417 579 392 554 q 479 604 443 604 q 540 579 515 604 q 565 518 565 554 q 540 456 565 481 q 479 431 515 431 m 115 0 l 115 1035 l 251 1035 l 251 125 l 706 125 l 706 0 l 115 0 z "},"Ḷ":{"ha":743,"x_min":115,"x_max":706,"o":"m 115 0 l 115 1035 l 251 1035 l 251 125 l 706 125 l 706 0 l 115 0 m 332 -281 l 332 -125 l 488 -125 l 488 -281 l 332 -281 z "},"ǈ":{"ha":1072,"x_min":115,"x_max":972,"o":"m 115 0 l 115 1035 l 251 1035 l 251 125 l 706 125 l 706 0 l 115 0 m 715 -306 q 685 -304 703 -306 q 656 -300 667 -303 l 656 -183 q 711 -187 683 -187 q 806 -156 768 -187 q 843 -58 843 -124 l 843 749 l 972 749 l 972 -58 q 939 -194 972 -139 q 847 -277 906 -249 q 715 -306 789 -306 m 843 868 l 843 1035 l 972 1035 l 972 868 l 843 868 z "},"Ḻ":{"ha":743,"x_min":115,"x_max":706,"o":"m 115 0 l 115 1035 l 251 1035 l 251 125 l 706 125 l 706 0 l 115 0 m 211 -253 l 211 -139 l 610 -139 l 610 -253 l 211 -253 z "},"Ł":{"ha":847,"x_min":57,"x_max":808,"o":"m 57 311 l 57 447 l 517 725 l 517 589 l 57 311 m 218 0 l 218 1035 l 356 1035 l 356 125 l 808 125 l 808 0 l 218 0 z "},"M":{"ha":1188,"x_min":115,"x_max":1074,"o":"m 115 0 l 115 1035 l 240 1035 l 628 483 l 564 483 l 949 1035 l 1074 1035 l 1074 0 l 936 0 l 936 863 l 985 847 l 600 306 l 589 306 l 208 847 l 251 863 l 251 0 l 115 0 z "},"Ṃ":{"ha":1188,"x_min":115,"x_max":1074,"o":"m 115 0 l 115 1035 l 240 1035 l 628 483 l 564 483 l 949 1035 l 1074 1035 l 1074 0 l 936 0 l 936 863 l 985 847 l 600 306 l 589 306 l 208 847 l 251 863 l 251 0 l 115 0 m 517 -281 l 517 -125 l 672 -125 l 672 -281 l 517 -281 z "},"N":{"ha":1025,"x_min":115,"x_max":910,"o":"m 115 0 l 115 1035 l 229 1035 l 824 199 l 772 193 l 772 1035 l 910 1035 l 910 0 l 796 0 l 204 842 l 251 847 l 251 0 l 115 0 z "},"Ǌ":{"ha":1561,"x_min":115,"x_max":1447,"o":"m 115 0 l 115 1035 l 229 1035 l 824 199 l 772 193 l 772 1035 l 910 1035 l 910 0 l 796 0 l 204 842 l 251 847 l 251 0 l 115 0 m 1094 0 l 1094 132 l 1151 132 q 1268 176 1225 132 q 1311 294 1311 219 l 1311 1035 l 1449 1035 l 1449 297 q 1412 140 1449 207 q 1308 37 1375 74 q 1151 0 1242 0 l 1094 0 z "},"Ń":{"ha":1025,"x_min":115,"x_max":910,"o":"m 115 0 l 115 1035 l 229 1035 l 824 199 l 772 193 l 772 1035 l 910 1035 l 910 0 l 796 0 l 204 842 l 251 847 l 251 0 l 115 0 m 447 1176 l 557 1396 l 732 1396 l 576 1176 l 447 1176 z "},"Ň":{"ha":1025,"x_min":115,"x_max":910,"o":"m 115 0 l 115 1035 l 229 1035 l 824 199 l 772 193 l 772 1035 l 910 1035 l 910 0 l 796 0 l 204 842 l 251 847 l 251 0 l 115 0 m 438 1176 l 272 1392 l 414 1392 l 513 1265 l 611 1392 l 753 1392 l 586 1176 l 438 1176 z "},"Ņ":{"ha":1025,"x_min":115,"x_max":910,"o":"m 115 0 l 115 1035 l 229 1035 l 824 199 l 772 193 l 772 1035 l 910 1035 l 910 0 l 796 0 l 204 842 l 251 847 l 251 0 l 115 0 m 379 -342 l 433 -97 l 593 -97 l 500 -342 l 379 -342 z "},"Ṅ":{"ha":1025,"x_min":115,"x_max":910,"o":"m 115 0 l 115 1035 l 229 1035 l 824 199 l 772 193 l 772 1035 l 910 1035 l 910 0 l 796 0 l 204 842 l 251 847 l 251 0 l 115 0 m 435 1176 l 435 1333 l 590 1333 l 590 1176 l 435 1176 z "},"Ṇ":{"ha":1025,"x_min":115,"x_max":910,"o":"m 115 0 l 115 1035 l 229 1035 l 824 199 l 772 193 l 772 1035 l 910 1035 l 910 0 l 796 0 l 204 842 l 251 847 l 251 0 l 115 0 m 435 -281 l 435 -125 l 590 -125 l 590 -281 l 435 -281 z "},"ǋ":{"ha":1353,"x_min":115,"x_max":1254,"o":"m 115 0 l 115 1035 l 229 1035 l 824 199 l 772 193 l 772 1035 l 910 1035 l 910 0 l 796 0 l 204 842 l 251 847 l 251 0 l 115 0 m 997 -306 q 967 -304 985 -306 q 938 -300 949 -303 l 938 -183 q 993 -187 965 -187 q 1088 -156 1050 -187 q 1125 -58 1125 -124 l 1125 749 l 1254 749 l 1254 -58 q 1221 -194 1254 -139 q 1129 -277 1188 -249 q 997 -306 1071 -306 m 1125 868 l 1125 1035 l 1254 1035 l 1254 868 l 1125 868 z "},"Ṉ":{"ha":1025,"x_min":115,"x_max":910,"o":"m 115 0 l 115 1035 l 229 1035 l 824 199 l 772 193 l 772 1035 l 910 1035 l 910 0 l 796 0 l 204 842 l 251 847 l 251 0 l 115 0 m 314 -253 l 314 -139 l 713 -139 l 713 -253 l 314 -253 z "},"Ñ":{"ha":1025,"x_min":115,"x_max":910,"o":"m 115 0 l 115 1035 l 229 1035 l 824 199 l 772 193 l 772 1035 l 910 1035 l 910 0 l 796 0 l 204 842 l 251 847 l 251 0 l 115 0 m 601 1176 q 541 1189 564 1176 q 501 1218 518 1201 q 468 1247 485 1235 q 428 1260 451 1260 q 392 1242 406 1260 q 379 1182 379 1225 l 275 1182 q 316 1322 275 1275 q 422 1368 357 1368 q 483 1356 460 1368 q 524 1326 507 1343 q 556 1297 540 1310 q 596 1285 572 1285 q 635 1305 621 1285 q 649 1363 649 1325 l 751 1363 q 710 1226 751 1276 q 601 1176 668 1176 z "},"Ŋ":{"ha":1025,"x_min":115,"x_max":910,"o":"m 653 -306 q 622 -304 640 -306 q 592 -300 604 -303 l 592 -179 q 647 -183 619 -183 q 740 -153 706 -183 q 775 -58 775 -124 l 775 89 l 810 -22 l 217 824 l 251 835 l 251 0 l 115 0 l 115 1035 l 229 1035 l 808 218 l 772 208 l 772 1035 l 910 1035 l 910 -58 q 876 -194 910 -139 q 784 -277 842 -249 q 653 -306 726 -306 z "},"O":{"ha":1219,"x_min":85,"x_max":1136,"o":"m 610 -17 q 404 23 500 -17 q 237 135 308 63 q 125 305 165 207 q 85 518 85 403 q 125 732 85 635 q 237 901 165 829 q 403 1013 308 974 q 610 1051 499 1051 q 816 1012 721 1051 q 983 901 911 972 q 1095 732 1054 829 q 1136 518 1136 635 q 1095 305 1136 403 q 983 135 1054 207 q 816 23 911 63 q 610 -17 721 -17 m 610 110 q 767 141 696 110 q 890 228 838 172 q 970 359 942 285 q 999 518 999 433 q 970 676 999 603 q 890 806 942 750 q 767 894 838 863 q 610 925 696 925 q 454 894 525 925 q 331 806 383 863 q 250 676 279 750 q 221 518 221 603 q 250 359 221 433 q 331 228 279 285 q 454 141 383 172 q 610 110 525 110 z "},"Ó":{"ha":1219,"x_min":85,"x_max":1136,"o":"m 610 -17 q 404 23 500 -17 q 237 135 308 63 q 125 305 165 207 q 85 518 85 403 q 125 732 85 635 q 237 901 165 829 q 403 1013 308 974 q 610 1051 499 1051 q 816 1012 721 1051 q 983 901 911 972 q 1095 732 1054 829 q 1136 518 1136 635 q 1095 305 1136 403 q 983 135 1054 207 q 816 23 911 63 q 610 -17 721 -17 m 610 110 q 767 141 696 110 q 890 228 838 172 q 970 359 942 285 q 999 518 999 433 q 970 676 999 603 q 890 806 942 750 q 767 894 838 863 q 610 925 696 925 q 454 894 525 925 q 331 806 383 863 q 250 676 279 750 q 221 518 221 603 q 250 359 221 433 q 331 228 279 285 q 454 141 383 172 q 610 110 525 110 m 546 1176 l 656 1396 l 831 1396 l 675 1176 l 546 1176 z "},"Ŏ":{"ha":1219,"x_min":85,"x_max":1136,"o":"m 610 -17 q 404 23 500 -17 q 237 135 308 63 q 125 305 165 207 q 85 518 85 403 q 125 732 85 635 q 237 901 165 829 q 403 1013 308 974 q 610 1051 499 1051 q 816 1012 721 1051 q 983 901 911 972 q 1095 732 1054 829 q 1136 518 1136 635 q 1095 305 1136 403 q 983 135 1054 207 q 816 23 911 63 q 610 -17 721 -17 m 610 110 q 767 141 696 110 q 890 228 838 172 q 970 359 942 285 q 999 518 999 433 q 970 676 999 603 q 890 806 942 750 q 767 894 838 863 q 610 925 696 925 q 454 894 525 925 q 331 806 383 863 q 250 676 279 750 q 221 518 221 603 q 250 359 221 433 q 331 228 279 285 q 454 141 383 172 q 610 110 525 110 m 610 1178 q 478 1206 531 1178 q 398 1284 425 1235 q 371 1393 371 1333 l 497 1393 q 527 1310 497 1339 q 610 1281 557 1281 q 692 1310 663 1281 q 722 1393 722 1339 l 847 1393 q 821 1283 847 1332 q 742 1206 794 1235 q 610 1178 689 1178 z "},"Ô":{"ha":1219,"x_min":85,"x_max":1136,"o":"m 610 -17 q 404 23 500 -17 q 237 135 308 63 q 125 305 165 207 q 85 518 85 403 q 125 732 85 635 q 237 901 165 829 q 403 1013 308 974 q 610 1051 499 1051 q 816 1012 721 1051 q 983 901 911 972 q 1095 732 1054 829 q 1136 518 1136 635 q 1095 305 1136 403 q 983 135 1054 207 q 816 23 911 63 q 610 -17 721 -17 m 610 110 q 767 141 696 110 q 890 228 838 172 q 970 359 942 285 q 999 518 999 433 q 970 676 999 603 q 890 806 942 750 q 767 894 838 863 q 610 925 696 925 q 454 894 525 925 q 331 806 383 863 q 250 676 279 750 q 221 518 221 603 q 250 359 221 433 q 331 228 279 285 q 454 141 383 172 q 610 110 525 110 m 371 1176 l 536 1392 l 685 1392 l 851 1176 l 710 1176 l 611 1303 l 513 1176 l 371 1176 z "},"Ố":{"ha":1219,"x_min":85,"x_max":1136,"o":"m 610 -17 q 404 23 500 -17 q 237 135 308 63 q 125 305 165 207 q 85 518 85 403 q 125 732 85 635 q 237 901 165 829 q 403 1013 308 974 q 610 1051 499 1051 q 816 1012 721 1051 q 983 901 911 972 q 1095 732 1054 829 q 1136 518 1136 635 q 1095 305 1136 403 q 983 135 1054 207 q 816 23 911 63 q 610 -17 721 -17 m 610 110 q 767 141 696 110 q 890 228 838 172 q 970 359 942 285 q 999 518 999 433 q 970 676 999 603 q 890 806 942 750 q 767 894 838 863 q 610 925 696 925 q 454 894 525 925 q 331 806 383 863 q 250 676 279 750 q 221 518 221 603 q 250 359 221 433 q 331 228 279 285 q 454 141 383 172 q 610 110 525 110 m 371 1176 l 536 1378 l 685 1378 l 851 1176 l 710 1176 l 611 1289 l 513 1176 l 371 1176 m 794 1278 l 878 1465 l 1042 1465 l 914 1278 l 794 1278 z "},"Ộ":{"ha":1219,"x_min":85,"x_max":1136,"o":"m 610 -17 q 404 23 500 -17 q 237 135 308 63 q 125 305 165 207 q 85 518 85 403 q 125 732 85 635 q 237 901 165 829 q 403 1013 308 974 q 610 1051 499 1051 q 816 1012 721 1051 q 983 901 911 972 q 1095 732 1054 829 q 1136 518 1136 635 q 1095 305 1136 403 q 983 135 1054 207 q 816 23 911 63 q 610 -17 721 -17 m 610 110 q 767 141 696 110 q 890 228 838 172 q 970 359 942 285 q 999 518 999 433 q 970 676 999 603 q 890 806 942 750 q 767 894 838 863 q 610 925 696 925 q 454 894 525 925 q 331 806 383 863 q 250 676 279 750 q 221 518 221 603 q 250 359 221 433 q 331 228 279 285 q 454 141 383 172 q 610 110 525 110 m 532 -281 l 532 -125 l 688 -125 l 688 -281 l 532 -281 m 371 1176 l 536 1392 l 685 1392 l 851 1176 l 710 1176 l 611 1303 l 513 1176 l 371 1176 z "},"Ồ":{"ha":1219,"x_min":85,"x_max":1136,"o":"m 610 -17 q 404 23 500 -17 q 237 135 308 63 q 125 305 165 207 q 85 518 85 403 q 125 732 85 635 q 237 901 165 829 q 403 1013 308 974 q 610 1051 499 1051 q 816 1012 721 1051 q 983 901 911 972 q 1095 732 1054 829 q 1136 518 1136 635 q 1095 305 1136 403 q 983 135 1054 207 q 816 23 911 63 q 610 -17 721 -17 m 610 110 q 767 141 696 110 q 890 228 838 172 q 970 359 942 285 q 999 518 999 433 q 970 676 999 603 q 890 806 942 750 q 767 894 838 863 q 610 925 696 925 q 454 894 525 925 q 331 806 383 863 q 250 676 279 750 q 221 518 221 603 q 250 359 221 433 q 331 228 279 285 q 454 141 383 172 q 610 110 525 110 m 371 1176 l 536 1378 l 685 1378 l 851 1176 l 710 1176 l 611 1289 l 513 1176 l 371 1176 m 878 1278 l 750 1465 l 914 1465 l 997 1278 l 878 1278 z "},"Ổ":{"ha":1219,"x_min":85,"x_max":1136,"o":"m 610 -17 q 404 23 500 -17 q 237 135 308 63 q 125 305 165 207 q 85 518 85 403 q 125 732 85 635 q 237 901 165 829 q 403 1013 308 974 q 610 1051 499 1051 q 816 1012 721 1051 q 983 901 911 972 q 1095 732 1054 829 q 1136 518 1136 635 q 1095 305 1136 403 q 983 135 1054 207 q 816 23 911 63 q 610 -17 721 -17 m 610 110 q 767 141 696 110 q 890 228 838 172 q 970 359 942 285 q 999 518 999 433 q 970 676 999 603 q 890 806 942 750 q 767 894 838 863 q 610 925 696 925 q 454 894 525 925 q 331 806 383 863 q 250 676 279 750 q 221 518 221 603 q 250 359 221 433 q 331 228 279 285 q 454 141 383 172 q 610 110 525 110 m 371 1176 l 536 1378 l 685 1378 l 851 1176 l 710 1176 l 611 1289 l 513 1176 l 371 1176 m 836 1274 l 782 1343 q 833 1376 817 1357 q 849 1421 849 1394 q 829 1461 849 1444 q 776 1478 810 1478 q 745 1475 761 1478 q 707 1463 729 1472 l 689 1544 q 742 1564 715 1558 q 794 1569 769 1569 q 917 1531 871 1569 q 964 1429 964 1492 q 928 1339 964 1381 q 836 1274 893 1297 z "},"Ỗ":{"ha":1219,"x_min":85,"x_max":1136,"o":"m 610 -17 q 404 23 500 -17 q 237 135 308 63 q 125 305 165 207 q 85 518 85 403 q 125 732 85 635 q 237 901 165 829 q 403 1013 308 974 q 610 1051 499 1051 q 816 1012 721 1051 q 983 901 911 972 q 1095 732 1054 829 q 1136 518 1136 635 q 1095 305 1136 403 q 983 135 1054 207 q 816 23 911 63 q 610 -17 721 -17 m 610 110 q 767 141 696 110 q 890 228 838 172 q 970 359 942 285 q 999 518 999 433 q 970 676 999 603 q 890 806 942 750 q 767 894 838 863 q 610 925 696 925 q 454 894 525 925 q 331 806 383 863 q 250 676 279 750 q 221 518 221 603 q 250 359 221 433 q 331 228 279 285 q 454 141 383 172 q 610 110 525 110 m 369 1176 l 535 1378 l 685 1378 l 851 1176 l 710 1176 l 610 1289 l 511 1176 l 369 1176 m 686 1464 q 638 1477 657 1464 q 603 1506 618 1490 q 576 1535 589 1522 q 543 1549 563 1549 q 515 1530 525 1549 q 504 1469 504 1511 l 403 1469 q 420 1573 403 1532 q 467 1635 438 1614 q 532 1656 496 1656 q 583 1643 564 1656 q 617 1614 603 1631 q 646 1585 632 1597 q 678 1572 660 1572 q 708 1593 699 1572 q 717 1650 717 1614 l 819 1650 q 780 1514 818 1564 q 686 1464 742 1464 z "},"Ȍ":{"ha":1219,"x_min":85,"x_max":1136,"o":"m 610 -17 q 404 23 500 -17 q 237 135 308 63 q 125 305 165 207 q 85 518 85 403 q 125 732 85 635 q 237 901 165 829 q 403 1013 308 974 q 610 1051 499 1051 q 816 1012 721 1051 q 983 901 911 972 q 1095 732 1054 829 q 1136 518 1136 635 q 1095 305 1136 403 q 983 135 1054 207 q 816 23 911 63 q 610 -17 721 -17 m 610 110 q 767 141 696 110 q 890 228 838 172 q 970 359 942 285 q 999 518 999 433 q 970 676 999 603 q 890 806 942 750 q 767 894 838 863 q 610 925 696 925 q 454 894 525 925 q 331 806 383 863 q 250 676 279 750 q 221 518 221 603 q 250 359 221 433 q 331 228 279 285 q 454 141 383 172 q 610 110 525 110 m 425 1176 l 271 1397 l 435 1397 l 544 1176 l 425 1176 m 676 1176 l 521 1397 l 685 1397 l 796 1176 l 676 1176 z "},"Ö":{"ha":1219,"x_min":85,"x_max":1136,"o":"m 610 -17 q 404 23 500 -17 q 237 135 308 63 q 125 305 165 207 q 85 518 85 403 q 125 732 85 635 q 237 901 165 829 q 403 1013 308 974 q 610 1051 499 1051 q 816 1012 721 1051 q 983 901 911 972 q 1095 732 1054 829 q 1136 518 1136 635 q 1095 305 1136 403 q 983 135 1054 207 q 816 23 911 63 q 610 -17 721 -17 m 610 110 q 767 141 696 110 q 890 228 838 172 q 970 359 942 285 q 999 518 999 433 q 970 676 999 603 q 890 806 942 750 q 767 894 838 863 q 610 925 696 925 q 454 894 525 925 q 331 806 383 863 q 250 676 279 750 q 221 518 221 603 q 250 359 221 433 q 331 228 279 285 q 454 141 383 172 q 610 110 525 110 m 399 1176 l 399 1333 l 554 1333 l 554 1176 l 399 1176 m 665 1176 l 665 1333 l 822 1333 l 822 1176 l 665 1176 z "},"Ȫ":{"ha":1219,"x_min":85,"x_max":1136,"o":"m 610 -17 q 404 23 500 -17 q 237 135 308 63 q 125 305 165 207 q 85 518 85 403 q 125 732 85 635 q 237 901 165 829 q 403 1013 308 974 q 610 1051 499 1051 q 816 1012 721 1051 q 983 901 911 972 q 1095 732 1054 829 q 1136 518 1136 635 q 1095 305 1136 403 q 983 135 1054 207 q 816 23 911 63 q 610 -17 721 -17 m 610 110 q 767 141 696 110 q 890 228 838 172 q 970 359 942 285 q 999 518 999 433 q 970 676 999 603 q 890 806 942 750 q 767 894 838 863 q 610 925 696 925 q 454 894 525 925 q 331 806 383 863 q 250 676 279 750 q 221 518 221 603 q 250 359 221 433 q 331 228 279 285 q 454 141 383 172 q 610 110 525 110 m 399 1176 l 399 1333 l 554 1333 l 554 1176 l 399 1176 m 665 1176 l 665 1333 l 822 1333 l 822 1176 l 665 1176 m 410 1444 l 410 1558 l 810 1558 l 810 1444 l 410 1444 z "},"Ȱ":{"ha":1219,"x_min":85,"x_max":1136,"o":"m 610 -17 q 404 23 500 -17 q 237 135 308 63 q 125 305 165 207 q 85 518 85 403 q 125 732 85 635 q 237 901 165 829 q 403 1013 308 974 q 610 1051 499 1051 q 816 1012 721 1051 q 983 901 911 972 q 1095 732 1054 829 q 1136 518 1136 635 q 1095 305 1136 403 q 983 135 1054 207 q 816 23 911 63 q 610 -17 721 -17 m 610 110 q 767 141 696 110 q 890 228 838 172 q 970 359 942 285 q 999 518 999 433 q 970 676 999 603 q 890 806 942 750 q 767 894 838 863 q 610 925 696 925 q 454 894 525 925 q 331 806 383 863 q 250 676 279 750 q 221 518 221 603 q 250 359 221 433 q 331 228 279 285 q 454 141 383 172 q 610 110 525 110 m 532 1176 l 532 1333 l 689 1333 l 689 1176 l 532 1176 m 411 1444 l 411 1558 l 810 1558 l 810 1444 l 411 1444 z "},"Ọ":{"ha":1219,"x_min":85,"x_max":1136,"o":"m 610 -17 q 404 23 500 -17 q 237 135 308 63 q 125 305 165 207 q 85 518 85 403 q 125 732 85 635 q 237 901 165 829 q 403 1013 308 974 q 610 1051 499 1051 q 816 1012 721 1051 q 983 901 911 972 q 1095 732 1054 829 q 1136 518 1136 635 q 1095 305 1136 403 q 983 135 1054 207 q 816 23 911 63 q 610 -17 721 -17 m 610 110 q 767 141 696 110 q 890 228 838 172 q 970 359 942 285 q 999 518 999 433 q 970 676 999 603 q 890 806 942 750 q 767 894 838 863 q 610 925 696 925 q 454 894 525 925 q 331 806 383 863 q 250 676 279 750 q 221 518 221 603 q 250 359 221 433 q 331 228 279 285 q 454 141 383 172 q 610 110 525 110 m 532 -281 l 532 -125 l 688 -125 l 688 -281 l 532 -281 z "},"Ò":{"ha":1219,"x_min":85,"x_max":1136,"o":"m 610 -17 q 404 23 500 -17 q 237 135 308 63 q 125 305 165 207 q 85 518 85 403 q 125 732 85 635 q 237 901 165 829 q 403 1013 308 974 q 610 1051 499 1051 q 816 1012 721 1051 q 983 901 911 972 q 1095 732 1054 829 q 1136 518 1136 635 q 1095 305 1136 403 q 983 135 1054 207 q 816 23 911 63 q 610 -17 721 -17 m 610 110 q 767 141 696 110 q 890 228 838 172 q 970 359 942 285 q 999 518 999 433 q 970 676 999 603 q 890 806 942 750 q 767 894 838 863 q 610 925 696 925 q 454 894 525 925 q 331 806 383 863 q 250 676 279 750 q 221 518 221 603 q 250 359 221 433 q 331 228 279 285 q 454 141 383 172 q 610 110 525 110 m 544 1176 l 390 1396 l 564 1396 l 675 1176 l 544 1176 z "},"Ỏ":{"ha":1219,"x_min":85,"x_max":1136,"o":"m 610 -17 q 404 23 500 -17 q 237 135 308 63 q 125 305 165 207 q 85 518 85 403 q 125 732 85 635 q 237 901 165 829 q 403 1013 308 974 q 610 1051 499 1051 q 816 1012 721 1051 q 983 901 911 972 q 1095 732 1054 829 q 1136 518 1136 635 q 1095 305 1136 403 q 983 135 1054 207 q 816 23 911 63 q 610 -17 721 -17 m 610 110 q 767 141 696 110 q 890 228 838 172 q 970 359 942 285 q 999 518 999 433 q 970 676 999 603 q 890 806 942 750 q 767 894 838 863 q 610 925 696 925 q 454 894 525 925 q 331 806 383 863 q 250 676 279 750 q 221 518 221 603 q 250 359 221 433 q 331 228 279 285 q 454 141 383 172 q 610 110 525 110 m 621 1121 l 564 1193 q 616 1226 600 1207 q 632 1272 632 1246 q 612 1314 632 1297 q 558 1331 592 1331 q 526 1328 542 1331 q 488 1315 510 1325 l 469 1400 q 524 1420 496 1415 q 578 1425 551 1425 q 703 1385 656 1425 q 751 1282 751 1346 q 715 1188 751 1231 q 621 1121 679 1146 z "},"Ơ":{"ha":1219,"x_min":85,"x_max":1136,"o":"m 610 -17 q 404 23 500 -17 q 237 135 308 63 q 125 305 165 207 q 85 518 85 403 q 125 732 85 635 q 237 901 165 829 q 403 1013 308 974 q 610 1051 499 1051 l 901 1051 q 931 1056 915 1051 q 958 1075 947 1060 q 969 1122 969 1090 q 960 1178 969 1150 q 939 1232 951 1206 l 1078 1232 q 1103 1176 1093 1206 q 1113 1110 1113 1146 q 1067 985 1113 1021 q 949 949 1022 949 l 878 949 l 900 968 q 1025 853 972 921 q 1107 700 1078 785 q 1136 518 1136 615 q 1095 305 1136 403 q 983 135 1054 207 q 816 23 911 63 q 610 -17 721 -17 m 610 110 q 767 141 696 110 q 890 228 838 172 q 970 359 942 285 q 999 518 999 433 q 970 676 999 603 q 890 806 942 750 q 767 894 838 863 q 610 925 696 925 q 454 894 525 925 q 331 806 383 863 q 250 676 279 750 q 221 518 221 603 q 250 359 221 433 q 331 228 279 285 q 454 141 383 172 q 610 110 525 110 z "},"Ớ":{"ha":1219,"x_min":85,"x_max":1136,"o":"m 610 -17 q 404 23 500 -17 q 237 135 308 63 q 125 305 165 207 q 85 518 85 403 q 125 732 85 635 q 237 901 165 829 q 403 1013 308 974 q 610 1051 499 1051 l 901 1051 q 931 1056 915 1051 q 958 1075 947 1060 q 969 1122 969 1090 q 960 1178 969 1150 q 939 1232 951 1206 l 1078 1232 q 1103 1176 1093 1206 q 1113 1110 1113 1146 q 1067 985 1113 1021 q 949 949 1022 949 l 878 949 l 900 968 q 1025 853 972 921 q 1107 700 1078 785 q 1136 518 1136 615 q 1095 305 1136 403 q 983 135 1054 207 q 816 23 911 63 q 610 -17 721 -17 m 610 110 q 767 141 696 110 q 890 228 838 172 q 970 359 942 285 q 999 518 999 433 q 970 676 999 603 q 890 806 942 750 q 767 894 838 863 q 610 925 696 925 q 454 894 525 925 q 331 806 383 863 q 250 676 279 750 q 221 518 221 603 q 250 359 221 433 q 331 228 279 285 q 454 141 383 172 q 610 110 525 110 m 546 1176 l 656 1396 l 831 1396 l 675 1176 l 546 1176 z "},"Ợ":{"ha":1219,"x_min":85,"x_max":1136,"o":"m 610 -17 q 404 23 500 -17 q 237 135 308 63 q 125 305 165 207 q 85 518 85 403 q 125 732 85 635 q 237 901 165 829 q 403 1013 308 974 q 610 1051 499 1051 l 901 1051 q 931 1056 915 1051 q 958 1075 947 1060 q 969 1122 969 1090 q 960 1178 969 1150 q 939 1232 951 1206 l 1078 1232 q 1103 1176 1093 1206 q 1113 1110 1113 1146 q 1067 985 1113 1021 q 949 949 1022 949 l 878 949 l 900 968 q 1025 853 972 921 q 1107 700 1078 785 q 1136 518 1136 615 q 1095 305 1136 403 q 983 135 1054 207 q 816 23 911 63 q 610 -17 721 -17 m 610 110 q 767 141 696 110 q 890 228 838 172 q 970 359 942 285 q 999 518 999 433 q 970 676 999 603 q 890 806 942 750 q 767 894 838 863 q 610 925 696 925 q 454 894 525 925 q 331 806 383 863 q 250 676 279 750 q 221 518 221 603 q 250 359 221 433 q 331 228 279 285 q 454 141 383 172 q 610 110 525 110 m 532 -281 l 532 -125 l 688 -125 l 688 -281 l 532 -281 z "},"Ờ":{"ha":1219,"x_min":85,"x_max":1136,"o":"m 610 -17 q 404 23 500 -17 q 237 135 308 63 q 125 305 165 207 q 85 518 85 403 q 125 732 85 635 q 237 901 165 829 q 403 1013 308 974 q 610 1051 499 1051 l 901 1051 q 931 1056 915 1051 q 958 1075 947 1060 q 969 1122 969 1090 q 960 1178 969 1150 q 939 1232 951 1206 l 1078 1232 q 1103 1176 1093 1206 q 1113 1110 1113 1146 q 1067 985 1113 1021 q 949 949 1022 949 l 878 949 l 900 968 q 1025 853 972 921 q 1107 700 1078 785 q 1136 518 1136 615 q 1095 305 1136 403 q 983 135 1054 207 q 816 23 911 63 q 610 -17 721 -17 m 610 110 q 767 141 696 110 q 890 228 838 172 q 970 359 942 285 q 999 518 999 433 q 970 676 999 603 q 890 806 942 750 q 767 894 838 863 q 610 925 696 925 q 454 894 525 925 q 331 806 383 863 q 250 676 279 750 q 221 518 221 603 q 250 359 221 433 q 331 228 279 285 q 454 141 383 172 q 610 110 525 110 m 544 1176 l 390 1396 l 564 1396 l 675 1176 l 544 1176 z "},"Ở":{"ha":1219,"x_min":85,"x_max":1136,"o":"m 610 -17 q 404 23 500 -17 q 237 135 308 63 q 125 305 165 207 q 85 518 85 403 q 125 732 85 635 q 237 901 165 829 q 403 1013 308 974 q 610 1051 499 1051 l 901 1051 q 931 1056 915 1051 q 958 1075 947 1060 q 969 1122 969 1090 q 960 1178 969 1150 q 939 1232 951 1206 l 1078 1232 q 1103 1176 1093 1206 q 1113 1110 1113 1146 q 1067 985 1113 1021 q 949 949 1022 949 l 878 949 l 900 968 q 1025 853 972 921 q 1107 700 1078 785 q 1136 518 1136 615 q 1095 305 1136 403 q 983 135 1054 207 q 816 23 911 63 q 610 -17 721 -17 m 610 110 q 767 141 696 110 q 890 228 838 172 q 970 359 942 285 q 999 518 999 433 q 970 676 999 603 q 890 806 942 750 q 767 894 838 863 q 610 925 696 925 q 454 894 525 925 q 331 806 383 863 q 250 676 279 750 q 221 518 221 603 q 250 359 221 433 q 331 228 279 285 q 454 141 383 172 q 610 110 525 110 m 621 1121 l 564 1193 q 616 1226 600 1207 q 632 1272 632 1246 q 612 1314 632 1297 q 558 1331 592 1331 q 526 1328 542 1331 q 488 1315 510 1325 l 469 1400 q 524 1420 496 1415 q 578 1425 551 1425 q 703 1385 656 1425 q 751 1282 751 1346 q 715 1188 751 1231 q 621 1121 679 1146 z "},"Ỡ":{"ha":1219,"x_min":85,"x_max":1136,"o":"m 610 -17 q 404 23 500 -17 q 237 135 308 63 q 125 305 165 207 q 85 518 85 403 q 125 732 85 635 q 237 901 165 829 q 403 1013 308 974 q 610 1051 499 1051 l 901 1051 q 931 1056 915 1051 q 958 1075 947 1060 q 969 1122 969 1090 q 960 1178 969 1150 q 939 1232 951 1206 l 1078 1232 q 1103 1176 1093 1206 q 1113 1110 1113 1146 q 1067 985 1113 1021 q 949 949 1022 949 l 878 949 l 900 968 q 1025 853 972 921 q 1107 700 1078 785 q 1136 518 1136 615 q 1095 305 1136 403 q 983 135 1054 207 q 816 23 911 63 q 610 -17 721 -17 m 610 110 q 767 141 696 110 q 890 228 838 172 q 970 359 942 285 q 999 518 999 433 q 970 676 999 603 q 890 806 942 750 q 767 894 838 863 q 610 925 696 925 q 454 894 525 925 q 331 806 383 863 q 250 676 279 750 q 221 518 221 603 q 250 359 221 433 q 331 228 279 285 q 454 141 383 172 q 610 110 525 110 m 699 1176 q 638 1189 661 1176 q 599 1218 615 1201 q 565 1247 582 1235 q 525 1260 549 1260 q 490 1242 503 1260 q 476 1182 476 1225 l 372 1182 q 413 1322 372 1275 q 519 1368 454 1368 q 581 1356 557 1368 q 621 1326 604 1343 q 653 1297 638 1310 q 693 1285 669 1285 q 732 1305 718 1285 q 746 1363 746 1325 l 849 1363 q 807 1226 849 1276 q 699 1176 765 1176 z "},"Ő":{"ha":1219,"x_min":85,"x_max":1136,"o":"m 610 -17 q 404 23 500 -17 q 237 135 308 63 q 125 305 165 207 q 85 518 85 403 q 125 732 85 635 q 237 901 165 829 q 403 1013 308 974 q 610 1051 499 1051 q 816 1012 721 1051 q 983 901 911 972 q 1095 732 1054 829 q 1136 518 1136 635 q 1095 305 1136 403 q 983 135 1054 207 q 816 23 911 63 q 610 -17 721 -17 m 610 110 q 767 141 696 110 q 890 228 838 172 q 970 359 942 285 q 999 518 999 433 q 970 676 999 603 q 890 806 942 750 q 767 894 838 863 q 610 925 696 925 q 454 894 525 925 q 331 806 383 863 q 250 676 279 750 q 221 518 221 603 q 250 359 221 433 q 331 228 279 285 q 454 141 383 172 q 610 110 525 110 m 425 1176 l 497 1396 l 661 1396 l 544 1176 l 425 1176 m 675 1176 l 747 1396 l 911 1396 l 794 1176 l 675 1176 z "},"Ȏ":{"ha":1219,"x_min":85,"x_max":1136,"o":"m 610 -17 q 404 23 500 -17 q 237 135 308 63 q 125 305 165 207 q 85 518 85 403 q 125 732 85 635 q 237 901 165 829 q 403 1013 308 974 q 610 1051 499 1051 q 816 1012 721 1051 q 983 901 911 972 q 1095 732 1054 829 q 1136 518 1136 635 q 1095 305 1136 403 q 983 135 1054 207 q 816 23 911 63 q 610 -17 721 -17 m 610 110 q 767 141 696 110 q 890 228 838 172 q 970 359 942 285 q 999 518 999 433 q 970 676 999 603 q 890 806 942 750 q 767 894 838 863 q 610 925 696 925 q 454 894 525 925 q 331 806 383 863 q 250 676 279 750 q 221 518 221 603 q 250 359 221 433 q 331 228 279 285 q 454 141 383 172 q 610 110 525 110 m 371 1176 q 398 1285 371 1236 q 478 1363 425 1335 q 610 1392 531 1392 q 742 1363 689 1392 q 821 1287 794 1335 q 847 1176 847 1239 l 722 1176 q 692 1260 722 1231 q 610 1289 663 1289 q 527 1260 557 1289 q 497 1176 497 1231 l 371 1176 z "},"Ō":{"ha":1219,"x_min":85,"x_max":1136,"o":"m 610 -17 q 404 23 500 -17 q 237 135 308 63 q 125 305 165 207 q 85 518 85 403 q 125 732 85 635 q 237 901 165 829 q 403 1013 308 974 q 610 1051 499 1051 q 816 1012 721 1051 q 983 901 911 972 q 1095 732 1054 829 q 1136 518 1136 635 q 1095 305 1136 403 q 983 135 1054 207 q 816 23 911 63 q 610 -17 721 -17 m 610 110 q 767 141 696 110 q 890 228 838 172 q 970 359 942 285 q 999 518 999 433 q 970 676 999 603 q 890 806 942 750 q 767 894 838 863 q 610 925 696 925 q 454 894 525 925 q 331 806 383 863 q 250 676 279 750 q 221 518 221 603 q 250 359 221 433 q 331 228 279 285 q 454 141 383 172 q 610 110 525 110 m 411 1204 l 411 1319 l 810 1319 l 810 1204 l 411 1204 z "},"Ṓ":{"ha":1219,"x_min":85,"x_max":1136,"o":"m 610 -17 q 404 23 500 -17 q 237 135 308 63 q 125 305 165 207 q 85 518 85 403 q 125 732 85 635 q 237 901 165 829 q 403 1013 308 974 q 610 1051 499 1051 q 816 1012 721 1051 q 983 901 911 972 q 1095 732 1054 829 q 1136 518 1136 635 q 1095 305 1136 403 q 983 135 1054 207 q 816 23 911 63 q 610 -17 721 -17 m 610 110 q 767 141 696 110 q 890 228 838 172 q 970 359 942 285 q 999 518 999 433 q 970 676 999 603 q 890 806 942 750 q 767 894 838 863 q 610 925 696 925 q 454 894 525 925 q 331 806 383 863 q 250 676 279 750 q 221 518 221 603 q 250 359 221 433 q 331 228 279 285 q 454 141 383 172 q 610 110 525 110 m 535 1413 l 646 1632 l 821 1632 l 665 1413 l 535 1413 m 401 1204 l 401 1319 l 800 1319 l 800 1204 l 401 1204 z "},"Ṑ":{"ha":1219,"x_min":85,"x_max":1136,"o":"m 610 -17 q 404 23 500 -17 q 237 135 308 63 q 125 305 165 207 q 85 518 85 403 q 125 732 85 635 q 237 901 165 829 q 403 1013 308 974 q 610 1051 499 1051 q 816 1012 721 1051 q 983 901 911 972 q 1095 732 1054 829 q 1136 518 1136 635 q 1095 305 1136 403 q 983 135 1054 207 q 816 23 911 63 q 610 -17 721 -17 m 610 110 q 767 141 696 110 q 890 228 838 172 q 970 359 942 285 q 999 518 999 433 q 970 676 999 603 q 890 806 942 750 q 767 894 838 863 q 610 925 696 925 q 454 894 525 925 q 331 806 383 863 q 250 676 279 750 q 221 518 221 603 q 250 359 221 433 q 331 228 279 285 q 454 141 383 172 q 610 110 525 110 m 410 1204 l 410 1319 l 810 1319 l 810 1204 l 410 1204 m 544 1413 l 390 1632 l 564 1632 l 675 1413 l 544 1413 z "},"Ǫ":{"ha":1219,"x_min":85,"x_max":1136,"o":"m 610 -17 q 404 23 500 -17 q 237 135 308 63 q 125 305 165 207 q 85 518 85 403 q 125 732 85 635 q 237 901 165 829 q 403 1013 308 974 q 610 1051 499 1051 q 816 1012 721 1051 q 983 901 911 972 q 1095 732 1054 829 q 1136 518 1136 635 q 1095 305 1136 403 q 983 135 1054 207 q 816 23 911 63 q 610 -17 721 -17 m 610 110 q 767 141 696 110 q 890 228 838 172 q 970 359 942 285 q 999 518 999 433 q 970 676 999 603 q 890 806 942 750 q 767 894 838 863 q 610 925 696 925 q 454 894 525 925 q 331 806 383 863 q 250 676 279 750 q 221 518 221 603 q 250 359 221 433 q 331 228 279 285 q 454 141 383 172 q 610 110 525 110 m 639 -322 q 513 -281 560 -322 q 467 -174 467 -239 q 491 -80 467 -122 q 559 -7 515 -37 q 657 36 603 24 l 700 36 l 700 0 q 645 -29 672 -7 q 600 -84 618 -51 q 582 -158 582 -117 q 603 -206 582 -186 q 658 -226 625 -226 q 708 -217 683 -226 q 751 -189 732 -207 l 785 -274 q 720 -309 758 -296 q 639 -322 682 -322 z "},"Ø":{"ha":1219,"x_min":85,"x_max":1136,"o":"m 103 0 l 950 1035 l 1117 1035 l 269 0 l 103 0 m 610 -17 q 404 23 500 -17 q 237 135 308 63 q 125 305 165 207 q 85 518 85 403 q 125 732 85 635 q 237 901 165 829 q 403 1013 308 974 q 610 1051 499 1051 q 816 1012 721 1051 q 983 901 911 972 q 1095 732 1054 829 q 1136 518 1136 635 q 1095 305 1136 403 q 983 135 1054 207 q 816 23 911 63 q 610 -17 721 -17 m 610 110 q 767 141 696 110 q 890 228 838 172 q 970 359 942 285 q 999 518 999 433 q 970 676 999 603 q 890 806 942 750 q 767 894 838 863 q 610 925 696 925 q 454 894 525 925 q 331 806 383 863 q 250 676 279 750 q 221 518 221 603 q 250 359 221 433 q 331 228 279 285 q 454 141 383 172 q 610 110 525 110 z "},"Ǿ":{"ha":1219,"x_min":85,"x_max":1136,"o":"m 103 0 l 950 1035 l 1117 1035 l 269 0 l 103 0 m 610 -17 q 404 23 500 -17 q 237 135 308 63 q 125 305 165 207 q 85 518 85 403 q 125 732 85 635 q 237 901 165 829 q 403 1013 308 974 q 610 1051 499 1051 q 816 1012 721 1051 q 983 901 911 972 q 1095 732 1054 829 q 1136 518 1136 635 q 1095 305 1136 403 q 983 135 1054 207 q 816 23 911 63 q 610 -17 721 -17 m 610 110 q 767 141 696 110 q 890 228 838 172 q 970 359 942 285 q 999 518 999 433 q 970 676 999 603 q 890 806 942 750 q 767 894 838 863 q 610 925 696 925 q 454 894 525 925 q 331 806 383 863 q 250 676 279 750 q 221 518 221 603 q 250 359 221 433 q 331 228 279 285 q 454 141 383 172 q 610 110 525 110 m 546 1176 l 656 1396 l 831 1396 l 675 1176 l 546 1176 z "},"Õ":{"ha":1219,"x_min":85,"x_max":1136,"o":"m 610 -17 q 404 23 500 -17 q 237 135 308 63 q 125 305 165 207 q 85 518 85 403 q 125 732 85 635 q 237 901 165 829 q 403 1013 308 974 q 610 1051 499 1051 q 816 1012 721 1051 q 983 901 911 972 q 1095 732 1054 829 q 1136 518 1136 635 q 1095 305 1136 403 q 983 135 1054 207 q 816 23 911 63 q 610 -17 721 -17 m 610 110 q 767 141 696 110 q 890 228 838 172 q 970 359 942 285 q 999 518 999 433 q 970 676 999 603 q 890 806 942 750 q 767 894 838 863 q 610 925 696 925 q 454 894 525 925 q 331 806 383 863 q 250 676 279 750 q 221 518 221 603 q 250 359 221 433 q 331 228 279 285 q 454 141 383 172 q 610 110 525 110 m 699 1176 q 638 1189 661 1176 q 599 1218 615 1201 q 565 1247 582 1235 q 525 1260 549 1260 q 490 1242 503 1260 q 476 1182 476 1225 l 372 1182 q 413 1322 372 1275 q 519 1368 454 1368 q 581 1356 557 1368 q 621 1326 604 1343 q 653 1297 638 1310 q 693 1285 669 1285 q 732 1305 718 1285 q 746 1363 746 1325 l 849 1363 q 807 1226 849 1276 q 699 1176 765 1176 z "},"Ṍ":{"ha":1219,"x_min":85,"x_max":1136,"o":"m 610 -17 q 404 23 500 -17 q 237 135 308 63 q 125 305 165 207 q 85 518 85 403 q 125 732 85 635 q 237 901 165 829 q 403 1013 308 974 q 610 1051 499 1051 q 816 1012 721 1051 q 983 901 911 972 q 1095 732 1054 829 q 1136 518 1136 635 q 1095 305 1136 403 q 983 135 1054 207 q 816 23 911 63 q 610 -17 721 -17 m 610 110 q 767 141 696 110 q 890 228 838 172 q 970 359 942 285 q 999 518 999 433 q 970 676 999 603 q 890 806 942 750 q 767 894 838 863 q 610 925 696 925 q 454 894 525 925 q 331 806 383 863 q 250 676 279 750 q 221 518 221 603 q 250 359 221 433 q 331 228 279 285 q 454 141 383 172 q 610 110 525 110 m 699 1176 q 638 1189 661 1176 q 599 1218 615 1201 q 565 1247 582 1235 q 525 1260 549 1260 q 490 1242 503 1260 q 476 1182 476 1225 l 372 1182 q 413 1322 372 1275 q 519 1368 454 1368 q 581 1356 557 1368 q 621 1326 604 1343 q 653 1297 638 1310 q 693 1285 669 1285 q 732 1305 718 1285 q 746 1363 746 1325 l 849 1363 q 807 1226 849 1276 q 699 1176 765 1176 m 544 1413 l 656 1632 l 831 1632 l 675 1413 l 544 1413 z "},"Ṏ":{"ha":1219,"x_min":85,"x_max":1136,"o":"m 610 -17 q 404 23 500 -17 q 237 135 308 63 q 125 305 165 207 q 85 518 85 403 q 125 732 85 635 q 237 901 165 829 q 403 1013 308 974 q 610 1051 499 1051 q 816 1012 721 1051 q 983 901 911 972 q 1095 732 1054 829 q 1136 518 1136 635 q 1095 305 1136 403 q 983 135 1054 207 q 816 23 911 63 q 610 -17 721 -17 m 610 110 q 767 141 696 110 q 890 228 838 172 q 970 359 942 285 q 999 518 999 433 q 970 676 999 603 q 890 806 942 750 q 767 894 838 863 q 610 925 696 925 q 454 894 525 925 q 331 806 383 863 q 250 676 279 750 q 221 518 221 603 q 250 359 221 433 q 331 228 279 285 q 454 141 383 172 q 610 110 525 110 m 699 1176 q 638 1189 661 1176 q 599 1218 615 1201 q 565 1247 582 1235 q 525 1260 549 1260 q 490 1242 503 1260 q 476 1182 476 1225 l 372 1182 q 413 1322 372 1275 q 519 1368 454 1368 q 581 1356 557 1368 q 621 1326 604 1343 q 653 1297 638 1310 q 693 1285 669 1285 q 732 1305 718 1285 q 746 1363 746 1325 l 849 1363 q 807 1226 849 1276 q 699 1176 765 1176 m 399 1433 l 399 1590 l 554 1590 l 554 1433 l 399 1433 m 665 1433 l 665 1590 l 822 1590 l 822 1433 l 665 1433 z "},"Ȭ":{"ha":1219,"x_min":85,"x_max":1136,"o":"m 610 -17 q 404 23 500 -17 q 237 135 308 63 q 125 305 165 207 q 85 518 85 403 q 125 732 85 635 q 237 901 165 829 q 403 1013 308 974 q 610 1051 499 1051 q 816 1012 721 1051 q 983 901 911 972 q 1095 732 1054 829 q 1136 518 1136 635 q 1095 305 1136 403 q 983 135 1054 207 q 816 23 911 63 q 610 -17 721 -17 m 610 110 q 767 141 696 110 q 890 228 838 172 q 970 359 942 285 q 999 518 999 433 q 970 676 999 603 q 890 806 942 750 q 767 894 838 863 q 610 925 696 925 q 454 894 525 925 q 331 806 383 863 q 250 676 279 750 q 221 518 221 603 q 250 359 221 433 q 331 228 279 285 q 454 141 383 172 q 610 110 525 110 m 699 1176 q 638 1189 661 1176 q 599 1218 615 1201 q 565 1247 582 1235 q 525 1260 549 1260 q 490 1242 503 1260 q 476 1182 476 1225 l 372 1182 q 413 1322 372 1275 q 519 1368 454 1368 q 581 1356 557 1368 q 621 1326 604 1343 q 653 1297 638 1310 q 693 1285 669 1285 q 732 1305 718 1285 q 746 1363 746 1325 l 849 1363 q 807 1226 849 1276 q 699 1176 765 1176 m 411 1438 l 411 1551 l 810 1551 l 810 1438 l 411 1438 z "},"Œ":{"ha":1733,"x_min":85,"x_max":1679,"o":"m 610 -17 q 404 23 500 -17 q 237 135 308 63 q 125 305 165 207 q 85 518 85 403 q 125 732 85 635 q 237 901 165 829 q 403 1013 308 974 q 610 1051 499 1051 q 776 1026 697 1051 q 919 952 854 1000 q 1031 836 985 904 l 1006 810 l 1006 1035 l 1679 1035 l 1679 910 l 1143 910 l 1143 582 l 1651 582 l 1651 457 l 1143 457 l 1143 125 l 1679 125 l 1679 0 l 1006 0 l 1006 226 l 1031 199 q 919 83 985 132 q 776 9 854 35 q 610 -17 697 -17 m 610 110 q 767 141 696 110 q 890 228 838 172 q 970 359 942 285 q 999 518 999 433 q 970 676 999 603 q 890 806 942 750 q 767 894 838 863 q 610 925 696 925 q 454 894 525 925 q 331 806 383 863 q 250 676 279 750 q 221 518 221 603 q 250 359 221 433 q 331 228 279 285 q 454 141 383 172 q 610 110 525 110 z "},"P":{"ha":896,"x_min":115,"x_max":826,"o":"m 115 0 l 115 1035 l 481 1035 q 661 996 583 1035 q 783 885 739 957 q 826 715 826 813 q 783 547 826 618 q 662 435 739 475 q 481 396 585 396 l 251 396 l 251 0 l 115 0 m 251 521 l 485 521 q 593 544 547 521 q 664 613 639 568 q 689 715 689 657 q 664 819 689 775 q 593 886 639 863 q 485 910 547 910 l 251 910 l 251 521 z "},"Þ":{"ha":889,"x_min":104,"x_max":817,"o":"m 104 0 l 104 1035 l 242 1035 l 242 838 l 471 838 q 651 798 574 838 q 773 687 729 758 q 817 517 817 615 q 773 348 817 419 q 651 238 729 276 q 471 199 574 199 l 242 199 l 242 0 l 104 0 m 242 324 l 475 324 q 582 347 536 324 q 653 415 628 371 q 679 518 679 458 q 653 621 679 578 q 582 688 628 664 q 475 713 536 713 l 242 713 l 242 324 z "},"Q":{"ha":1219,"x_min":85,"x_max":1136,"o":"m 610 -17 q 404 23 500 -17 q 237 135 308 63 q 125 305 165 207 q 85 518 85 403 q 125 732 85 635 q 237 901 165 829 q 403 1013 308 974 q 610 1051 499 1051 q 816 1012 721 1051 q 983 901 911 972 q 1095 732 1054 829 q 1136 518 1136 635 q 1095 305 1136 403 q 983 135 1054 207 q 816 23 911 63 q 610 -17 721 -17 m 610 110 q 767 141 696 110 q 890 228 838 172 q 970 359 942 285 q 999 518 999 433 q 970 676 999 603 q 890 806 942 750 q 767 894 838 863 q 610 925 696 925 q 454 894 525 925 q 331 806 383 863 q 250 676 279 750 q 221 518 221 603 q 250 359 221 433 q 331 228 279 285 q 454 141 383 172 q 610 110 525 110 m 889 -125 l 536 414 l 686 414 l 1040 -125 l 889 -125 z "},"R":{"ha":900,"x_min":115,"x_max":861,"o":"m 115 0 l 115 1035 l 481 1035 q 661 996 583 1035 q 783 885 739 957 q 826 715 826 813 q 771 529 826 606 q 621 419 715 453 l 861 0 l 703 0 l 450 449 l 540 396 l 251 396 l 251 0 l 115 0 m 251 521 l 485 521 q 592 544 546 521 q 663 613 638 568 q 689 715 689 657 q 663 819 689 775 q 592 886 638 863 q 485 910 546 910 l 251 910 l 251 521 z "},"Ŕ":{"ha":900,"x_min":115,"x_max":861,"o":"m 115 0 l 115 1035 l 481 1035 q 661 996 583 1035 q 783 885 739 957 q 826 715 826 813 q 771 529 826 606 q 621 419 715 453 l 861 0 l 703 0 l 450 449 l 540 396 l 251 396 l 251 0 l 115 0 m 251 521 l 485 521 q 592 544 546 521 q 663 613 638 568 q 689 715 689 657 q 663 819 689 775 q 592 886 638 863 q 485 910 546 910 l 251 910 l 251 521 m 379 1176 l 489 1396 l 664 1396 l 508 1176 l 379 1176 z "},"Ř":{"ha":900,"x_min":115,"x_max":861,"o":"m 115 0 l 115 1035 l 481 1035 q 661 996 583 1035 q 783 885 739 957 q 826 715 826 813 q 771 529 826 606 q 621 419 715 453 l 861 0 l 703 0 l 450 449 l 540 396 l 251 396 l 251 0 l 115 0 m 251 521 l 485 521 q 592 544 546 521 q 663 613 638 568 q 689 715 689 657 q 663 819 689 775 q 592 886 638 863 q 485 910 546 910 l 251 910 l 251 521 m 369 1176 l 204 1392 l 346 1392 l 444 1265 l 543 1392 l 685 1392 l 518 1176 l 369 1176 z "},"Ŗ":{"ha":900,"x_min":115,"x_max":861,"o":"m 115 0 l 115 1035 l 481 1035 q 661 996 583 1035 q 783 885 739 957 q 826 715 826 813 q 771 529 826 606 q 621 419 715 453 l 861 0 l 703 0 l 450 449 l 540 396 l 251 396 l 251 0 l 115 0 m 251 521 l 485 521 q 592 544 546 521 q 663 613 638 568 q 689 715 689 657 q 663 819 689 775 q 592 886 638 863 q 485 910 546 910 l 251 910 l 251 521 m 311 -342 l 365 -97 l 525 -97 l 432 -342 l 311 -342 z "},"Ȑ":{"ha":900,"x_min":104,"x_max":861,"o":"m 115 0 l 115 1035 l 481 1035 q 661 996 583 1035 q 783 885 739 957 q 826 715 826 813 q 771 529 826 606 q 621 419 715 453 l 861 0 l 703 0 l 450 449 l 540 396 l 251 396 l 251 0 l 115 0 m 251 521 l 485 521 q 592 544 546 521 q 663 613 638 568 q 689 715 689 657 q 663 819 689 775 q 592 886 638 863 q 485 910 546 910 l 251 910 l 251 521 m 258 1176 l 104 1397 l 268 1397 l 378 1176 l 258 1176 m 510 1176 l 354 1397 l 518 1397 l 629 1176 l 510 1176 z "},"Ṛ":{"ha":900,"x_min":115,"x_max":861,"o":"m 115 0 l 115 1035 l 481 1035 q 661 996 583 1035 q 783 885 739 957 q 826 715 826 813 q 771 529 826 606 q 621 419 715 453 l 861 0 l 703 0 l 450 449 l 540 396 l 251 396 l 251 0 l 115 0 m 251 521 l 485 521 q 592 544 546 521 q 663 613 638 568 q 689 715 689 657 q 663 819 689 775 q 592 886 638 863 q 485 910 546 910 l 251 910 l 251 521 m 367 -281 l 367 -125 l 522 -125 l 522 -281 l 367 -281 z "},"Ȓ":{"ha":900,"x_min":115,"x_max":861,"o":"m 115 0 l 115 1035 l 481 1035 q 661 996 583 1035 q 783 885 739 957 q 826 715 826 813 q 771 529 826 606 q 621 419 715 453 l 861 0 l 703 0 l 450 449 l 540 396 l 251 396 l 251 0 l 115 0 m 251 521 l 485 521 q 592 544 546 521 q 663 613 638 568 q 689 715 689 657 q 663 819 689 775 q 592 886 638 863 q 485 910 546 910 l 251 910 l 251 521 m 206 1176 q 233 1285 206 1236 q 313 1363 260 1335 q 444 1392 365 1392 q 576 1363 524 1392 q 656 1287 629 1335 q 682 1176 682 1239 l 557 1176 q 527 1260 557 1231 q 444 1289 497 1289 q 362 1260 392 1289 q 332 1176 332 1231 l 206 1176 z "},"Ṟ":{"ha":900,"x_min":115,"x_max":861,"o":"m 115 0 l 115 1035 l 481 1035 q 661 996 583 1035 q 783 885 739 957 q 826 715 826 813 q 771 529 826 606 q 621 419 715 453 l 861 0 l 703 0 l 450 449 l 540 396 l 251 396 l 251 0 l 115 0 m 251 521 l 485 521 q 592 544 546 521 q 663 613 638 568 q 689 715 689 657 q 663 819 689 775 q 592 886 638 863 q 485 910 546 910 l 251 910 l 251 521 m 246 -253 l 246 -139 l 644 -139 l 644 -253 l 246 -253 z "},"S":{"ha":897,"x_min":69,"x_max":814,"o":"m 471 -17 q 290 20 372 -17 q 151 121 208 57 q 69 264 94 185 l 188 313 q 299 159 225 213 q 474 106 374 106 q 581 125 535 106 q 652 180 626 144 q 678 263 678 215 q 641 366 678 328 q 533 424 604 404 l 343 482 q 171 592 231 517 q 111 764 111 667 q 152 913 111 849 q 266 1015 193 978 q 432 1051 339 1051 q 601 1018 525 1051 q 729 928 676 985 q 807 800 782 872 l 690 751 q 590 884 657 839 q 433 929 524 929 q 335 910 378 929 q 270 856 293 892 q 247 772 247 821 q 283 671 247 715 q 393 603 319 626 l 567 551 q 751 444 689 514 q 814 272 814 375 q 770 122 814 188 q 649 20 726 57 q 471 -17 572 -17 z "},"Ś":{"ha":897,"x_min":69,"x_max":814,"o":"m 471 -17 q 290 20 372 -17 q 151 121 208 57 q 69 264 94 185 l 188 313 q 299 159 225 213 q 474 106 374 106 q 581 125 535 106 q 652 180 626 144 q 678 263 678 215 q 641 366 678 328 q 533 424 604 404 l 343 482 q 171 592 231 517 q 111 764 111 667 q 152 913 111 849 q 266 1015 193 978 q 432 1051 339 1051 q 601 1018 525 1051 q 729 928 676 985 q 807 800 782 872 l 690 751 q 590 884 657 839 q 433 929 524 929 q 335 910 378 929 q 270 856 293 892 q 247 772 247 821 q 283 671 247 715 q 393 603 319 626 l 567 551 q 751 444 689 514 q 814 272 814 375 q 770 122 814 188 q 649 20 726 57 q 471 -17 572 -17 m 382 1176 l 492 1396 l 667 1396 l 511 1176 l 382 1176 z "},"Ṥ":{"ha":897,"x_min":69,"x_max":814,"o":"m 471 -17 q 290 20 372 -17 q 151 121 208 57 q 69 264 94 185 l 188 313 q 299 159 225 213 q 474 106 374 106 q 581 125 535 106 q 652 180 626 144 q 678 263 678 215 q 641 366 678 328 q 533 424 604 404 l 343 482 q 171 592 231 517 q 111 764 111 667 q 152 913 111 849 q 266 1015 193 978 q 432 1051 339 1051 q 601 1018 525 1051 q 729 928 676 985 q 807 800 782 872 l 690 751 q 590 884 657 839 q 433 929 524 929 q 335 910 378 929 q 270 856 293 892 q 247 772 247 821 q 283 671 247 715 q 393 603 319 626 l 567 551 q 751 444 689 514 q 814 272 814 375 q 770 122 814 188 q 649 20 726 57 q 471 -17 572 -17 m 365 1176 l 476 1385 l 658 1385 l 503 1176 l 365 1176 m 219 1319 l 219 1475 l 375 1475 l 375 1319 l 219 1319 z "},"Š":{"ha":897,"x_min":69,"x_max":814,"o":"m 471 -17 q 290 20 372 -17 q 151 121 208 57 q 69 264 94 185 l 188 313 q 299 159 225 213 q 474 106 374 106 q 581 125 535 106 q 652 180 626 144 q 678 263 678 215 q 641 366 678 328 q 533 424 604 404 l 343 482 q 171 592 231 517 q 111 764 111 667 q 152 913 111 849 q 266 1015 193 978 q 432 1051 339 1051 q 601 1018 525 1051 q 729 928 676 985 q 807 800 782 872 l 690 751 q 590 884 657 839 q 433 929 524 929 q 335 910 378 929 q 270 856 293 892 q 247 772 247 821 q 283 671 247 715 q 393 603 319 626 l 567 551 q 751 444 689 514 q 814 272 814 375 q 770 122 814 188 q 649 20 726 57 q 471 -17 572 -17 m 372 1176 l 207 1392 l 349 1392 l 447 1265 l 546 1392 l 688 1392 l 521 1176 l 372 1176 z "},"Ṧ":{"ha":897,"x_min":69,"x_max":814,"o":"m 471 -17 q 290 20 372 -17 q 151 121 208 57 q 69 264 94 185 l 188 313 q 299 159 225 213 q 474 106 374 106 q 581 125 535 106 q 652 180 626 144 q 678 263 678 215 q 641 366 678 328 q 533 424 604 404 l 343 482 q 171 592 231 517 q 111 764 111 667 q 152 913 111 849 q 266 1015 193 978 q 432 1051 339 1051 q 601 1018 525 1051 q 729 928 676 985 q 807 800 782 872 l 690 751 q 590 884 657 839 q 433 929 524 929 q 335 910 378 929 q 270 856 293 892 q 247 772 247 821 q 283 671 247 715 q 393 603 319 626 l 567 551 q 751 444 689 514 q 814 272 814 375 q 770 122 814 188 q 649 20 726 57 q 471 -17 572 -17 m 372 1176 l 207 1378 l 349 1378 l 447 1265 l 546 1378 l 688 1378 l 521 1176 l 372 1176 m 369 1433 l 369 1590 l 526 1590 l 526 1433 l 369 1433 z "},"Ş":{"ha":897,"x_min":69,"x_max":814,"o":"m 471 -17 q 290 20 372 -17 q 151 121 208 57 q 69 264 94 185 l 188 313 q 299 159 225 213 q 474 106 374 106 q 581 125 535 106 q 652 180 626 144 q 678 263 678 215 q 641 366 678 328 q 533 424 604 404 l 343 482 q 171 592 231 517 q 111 764 111 667 q 152 913 111 849 q 266 1015 193 978 q 432 1051 339 1051 q 601 1018 525 1051 q 729 928 676 985 q 807 800 782 872 l 690 751 q 590 884 657 839 q 433 929 524 929 q 335 910 378 929 q 270 856 293 892 q 247 772 247 821 q 283 671 247 715 q 393 603 319 626 l 567 551 q 751 444 689 514 q 814 272 814 375 q 770 122 814 188 q 649 20 726 57 q 471 -17 572 -17 m 486 -322 q 406 -309 447 -322 q 338 -274 364 -296 l 369 -189 q 417 -217 390 -207 q 468 -226 443 -226 q 517 -212 499 -226 q 535 -174 535 -197 q 503 -126 535 -143 q 401 -100 471 -108 l 433 14 l 518 14 l 503 -49 q 613 -97 575 -62 q 651 -182 651 -132 q 605 -283 651 -244 q 486 -322 558 -322 z "},"Ŝ":{"ha":897,"x_min":69,"x_max":814,"o":"m 471 -17 q 290 20 372 -17 q 151 121 208 57 q 69 264 94 185 l 188 313 q 299 159 225 213 q 474 106 374 106 q 581 125 535 106 q 652 180 626 144 q 678 263 678 215 q 641 366 678 328 q 533 424 604 404 l 343 482 q 171 592 231 517 q 111 764 111 667 q 152 913 111 849 q 266 1015 193 978 q 432 1051 339 1051 q 601 1018 525 1051 q 729 928 676 985 q 807 800 782 872 l 690 751 q 590 884 657 839 q 433 929 524 929 q 335 910 378 929 q 270 856 293 892 q 247 772 247 821 q 283 671 247 715 q 393 603 319 626 l 567 551 q 751 444 689 514 q 814 272 814 375 q 770 122 814 188 q 649 20 726 57 q 471 -17 572 -17 m 207 1176 l 372 1392 l 521 1392 l 688 1176 l 546 1176 l 447 1303 l 349 1176 l 207 1176 z "},"Ș":{"ha":897,"x_min":69,"x_max":814,"o":"m 471 -17 q 290 20 372 -17 q 151 121 208 57 q 69 264 94 185 l 188 313 q 299 159 225 213 q 474 106 374 106 q 581 125 535 106 q 652 180 626 144 q 678 263 678 215 q 641 366 678 328 q 533 424 604 404 l 343 482 q 171 592 231 517 q 111 764 111 667 q 152 913 111 849 q 266 1015 193 978 q 432 1051 339 1051 q 601 1018 525 1051 q 729 928 676 985 q 807 800 782 872 l 690 751 q 590 884 657 839 q 433 929 524 929 q 335 910 378 929 q 270 856 293 892 q 247 772 247 821 q 283 671 247 715 q 393 603 319 626 l 567 551 q 751 444 689 514 q 814 272 814 375 q 770 122 814 188 q 649 20 726 57 q 471 -17 572 -17 m 336 -342 l 390 -97 l 550 -97 l 457 -342 l 336 -342 z "},"Ṡ":{"ha":897,"x_min":69,"x_max":814,"o":"m 471 -17 q 290 20 372 -17 q 151 121 208 57 q 69 264 94 185 l 188 313 q 299 159 225 213 q 474 106 374 106 q 581 125 535 106 q 652 180 626 144 q 678 263 678 215 q 641 366 678 328 q 533 424 604 404 l 343 482 q 171 592 231 517 q 111 764 111 667 q 152 913 111 849 q 266 1015 193 978 q 432 1051 339 1051 q 601 1018 525 1051 q 729 928 676 985 q 807 800 782 872 l 690 751 q 590 884 657 839 q 433 929 524 929 q 335 910 378 929 q 270 856 293 892 q 247 772 247 821 q 283 671 247 715 q 393 603 319 626 l 567 551 q 751 444 689 514 q 814 272 814 375 q 770 122 814 188 q 649 20 726 57 q 471 -17 572 -17 m 369 1176 l 369 1333 l 525 1333 l 525 1176 l 369 1176 z "},"Ṣ":{"ha":897,"x_min":69,"x_max":814,"o":"m 471 -17 q 290 20 372 -17 q 151 121 208 57 q 69 264 94 185 l 188 313 q 299 159 225 213 q 474 106 374 106 q 581 125 535 106 q 652 180 626 144 q 678 263 678 215 q 641 366 678 328 q 533 424 604 404 l 343 482 q 171 592 231 517 q 111 764 111 667 q 152 913 111 849 q 266 1015 193 978 q 432 1051 339 1051 q 601 1018 525 1051 q 729 928 676 985 q 807 800 782 872 l 690 751 q 590 884 657 839 q 433 929 524 929 q 335 910 378 929 q 270 856 293 892 q 247 772 247 821 q 283 671 247 715 q 393 603 319 626 l 567 551 q 751 444 689 514 q 814 272 814 375 q 770 122 814 188 q 649 20 726 57 q 471 -17 572 -17 m 393 -281 l 393 -125 l 549 -125 l 549 -281 l 393 -281 z "},"Ṩ":{"ha":897,"x_min":69,"x_max":814,"o":"m 471 -17 q 290 20 372 -17 q 151 121 208 57 q 69 264 94 185 l 188 313 q 299 159 225 213 q 474 106 374 106 q 581 125 535 106 q 652 180 626 144 q 678 263 678 215 q 641 366 678 328 q 533 424 604 404 l 343 482 q 171 592 231 517 q 111 764 111 667 q 152 913 111 849 q 266 1015 193 978 q 432 1051 339 1051 q 601 1018 525 1051 q 729 928 676 985 q 807 800 782 872 l 690 751 q 590 884 657 839 q 433 929 524 929 q 335 910 378 929 q 270 856 293 892 q 247 772 247 821 q 283 671 247 715 q 393 603 319 626 l 567 551 q 751 444 689 514 q 814 272 814 375 q 770 122 814 188 q 649 20 726 57 q 471 -17 572 -17 m 393 -281 l 393 -125 l 549 -125 l 549 -281 l 393 -281 m 369 1176 l 369 1333 l 525 1333 l 525 1176 l 369 1176 z "},"ẞ":{"ha":1796,"x_min":69,"x_max":1711,"o":"m 471 -17 q 290 20 372 -17 q 151 121 208 57 q 69 264 94 185 l 188 313 q 299 159 225 213 q 474 106 374 106 q 581 125 535 106 q 652 180 626 144 q 678 263 678 215 q 641 366 678 328 q 533 424 604 404 l 343 482 q 171 592 231 517 q 111 764 111 667 q 152 913 111 849 q 266 1015 193 978 q 432 1051 339 1051 q 601 1018 525 1051 q 729 928 676 985 q 807 800 782 872 l 690 751 q 590 884 657 839 q 433 929 524 929 q 335 910 378 929 q 270 856 293 892 q 247 772 247 821 q 283 671 247 715 q 393 603 319 626 l 567 551 q 751 444 689 514 q 814 272 814 375 q 770 122 814 188 q 649 20 726 57 q 471 -17 572 -17 m 1368 -17 q 1188 20 1269 -17 q 1049 121 1106 57 q 967 264 992 185 l 1085 313 q 1197 159 1122 213 q 1371 106 1271 106 q 1478 125 1432 106 q 1549 180 1524 144 q 1575 263 1575 215 q 1538 366 1575 328 q 1431 424 1501 404 l 1240 482 q 1068 592 1128 517 q 1008 764 1008 667 q 1049 913 1008 849 q 1163 1015 1090 978 q 1329 1051 1236 1051 q 1498 1018 1422 1051 q 1626 928 1574 985 q 1704 800 1679 872 l 1588 751 q 1488 884 1554 839 q 1331 929 1421 929 q 1233 910 1275 929 q 1167 856 1190 892 q 1144 772 1144 821 q 1181 671 1144 715 q 1290 603 1217 626 l 1464 551 q 1649 444 1586 514 q 1711 272 1711 375 q 1667 122 1711 188 q 1547 20 1624 57 q 1368 -17 1469 -17 z "},"T":{"ha":725,"x_min":15,"x_max":710,"o":"m 296 0 l 296 910 l 15 910 l 15 1035 l 710 1035 l 710 910 l 433 910 l 433 0 l 296 0 z "},"Ŧ":{"ha":725,"x_min":15,"x_max":710,"o":"m 143 460 l 143 578 l 582 578 l 582 460 l 143 460 m 296 0 l 296 910 l 15 910 l 15 1035 l 710 1035 l 710 910 l 433 910 l 433 0 l 296 0 z "},"Ť":{"ha":725,"x_min":15,"x_max":710,"o":"m 296 0 l 296 910 l 15 910 l 15 1035 l 710 1035 l 710 910 l 433 910 l 433 0 l 296 0 m 288 1176 l 122 1392 l 264 1392 l 363 1265 l 461 1392 l 603 1392 l 436 1176 l 288 1176 z "},"Ţ":{"ha":725,"x_min":15,"x_max":710,"o":"m 296 0 l 296 910 l 15 910 l 15 1035 l 710 1035 l 710 910 l 433 910 l 433 0 l 296 0 m 379 -322 q 299 -309 340 -322 q 231 -274 257 -296 l 263 -189 q 310 -217 283 -207 q 361 -226 336 -226 q 410 -212 392 -226 q 428 -174 428 -197 q 396 -126 428 -143 q 294 -100 364 -108 l 326 14 l 411 14 l 396 -49 q 506 -97 468 -62 q 544 -182 544 -132 q 498 -283 544 -244 q 379 -322 451 -322 z "},"Ț":{"ha":725,"x_min":15,"x_max":710,"o":"m 296 0 l 296 910 l 15 910 l 15 1035 l 710 1035 l 710 910 l 433 910 l 433 0 l 296 0 m 229 -342 l 283 -97 l 443 -97 l 350 -342 l 229 -342 z "},"Ṭ":{"ha":725,"x_min":15,"x_max":710,"o":"m 296 0 l 296 910 l 15 910 l 15 1035 l 710 1035 l 710 910 l 433 910 l 433 0 l 296 0 m 285 -281 l 285 -125 l 440 -125 l 440 -281 l 285 -281 z "},"Ṯ":{"ha":725,"x_min":15,"x_max":710,"o":"m 296 0 l 296 910 l 15 910 l 15 1035 l 710 1035 l 710 910 l 433 910 l 433 0 l 296 0 m 164 -253 l 164 -139 l 563 -139 l 563 -253 l 164 -253 z "},"U":{"ha":981,"x_min":108,"x_max":872,"o":"m 490 -17 q 291 31 378 -17 q 156 160 204 78 q 108 349 108 243 l 108 1035 l 246 1035 l 246 351 q 277 226 246 281 q 363 140 308 171 q 490 110 418 110 q 617 140 563 110 q 703 226 672 171 q 735 351 735 281 l 735 1035 l 872 1035 l 872 349 q 824 160 872 243 q 690 31 776 78 q 490 -17 604 -17 z "},"Ú":{"ha":981,"x_min":108,"x_max":872,"o":"m 490 -17 q 291 31 378 -17 q 156 160 204 78 q 108 349 108 243 l 108 1035 l 246 1035 l 246 351 q 277 226 246 281 q 363 140 308 171 q 490 110 418 110 q 617 140 563 110 q 703 226 672 171 q 735 351 735 281 l 735 1035 l 872 1035 l 872 349 q 824 160 872 243 q 690 31 776 78 q 490 -17 604 -17 m 426 1176 l 536 1396 l 711 1396 l 556 1176 l 426 1176 z "},"Ŭ":{"ha":981,"x_min":108,"x_max":872,"o":"m 490 -17 q 291 31 378 -17 q 156 160 204 78 q 108 349 108 243 l 108 1035 l 246 1035 l 246 351 q 277 226 246 281 q 363 140 308 171 q 490 110 418 110 q 617 140 563 110 q 703 226 672 171 q 735 351 735 281 l 735 1035 l 872 1035 l 872 349 q 824 160 872 243 q 690 31 776 78 q 490 -17 604 -17 m 490 1178 q 358 1206 411 1178 q 278 1284 306 1235 q 251 1393 251 1333 l 378 1393 q 408 1310 378 1339 q 490 1281 438 1281 q 573 1310 543 1281 q 603 1393 603 1339 l 728 1393 q 701 1283 728 1332 q 622 1206 675 1235 q 490 1178 569 1178 z "},"Û":{"ha":981,"x_min":108,"x_max":872,"o":"m 490 -17 q 291 31 378 -17 q 156 160 204 78 q 108 349 108 243 l 108 1035 l 246 1035 l 246 351 q 277 226 246 281 q 363 140 308 171 q 490 110 418 110 q 617 140 563 110 q 703 226 672 171 q 735 351 735 281 l 735 1035 l 872 1035 l 872 349 q 824 160 872 243 q 690 31 776 78 q 490 -17 604 -17 m 251 1176 l 417 1392 l 565 1392 l 732 1176 l 590 1176 l 492 1303 l 393 1176 l 251 1176 z "},"Ȕ":{"ha":981,"x_min":108,"x_max":872,"o":"m 490 -17 q 291 31 378 -17 q 156 160 204 78 q 108 349 108 243 l 108 1035 l 246 1035 l 246 351 q 277 226 246 281 q 363 140 308 171 q 490 110 418 110 q 617 140 563 110 q 703 226 672 171 q 735 351 735 281 l 735 1035 l 872 1035 l 872 349 q 824 160 872 243 q 690 31 776 78 q 490 -17 604 -17 m 306 1176 l 151 1397 l 315 1397 l 425 1176 l 306 1176 m 557 1176 l 401 1397 l 565 1397 l 676 1176 l 557 1176 z "},"Ü":{"ha":981,"x_min":108,"x_max":872,"o":"m 490 -17 q 291 31 378 -17 q 156 160 204 78 q 108 349 108 243 l 108 1035 l 246 1035 l 246 351 q 277 226 246 281 q 363 140 308 171 q 490 110 418 110 q 617 140 563 110 q 703 226 672 171 q 735 351 735 281 l 735 1035 l 872 1035 l 872 349 q 824 160 872 243 q 690 31 776 78 q 490 -17 604 -17 m 279 1176 l 279 1333 l 435 1333 l 435 1176 l 279 1176 m 546 1176 l 546 1333 l 703 1333 l 703 1176 l 546 1176 z "},"Ụ":{"ha":981,"x_min":108,"x_max":872,"o":"m 490 -17 q 291 31 378 -17 q 156 160 204 78 q 108 349 108 243 l 108 1035 l 246 1035 l 246 351 q 277 226 246 281 q 363 140 308 171 q 490 110 418 110 q 617 140 563 110 q 703 226 672 171 q 735 351 735 281 l 735 1035 l 872 1035 l 872 349 q 824 160 872 243 q 690 31 776 78 q 490 -17 604 -17 m 413 -281 l 413 -125 l 568 -125 l 568 -281 l 413 -281 z "},"Ù":{"ha":981,"x_min":108,"x_max":872,"o":"m 490 -17 q 291 31 378 -17 q 156 160 204 78 q 108 349 108 243 l 108 1035 l 246 1035 l 246 351 q 277 226 246 281 q 363 140 308 171 q 490 110 418 110 q 617 140 563 110 q 703 226 672 171 q 735 351 735 281 l 735 1035 l 872 1035 l 872 349 q 824 160 872 243 q 690 31 776 78 q 490 -17 604 -17 m 425 1176 l 271 1396 l 444 1396 l 556 1176 l 425 1176 z "},"Ủ":{"ha":981,"x_min":108,"x_max":872,"o":"m 490 -17 q 291 31 378 -17 q 156 160 204 78 q 108 349 108 243 l 108 1035 l 246 1035 l 246 351 q 277 226 246 281 q 363 140 308 171 q 490 110 418 110 q 617 140 563 110 q 703 226 672 171 q 735 351 735 281 l 735 1035 l 872 1035 l 872 349 q 824 160 872 243 q 690 31 776 78 q 490 -17 604 -17 m 501 1121 l 444 1193 q 497 1226 481 1207 q 513 1272 513 1246 q 492 1314 513 1297 q 439 1331 472 1331 q 406 1328 422 1331 q 368 1315 390 1325 l 350 1400 q 404 1420 376 1415 q 458 1425 432 1425 q 584 1385 536 1425 q 632 1282 632 1346 q 596 1188 632 1231 q 501 1121 560 1146 z "},"Ư":{"ha":981,"x_min":108,"x_max":1067,"o":"m 490 -17 q 291 31 378 -17 q 156 160 204 78 q 108 349 108 243 l 108 1035 l 246 1035 l 246 351 q 277 226 246 281 q 363 140 308 171 q 490 110 418 110 q 617 140 563 110 q 703 226 672 171 q 735 351 735 281 l 735 1035 l 858 1035 q 903 1047 881 1035 q 925 1106 925 1060 q 916 1161 925 1133 q 893 1215 907 1189 l 1033 1215 q 1058 1159 1049 1189 q 1067 1093 1067 1129 q 1017 963 1067 1004 q 882 922 967 922 l 872 922 l 872 349 q 824 160 872 243 q 690 31 776 78 q 490 -17 604 -17 z "},"Ứ":{"ha":981,"x_min":108,"x_max":1067,"o":"m 490 -17 q 291 31 378 -17 q 156 160 204 78 q 108 349 108 243 l 108 1035 l 246 1035 l 246 351 q 277 226 246 281 q 363 140 308 171 q 490 110 418 110 q 617 140 563 110 q 703 226 672 171 q 735 351 735 281 l 735 1035 l 858 1035 q 903 1047 881 1035 q 925 1106 925 1060 q 916 1161 925 1133 q 893 1215 907 1189 l 1033 1215 q 1058 1159 1049 1189 q 1067 1093 1067 1129 q 1017 963 1067 1004 q 882 922 967 922 l 872 922 l 872 349 q 824 160 872 243 q 690 31 776 78 q 490 -17 604 -17 m 426 1176 l 536 1396 l 711 1396 l 556 1176 l 426 1176 z "},"Ự":{"ha":981,"x_min":108,"x_max":1067,"o":"m 490 -17 q 291 31 378 -17 q 156 160 204 78 q 108 349 108 243 l 108 1035 l 246 1035 l 246 351 q 277 226 246 281 q 363 140 308 171 q 490 110 418 110 q 617 140 563 110 q 703 226 672 171 q 735 351 735 281 l 735 1035 l 858 1035 q 903 1047 881 1035 q 925 1106 925 1060 q 916 1161 925 1133 q 893 1215 907 1189 l 1033 1215 q 1058 1159 1049 1189 q 1067 1093 1067 1129 q 1017 963 1067 1004 q 882 922 967 922 l 872 922 l 872 349 q 824 160 872 243 q 690 31 776 78 q 490 -17 604 -17 m 413 -281 l 413 -125 l 568 -125 l 568 -281 l 413 -281 z "},"Ừ":{"ha":981,"x_min":108,"x_max":1067,"o":"m 490 -17 q 291 31 378 -17 q 156 160 204 78 q 108 349 108 243 l 108 1035 l 246 1035 l 246 351 q 277 226 246 281 q 363 140 308 171 q 490 110 418 110 q 617 140 563 110 q 703 226 672 171 q 735 351 735 281 l 735 1035 l 858 1035 q 903 1047 881 1035 q 925 1106 925 1060 q 916 1161 925 1133 q 893 1215 907 1189 l 1033 1215 q 1058 1159 1049 1189 q 1067 1093 1067 1129 q 1017 963 1067 1004 q 882 922 967 922 l 872 922 l 872 349 q 824 160 872 243 q 690 31 776 78 q 490 -17 604 -17 m 425 1176 l 271 1396 l 444 1396 l 556 1176 l 425 1176 z "},"Ử":{"ha":981,"x_min":108,"x_max":1067,"o":"m 490 -17 q 291 31 378 -17 q 156 160 204 78 q 108 349 108 243 l 108 1035 l 246 1035 l 246 351 q 277 226 246 281 q 363 140 308 171 q 490 110 418 110 q 617 140 563 110 q 703 226 672 171 q 735 351 735 281 l 735 1035 l 858 1035 q 903 1047 881 1035 q 925 1106 925 1060 q 916 1161 925 1133 q 893 1215 907 1189 l 1033 1215 q 1058 1159 1049 1189 q 1067 1093 1067 1129 q 1017 963 1067 1004 q 882 922 967 922 l 872 922 l 872 349 q 824 160 872 243 q 690 31 776 78 q 490 -17 604 -17 m 501 1121 l 444 1193 q 497 1226 481 1207 q 513 1272 513 1246 q 492 1314 513 1297 q 439 1331 472 1331 q 406 1328 422 1331 q 368 1315 390 1325 l 350 1400 q 404 1420 376 1415 q 458 1425 432 1425 q 584 1385 536 1425 q 632 1282 632 1346 q 596 1188 632 1231 q 501 1121 560 1146 z "},"Ữ":{"ha":981,"x_min":108,"x_max":1067,"o":"m 490 -17 q 291 31 378 -17 q 156 160 204 78 q 108 349 108 243 l 108 1035 l 246 1035 l 246 351 q 277 226 246 281 q 363 140 308 171 q 490 110 418 110 q 617 140 563 110 q 703 226 672 171 q 735 351 735 281 l 735 1035 l 858 1035 q 903 1047 881 1035 q 925 1106 925 1060 q 916 1161 925 1133 q 893 1215 907 1189 l 1033 1215 q 1058 1159 1049 1189 q 1067 1093 1067 1129 q 1017 963 1067 1004 q 882 922 967 922 l 872 922 l 872 349 q 824 160 872 243 q 690 31 776 78 q 490 -17 604 -17 m 579 1176 q 519 1189 542 1176 q 479 1218 496 1201 q 446 1247 463 1235 q 406 1260 429 1260 q 370 1242 383 1260 q 357 1182 357 1225 l 253 1182 q 294 1322 253 1275 q 400 1368 335 1368 q 461 1356 438 1368 q 501 1326 485 1343 q 534 1297 518 1310 q 574 1285 550 1285 q 613 1305 599 1285 q 626 1363 626 1325 l 729 1363 q 688 1226 729 1276 q 579 1176 646 1176 z "},"Ű":{"ha":981,"x_min":108,"x_max":872,"o":"m 490 -17 q 291 31 378 -17 q 156 160 204 78 q 108 349 108 243 l 108 1035 l 246 1035 l 246 351 q 277 226 246 281 q 363 140 308 171 q 490 110 418 110 q 617 140 563 110 q 703 226 672 171 q 735 351 735 281 l 735 1035 l 872 1035 l 872 349 q 824 160 872 243 q 690 31 776 78 q 490 -17 604 -17 m 306 1176 l 378 1396 l 542 1396 l 425 1176 l 306 1176 m 556 1176 l 628 1396 l 792 1396 l 675 1176 l 556 1176 z "},"Ȗ":{"ha":981,"x_min":108,"x_max":872,"o":"m 490 -17 q 291 31 378 -17 q 156 160 204 78 q 108 349 108 243 l 108 1035 l 246 1035 l 246 351 q 277 226 246 281 q 363 140 308 171 q 490 110 418 110 q 617 140 563 110 q 703 226 672 171 q 735 351 735 281 l 735 1035 l 872 1035 l 872 349 q 824 160 872 243 q 690 31 776 78 q 490 -17 604 -17 m 251 1176 q 278 1285 251 1236 q 358 1363 306 1335 q 490 1392 411 1392 q 622 1363 569 1392 q 701 1287 675 1335 q 728 1176 728 1239 l 603 1176 q 573 1260 603 1231 q 490 1289 543 1289 q 408 1260 438 1289 q 378 1176 378 1231 l 251 1176 z "},"Ū":{"ha":981,"x_min":108,"x_max":872,"o":"m 490 -17 q 291 31 378 -17 q 156 160 204 78 q 108 349 108 243 l 108 1035 l 246 1035 l 246 351 q 277 226 246 281 q 363 140 308 171 q 490 110 418 110 q 617 140 563 110 q 703 226 672 171 q 735 351 735 281 l 735 1035 l 872 1035 l 872 349 q 824 160 872 243 q 690 31 776 78 q 490 -17 604 -17 m 292 1204 l 292 1319 l 690 1319 l 690 1204 l 292 1204 z "},"Ṻ":{"ha":981,"x_min":108,"x_max":872,"o":"m 490 -17 q 291 31 378 -17 q 156 160 204 78 q 108 349 108 243 l 108 1035 l 246 1035 l 246 351 q 277 226 246 281 q 363 140 308 171 q 490 110 418 110 q 617 140 563 110 q 703 226 672 171 q 735 351 735 281 l 735 1035 l 872 1035 l 872 349 q 824 160 872 243 q 690 31 776 78 q 490 -17 604 -17 m 290 1204 l 290 1319 l 690 1319 l 690 1204 l 290 1204 m 279 1433 l 279 1590 l 435 1590 l 435 1433 l 279 1433 m 546 1433 l 546 1590 l 703 1590 l 703 1433 l 546 1433 z "},"Ų":{"ha":981,"x_min":108,"x_max":872,"o":"m 490 -17 q 291 31 378 -17 q 156 160 204 78 q 108 349 108 243 l 108 1035 l 246 1035 l 246 351 q 277 226 246 281 q 363 140 308 171 q 490 110 418 110 q 617 140 563 110 q 703 226 672 171 q 735 351 735 281 l 735 1035 l 872 1035 l 872 349 q 824 160 872 243 q 690 31 776 78 q 490 -17 604 -17 m 478 -322 q 352 -281 399 -322 q 306 -174 306 -239 q 330 -80 306 -122 q 398 -7 354 -37 q 496 36 442 24 l 539 36 l 539 0 q 484 -29 511 -7 q 439 -84 457 -51 q 421 -158 421 -117 q 442 -206 421 -186 q 497 -226 464 -226 q 547 -217 522 -226 q 590 -189 571 -207 l 624 -274 q 559 -309 597 -296 q 478 -322 521 -322 z "},"Ů":{"ha":981,"x_min":108,"x_max":872,"o":"m 490 -17 q 291 31 378 -17 q 156 160 204 78 q 108 349 108 243 l 108 1035 l 246 1035 l 246 351 q 277 226 246 281 q 363 140 308 171 q 490 110 418 110 q 617 140 563 110 q 703 226 672 171 q 735 351 735 281 l 735 1035 l 872 1035 l 872 349 q 824 160 872 243 q 690 31 776 78 q 490 -17 604 -17 m 492 1139 q 379 1181 426 1139 q 332 1293 332 1222 q 378 1406 332 1364 q 492 1449 425 1449 q 603 1406 557 1449 q 650 1293 650 1364 q 603 1181 650 1224 q 492 1139 557 1139 m 492 1225 q 539 1244 519 1225 q 558 1293 558 1263 q 539 1344 558 1325 q 492 1363 519 1363 q 444 1344 464 1363 q 424 1293 424 1325 q 443 1244 424 1263 q 492 1225 463 1225 z "},"Ũ":{"ha":981,"x_min":108,"x_max":872,"o":"m 490 -17 q 291 31 378 -17 q 156 160 204 78 q 108 349 108 243 l 108 1035 l 246 1035 l 246 351 q 277 226 246 281 q 363 140 308 171 q 490 110 418 110 q 617 140 563 110 q 703 226 672 171 q 735 351 735 281 l 735 1035 l 872 1035 l 872 349 q 824 160 872 243 q 690 31 776 78 q 490 -17 604 -17 m 579 1176 q 519 1189 542 1176 q 479 1218 496 1201 q 446 1247 463 1235 q 406 1260 429 1260 q 370 1242 383 1260 q 357 1182 357 1225 l 253 1182 q 294 1322 253 1275 q 400 1368 335 1368 q 461 1356 438 1368 q 501 1326 485 1343 q 534 1297 518 1310 q 574 1285 550 1285 q 613 1305 599 1285 q 626 1363 626 1325 l 729 1363 q 688 1226 729 1276 q 579 1176 646 1176 z "},"Ṹ":{"ha":981,"x_min":108,"x_max":872,"o":"m 490 -17 q 291 31 378 -17 q 156 160 204 78 q 108 349 108 243 l 108 1035 l 246 1035 l 246 351 q 277 226 246 281 q 363 140 308 171 q 490 110 418 110 q 617 140 563 110 q 703 226 672 171 q 735 351 735 281 l 735 1035 l 872 1035 l 872 349 q 824 160 872 243 q 690 31 776 78 q 490 -17 604 -17 m 579 1176 q 519 1189 542 1176 q 479 1218 496 1201 q 446 1247 463 1235 q 406 1260 429 1260 q 370 1242 383 1260 q 357 1182 357 1225 l 253 1182 q 294 1322 253 1275 q 400 1368 335 1368 q 461 1356 438 1368 q 501 1326 485 1343 q 534 1297 518 1310 q 574 1285 550 1285 q 613 1305 599 1285 q 626 1363 626 1325 l 729 1363 q 688 1226 729 1276 q 579 1176 646 1176 m 425 1413 l 536 1632 l 711 1632 l 556 1413 l 425 1413 z "},"V":{"ha":926,"x_min":15,"x_max":911,"o":"m 389 0 l 15 1035 l 161 1035 l 478 125 l 449 125 l 765 1035 l 911 1035 l 539 0 l 389 0 z "},"W":{"ha":1383,"x_min":15,"x_max":1368,"o":"m 306 0 l 15 1035 l 158 1035 l 401 124 l 368 124 l 621 1035 l 764 1035 l 1015 124 l 981 124 l 1225 1035 l 1368 1035 l 1078 0 l 926 0 l 674 907 l 710 907 l 457 0 l 306 0 z "},"Ẃ":{"ha":1383,"x_min":15,"x_max":1368,"o":"m 306 0 l 15 1035 l 158 1035 l 401 124 l 368 124 l 621 1035 l 764 1035 l 1015 124 l 981 124 l 1225 1035 l 1368 1035 l 1078 0 l 926 0 l 674 907 l 710 907 l 457 0 l 306 0 m 628 1176 l 738 1396 l 913 1396 l 757 1176 l 628 1176 z "},"Ŵ":{"ha":1383,"x_min":15,"x_max":1368,"o":"m 306 0 l 15 1035 l 158 1035 l 401 124 l 368 124 l 621 1035 l 764 1035 l 1015 124 l 981 124 l 1225 1035 l 1368 1035 l 1078 0 l 926 0 l 674 907 l 710 907 l 457 0 l 306 0 m 453 1176 l 618 1392 l 767 1392 l 933 1176 l 792 1176 l 693 1303 l 594 1176 l 453 1176 z "},"Ẅ":{"ha":1383,"x_min":15,"x_max":1368,"o":"m 306 0 l 15 1035 l 158 1035 l 401 124 l 368 124 l 621 1035 l 764 1035 l 1015 124 l 981 124 l 1225 1035 l 1368 1035 l 1078 0 l 926 0 l 674 907 l 710 907 l 457 0 l 306 0 m 481 1176 l 481 1333 l 636 1333 l 636 1176 l 481 1176 m 747 1176 l 747 1333 l 904 1333 l 904 1176 l 747 1176 z "},"Ẁ":{"ha":1383,"x_min":15,"x_max":1368,"o":"m 306 0 l 15 1035 l 158 1035 l 401 124 l 368 124 l 621 1035 l 764 1035 l 1015 124 l 981 124 l 1225 1035 l 1368 1035 l 1078 0 l 926 0 l 674 907 l 710 907 l 457 0 l 306 0 m 626 1176 l 472 1396 l 646 1396 l 757 1176 l 626 1176 z "},"X":{"ha":858,"x_min":15,"x_max":843,"o":"m 15 0 l 353 525 l 24 1035 l 179 1035 l 458 600 l 400 600 l 679 1035 l 835 1035 l 506 525 l 843 0 l 688 0 l 400 450 l 458 450 l 169 0 l 15 0 z "},"Y":{"ha":882,"x_min":15,"x_max":867,"o":"m 374 0 l 374 474 l 15 1035 l 169 1035 l 469 564 l 414 564 l 713 1035 l 867 1035 l 511 474 l 511 0 l 374 0 z "},"Ý":{"ha":882,"x_min":15,"x_max":867,"o":"m 374 0 l 374 474 l 15 1035 l 169 1035 l 469 564 l 414 564 l 713 1035 l 867 1035 l 511 474 l 511 0 l 374 0 m 378 1176 l 488 1396 l 663 1396 l 507 1176 l 378 1176 z "},"Ŷ":{"ha":882,"x_min":15,"x_max":867,"o":"m 374 0 l 374 474 l 15 1035 l 169 1035 l 469 564 l 414 564 l 713 1035 l 867 1035 l 511 474 l 511 0 l 374 0 m 203 1176 l 368 1392 l 517 1392 l 683 1176 l 542 1176 l 443 1303 l 344 1176 l 203 1176 z "},"Ÿ":{"ha":882,"x_min":15,"x_max":867,"o":"m 374 0 l 374 474 l 15 1035 l 169 1035 l 469 564 l 414 564 l 713 1035 l 867 1035 l 511 474 l 511 0 l 374 0 m 231 1176 l 231 1333 l 386 1333 l 386 1176 l 231 1176 m 497 1176 l 497 1333 l 654 1333 l 654 1176 l 497 1176 z "},"Ẏ":{"ha":882,"x_min":15,"x_max":867,"o":"m 374 0 l 374 474 l 15 1035 l 169 1035 l 469 564 l 414 564 l 713 1035 l 867 1035 l 511 474 l 511 0 l 374 0 m 364 1176 l 364 1333 l 519 1333 l 519 1176 l 364 1176 z "},"Ỵ":{"ha":882,"x_min":15,"x_max":867,"o":"m 374 0 l 374 474 l 15 1035 l 169 1035 l 469 564 l 414 564 l 713 1035 l 867 1035 l 511 474 l 511 0 l 374 0 m 364 -281 l 364 -125 l 519 -125 l 519 -281 l 364 -281 z "},"Ỳ":{"ha":882,"x_min":15,"x_max":867,"o":"m 374 0 l 374 474 l 15 1035 l 169 1035 l 469 564 l 414 564 l 713 1035 l 867 1035 l 511 474 l 511 0 l 374 0 m 376 1176 l 222 1396 l 396 1396 l 507 1176 l 376 1176 z "},"Ỷ":{"ha":882,"x_min":15,"x_max":867,"o":"m 374 0 l 374 474 l 15 1035 l 169 1035 l 469 564 l 414 564 l 713 1035 l 867 1035 l 511 474 l 511 0 l 374 0 m 453 1121 l 396 1193 q 448 1226 432 1207 q 464 1272 464 1246 q 444 1314 464 1297 q 390 1331 424 1331 q 358 1328 374 1331 q 319 1315 342 1325 l 301 1400 q 356 1420 328 1415 q 410 1425 383 1425 q 535 1385 488 1425 q 583 1282 583 1346 q 547 1188 583 1231 q 453 1121 511 1146 z "},"Ȳ":{"ha":882,"x_min":15,"x_max":867,"o":"m 374 0 l 374 474 l 15 1035 l 169 1035 l 469 564 l 414 564 l 713 1035 l 867 1035 l 511 474 l 511 0 l 374 0 m 243 1204 l 243 1319 l 642 1319 l 642 1204 l 243 1204 z "},"Ỹ":{"ha":882,"x_min":15,"x_max":867,"o":"m 374 0 l 374 474 l 15 1035 l 169 1035 l 469 564 l 414 564 l 713 1035 l 867 1035 l 511 474 l 511 0 l 374 0 m 531 1176 q 470 1189 493 1176 q 431 1218 447 1201 q 397 1247 414 1235 q 357 1260 381 1260 q 322 1242 335 1260 q 308 1182 308 1225 l 204 1182 q 245 1322 204 1275 q 351 1368 286 1368 q 413 1356 389 1368 q 453 1326 436 1343 q 485 1297 469 1310 q 525 1285 501 1285 q 564 1305 550 1285 q 578 1363 578 1325 l 681 1363 q 639 1226 681 1276 q 531 1176 597 1176 z "},"Z":{"ha":806,"x_min":26,"x_max":779,"o":"m 26 0 l 26 100 l 589 910 l 60 910 l 60 1035 l 765 1035 l 765 935 l 206 125 l 779 125 l 779 0 l 26 0 z "},"Ź":{"ha":806,"x_min":26,"x_max":779,"o":"m 26 0 l 26 100 l 589 910 l 60 910 l 60 1035 l 765 1035 l 765 935 l 206 125 l 779 125 l 779 0 l 26 0 m 339 1176 l 449 1396 l 624 1396 l 468 1176 l 339 1176 z "},"Ž":{"ha":806,"x_min":26,"x_max":779,"o":"m 26 0 l 26 100 l 589 910 l 60 910 l 60 1035 l 765 1035 l 765 935 l 206 125 l 779 125 l 779 0 l 26 0 m 328 1176 l 163 1392 l 304 1392 l 403 1265 l 501 1392 l 643 1392 l 476 1176 l 328 1176 z "},"Ż":{"ha":806,"x_min":26,"x_max":779,"o":"m 26 0 l 26 100 l 589 910 l 60 910 l 60 1035 l 765 1035 l 765 935 l 206 125 l 779 125 l 779 0 l 26 0 m 325 1176 l 325 1333 l 481 1333 l 481 1176 l 325 1176 z "},"Ẓ":{"ha":806,"x_min":26,"x_max":779,"o":"m 26 0 l 26 100 l 589 910 l 60 910 l 60 1035 l 765 1035 l 765 935 l 206 125 l 779 125 l 779 0 l 26 0 m 325 -281 l 325 -125 l 481 -125 l 481 -281 l 325 -281 z "},"a":{"ha":799,"x_min":69,"x_max":699,"o":"m 319 -17 q 190 10 246 -17 q 101 85 133 38 q 69 196 69 133 q 95 303 69 256 q 176 385 121 351 q 314 432 231 418 l 592 478 l 592 369 l 343 328 q 238 282 271 315 q 206 200 206 249 q 242 124 206 154 q 335 93 279 93 q 458 123 406 93 q 540 204 510 153 q 569 318 569 256 l 569 508 q 524 608 569 569 q 406 646 479 646 q 292 613 342 646 q 219 526 243 581 l 107 585 q 174 677 128 636 q 281 742 219 718 q 408 765 342 765 q 560 733 494 765 q 662 642 625 700 q 699 508 699 585 l 699 0 l 572 0 l 572 142 l 596 133 q 532 56 572 89 q 438 3 492 22 q 319 -17 383 -17 z "},"á":{"ha":799,"x_min":69,"x_max":699,"o":"m 319 -17 q 190 10 246 -17 q 101 85 133 38 q 69 196 69 133 q 95 303 69 256 q 176 385 121 351 q 314 432 231 418 l 592 478 l 592 369 l 343 328 q 238 282 271 315 q 206 200 206 249 q 242 124 206 154 q 335 93 279 93 q 458 123 406 93 q 540 204 510 153 q 569 318 569 256 l 569 508 q 524 608 569 569 q 406 646 479 646 q 292 613 342 646 q 219 526 243 581 l 107 585 q 174 677 128 636 q 281 742 219 718 q 408 765 342 765 q 560 733 494 765 q 662 642 625 700 q 699 508 699 585 l 699 0 l 572 0 l 572 142 l 596 133 q 532 56 572 89 q 438 3 492 22 q 319 -17 383 -17 m 344 889 l 454 1108 l 629 1108 l 474 889 l 344 889 z "},"ă":{"ha":799,"x_min":69,"x_max":699,"o":"m 319 -17 q 190 10 246 -17 q 101 85 133 38 q 69 196 69 133 q 95 303 69 256 q 176 385 121 351 q 314 432 231 418 l 592 478 l 592 369 l 343 328 q 238 282 271 315 q 206 200 206 249 q 242 124 206 154 q 335 93 279 93 q 458 123 406 93 q 540 204 510 153 q 569 318 569 256 l 569 508 q 524 608 569 569 q 406 646 479 646 q 292 613 342 646 q 219 526 243 581 l 107 585 q 174 677 128 636 q 281 742 219 718 q 408 765 342 765 q 560 733 494 765 q 662 642 625 700 q 699 508 699 585 l 699 0 l 572 0 l 572 142 l 596 133 q 532 56 572 89 q 438 3 492 22 q 319 -17 383 -17 m 410 890 q 278 919 331 890 q 198 997 225 947 q 171 1106 171 1046 l 297 1106 q 327 1022 297 1051 q 410 993 357 993 q 492 1022 463 993 q 522 1106 522 1051 l 647 1106 q 621 996 647 1044 q 542 919 594 947 q 410 890 489 890 z "},"ắ":{"ha":799,"x_min":69,"x_max":699,"o":"m 319 -17 q 190 10 246 -17 q 101 85 133 38 q 69 196 69 133 q 95 303 69 256 q 176 385 121 351 q 314 432 231 418 l 592 478 l 592 369 l 343 328 q 238 282 271 315 q 206 200 206 249 q 242 124 206 154 q 335 93 279 93 q 458 123 406 93 q 540 204 510 153 q 569 318 569 256 l 569 508 q 524 608 569 569 q 406 646 479 646 q 292 613 342 646 q 219 526 243 581 l 107 585 q 174 677 128 636 q 281 742 219 718 q 408 765 342 765 q 560 733 494 765 q 662 642 625 700 q 699 508 699 585 l 699 0 l 572 0 l 572 142 l 596 133 q 532 56 572 89 q 438 3 492 22 q 319 -17 383 -17 m 410 890 q 278 917 331 890 q 198 987 225 943 q 171 1085 171 1031 l 297 1085 q 327 1017 297 1042 q 410 993 357 993 q 492 1017 463 993 q 522 1085 522 1042 l 647 1085 q 621 986 647 1031 q 542 916 594 942 q 410 890 489 890 m 344 1126 l 456 1346 l 629 1346 l 475 1126 l 344 1126 z "},"ặ":{"ha":799,"x_min":69,"x_max":699,"o":"m 319 -17 q 190 10 246 -17 q 101 85 133 38 q 69 196 69 133 q 95 303 69 256 q 176 385 121 351 q 314 432 231 418 l 592 478 l 592 369 l 343 328 q 238 282 271 315 q 206 200 206 249 q 242 124 206 154 q 335 93 279 93 q 458 123 406 93 q 540 204 510 153 q 569 318 569 256 l 569 508 q 524 608 569 569 q 406 646 479 646 q 292 613 342 646 q 219 526 243 581 l 107 585 q 174 677 128 636 q 281 742 219 718 q 408 765 342 765 q 560 733 494 765 q 662 642 625 700 q 699 508 699 585 l 699 0 l 572 0 l 572 142 l 596 133 q 532 56 572 89 q 438 3 492 22 q 319 -17 383 -17 m 322 -281 l 322 -125 l 478 -125 l 478 -281 l 322 -281 m 410 890 q 278 919 331 890 q 198 997 225 947 q 171 1106 171 1046 l 297 1106 q 327 1022 297 1051 q 410 993 357 993 q 492 1022 463 993 q 522 1106 522 1051 l 647 1106 q 621 996 647 1044 q 542 919 594 947 q 410 890 489 890 z "},"ằ":{"ha":799,"x_min":69,"x_max":699,"o":"m 319 -17 q 190 10 246 -17 q 101 85 133 38 q 69 196 69 133 q 95 303 69 256 q 176 385 121 351 q 314 432 231 418 l 592 478 l 592 369 l 343 328 q 238 282 271 315 q 206 200 206 249 q 242 124 206 154 q 335 93 279 93 q 458 123 406 93 q 540 204 510 153 q 569 318 569 256 l 569 508 q 524 608 569 569 q 406 646 479 646 q 292 613 342 646 q 219 526 243 581 l 107 585 q 174 677 128 636 q 281 742 219 718 q 408 765 342 765 q 560 733 494 765 q 662 642 625 700 q 699 508 699 585 l 699 0 l 572 0 l 572 142 l 596 133 q 532 56 572 89 q 438 3 492 22 q 319 -17 383 -17 m 408 890 q 277 916 331 890 q 197 986 224 942 q 171 1085 171 1031 l 296 1085 q 326 1017 296 1042 q 408 993 356 993 q 491 1017 461 993 q 521 1085 521 1042 l 647 1085 q 621 987 647 1031 q 541 917 594 943 q 408 890 488 890 m 343 1126 l 189 1346 l 363 1346 l 474 1126 l 343 1126 z "},"ẳ":{"ha":799,"x_min":69,"x_max":699,"o":"m 319 -17 q 190 10 246 -17 q 101 85 133 38 q 69 196 69 133 q 95 303 69 256 q 176 385 121 351 q 314 432 231 418 l 592 478 l 592 369 l 343 328 q 238 282 271 315 q 206 200 206 249 q 242 124 206 154 q 335 93 279 93 q 458 123 406 93 q 540 204 510 153 q 569 318 569 256 l 569 508 q 524 608 569 569 q 406 646 479 646 q 292 613 342 646 q 219 526 243 581 l 107 585 q 174 677 128 636 q 281 742 219 718 q 408 765 342 765 q 560 733 494 765 q 662 642 625 700 q 699 508 699 585 l 699 0 l 572 0 l 572 142 l 596 133 q 532 56 572 89 q 438 3 492 22 q 319 -17 383 -17 m 408 890 q 277 917 331 890 q 197 987 224 943 q 171 1085 171 1031 l 296 1085 q 326 1017 296 1042 q 408 993 357 993 q 492 1017 463 993 q 522 1085 521 1042 l 647 1085 q 620 986 647 1031 q 540 916 593 942 q 408 890 488 890 m 419 1097 l 363 1168 q 415 1201 399 1182 q 431 1249 431 1221 q 411 1289 431 1272 q 357 1306 392 1306 q 324 1303 340 1306 q 286 1290 308 1301 l 268 1376 q 322 1396 294 1390 q 376 1401 350 1401 q 502 1361 454 1401 q 550 1257 550 1321 q 514 1164 550 1207 q 419 1097 478 1121 z "},"ẵ":{"ha":799,"x_min":69,"x_max":699,"o":"m 319 -17 q 190 10 246 -17 q 101 85 133 38 q 69 196 69 133 q 95 303 69 256 q 176 385 121 351 q 314 432 231 418 l 592 478 l 592 369 l 343 328 q 238 282 271 315 q 206 200 206 249 q 242 124 206 154 q 335 93 279 93 q 458 123 406 93 q 540 204 510 153 q 569 318 569 256 l 569 508 q 524 608 569 569 q 406 646 479 646 q 292 613 342 646 q 219 526 243 581 l 107 585 q 174 677 128 636 q 281 742 219 718 q 408 765 342 765 q 560 733 494 765 q 662 642 625 700 q 699 508 699 585 l 699 0 l 572 0 l 572 142 l 596 133 q 532 56 572 89 q 438 3 492 22 q 319 -17 383 -17 m 483 1176 q 434 1190 453 1176 q 401 1219 415 1203 q 373 1248 386 1235 q 340 1261 360 1261 q 310 1242 321 1261 q 300 1182 300 1224 l 199 1182 q 216 1285 199 1244 q 263 1347 233 1326 q 329 1368 292 1368 q 380 1356 360 1368 q 415 1326 400 1343 q 442 1297 429 1310 q 474 1285 456 1285 q 504 1306 494 1285 q 514 1363 514 1326 l 615 1363 q 577 1226 615 1276 q 483 1176 539 1176 m 408 889 q 277 915 331 889 q 197 985 224 942 q 169 1083 171 1029 l 294 1083 q 326 1016 296 1040 q 408 992 356 992 q 491 1016 461 992 q 521 1083 521 1040 l 647 1083 q 619 985 646 1029 q 540 915 593 940 q 408 889 486 889 z "},"â":{"ha":799,"x_min":69,"x_max":699,"o":"m 319 -17 q 190 10 246 -17 q 101 85 133 38 q 69 196 69 133 q 95 303 69 256 q 176 385 121 351 q 314 432 231 418 l 592 478 l 592 369 l 343 328 q 238 282 271 315 q 206 200 206 249 q 242 124 206 154 q 335 93 279 93 q 458 123 406 93 q 540 204 510 153 q 569 318 569 256 l 569 508 q 524 608 569 569 q 406 646 479 646 q 292 613 342 646 q 219 526 243 581 l 107 585 q 174 677 128 636 q 281 742 219 718 q 408 765 342 765 q 560 733 494 765 q 662 642 625 700 q 699 508 699 585 l 699 0 l 572 0 l 572 142 l 596 133 q 532 56 572 89 q 438 3 492 22 q 319 -17 383 -17 m 169 889 l 335 1104 l 483 1104 l 650 889 l 508 889 l 410 1015 l 311 889 l 169 889 z "},"ấ":{"ha":799,"x_min":69,"x_max":839,"o":"m 319 -17 q 190 10 246 -17 q 101 85 133 38 q 69 196 69 133 q 95 303 69 256 q 176 385 121 351 q 314 432 231 418 l 592 478 l 592 369 l 343 328 q 238 282 271 315 q 206 200 206 249 q 242 124 206 154 q 335 93 279 93 q 458 123 406 93 q 540 204 510 153 q 569 318 569 256 l 569 508 q 524 608 569 569 q 406 646 479 646 q 292 613 342 646 q 219 526 243 581 l 107 585 q 174 677 128 636 q 281 742 219 718 q 408 765 342 765 q 560 733 494 765 q 662 642 625 700 q 699 508 699 585 l 699 0 l 572 0 l 572 142 l 596 133 q 532 56 572 89 q 438 3 492 22 q 319 -17 383 -17 m 169 889 l 335 1090 l 483 1090 l 650 889 l 508 889 l 410 1001 l 311 889 l 169 889 m 593 990 l 676 1178 l 840 1178 l 713 990 l 593 990 z "},"ậ":{"ha":799,"x_min":69,"x_max":699,"o":"m 319 -17 q 190 10 246 -17 q 101 85 133 38 q 69 196 69 133 q 95 303 69 256 q 176 385 121 351 q 314 432 231 418 l 592 478 l 592 369 l 343 328 q 238 282 271 315 q 206 200 206 249 q 242 124 206 154 q 335 93 279 93 q 458 123 406 93 q 540 204 510 153 q 569 318 569 256 l 569 508 q 524 608 569 569 q 406 646 479 646 q 292 613 342 646 q 219 526 243 581 l 107 585 q 174 677 128 636 q 281 742 219 718 q 408 765 342 765 q 560 733 494 765 q 662 642 625 700 q 699 508 699 585 l 699 0 l 572 0 l 572 142 l 596 133 q 532 56 572 89 q 438 3 492 22 q 319 -17 383 -17 m 322 -281 l 322 -125 l 478 -125 l 478 -281 l 322 -281 m 169 889 l 335 1104 l 483 1104 l 650 889 l 508 889 l 410 1015 l 311 889 l 169 889 z "},"ầ":{"ha":799,"x_min":69,"x_max":796,"o":"m 319 -17 q 190 10 246 -17 q 101 85 133 38 q 69 196 69 133 q 95 303 69 256 q 176 385 121 351 q 314 432 231 418 l 592 478 l 592 369 l 343 328 q 238 282 271 315 q 206 200 206 249 q 242 124 206 154 q 335 93 279 93 q 458 123 406 93 q 540 204 510 153 q 569 318 569 256 l 569 508 q 524 608 569 569 q 406 646 479 646 q 292 613 342 646 q 219 526 243 581 l 107 585 q 174 677 128 636 q 281 742 219 718 q 408 765 342 765 q 560 733 494 765 q 662 642 625 700 q 699 508 699 585 l 699 0 l 572 0 l 572 142 l 596 133 q 532 56 572 89 q 438 3 492 22 q 319 -17 383 -17 m 169 889 l 335 1090 l 483 1090 l 650 889 l 508 889 l 410 1001 l 311 889 l 169 889 m 676 990 l 549 1178 l 713 1178 l 796 990 l 676 990 z "},"ẩ":{"ha":799,"x_min":69,"x_max":761,"o":"m 319 -17 q 190 10 246 -17 q 101 85 133 38 q 69 196 69 133 q 95 303 69 256 q 176 385 121 351 q 314 432 231 418 l 592 478 l 592 369 l 343 328 q 238 282 271 315 q 206 200 206 249 q 242 124 206 154 q 335 93 279 93 q 458 123 406 93 q 540 204 510 153 q 569 318 569 256 l 569 508 q 524 608 569 569 q 406 646 479 646 q 292 613 342 646 q 219 526 243 581 l 107 585 q 174 677 128 636 q 281 742 219 718 q 408 765 342 765 q 560 733 494 765 q 662 642 625 700 q 699 508 699 585 l 699 0 l 572 0 l 572 142 l 596 133 q 532 56 572 89 q 438 3 492 22 q 319 -17 383 -17 m 169 889 l 335 1090 l 483 1090 l 650 889 l 508 889 l 410 1001 l 311 889 l 169 889 m 635 986 l 581 1056 q 631 1088 615 1069 q 647 1133 647 1107 q 628 1174 647 1157 q 575 1190 608 1190 q 544 1188 560 1190 q 506 1175 528 1185 l 488 1257 q 541 1276 514 1271 q 593 1282 568 1282 q 716 1243 669 1282 q 763 1142 763 1204 q 727 1051 763 1093 q 635 986 692 1010 z "},"ẫ":{"ha":799,"x_min":69,"x_max":699,"o":"m 319 -17 q 190 10 246 -17 q 101 85 133 38 q 69 196 69 133 q 95 303 69 256 q 176 385 121 351 q 314 432 231 418 l 592 478 l 592 369 l 343 328 q 238 282 271 315 q 206 200 206 249 q 242 124 206 154 q 335 93 279 93 q 458 123 406 93 q 540 204 510 153 q 569 318 569 256 l 569 508 q 524 608 569 569 q 406 646 479 646 q 292 613 342 646 q 219 526 243 581 l 107 585 q 174 677 128 636 q 281 742 219 718 q 408 765 342 765 q 560 733 494 765 q 662 642 625 700 q 699 508 699 585 l 699 0 l 572 0 l 572 142 l 596 133 q 532 56 572 89 q 438 3 492 22 q 319 -17 383 -17 m 168 889 l 333 1090 l 483 1090 l 650 889 l 508 889 l 408 1001 l 310 889 l 168 889 m 485 1176 q 436 1190 456 1176 q 402 1219 417 1203 q 374 1248 388 1235 q 342 1261 361 1261 q 313 1242 324 1261 q 303 1182 303 1224 l 201 1182 q 219 1285 201 1244 q 265 1347 236 1326 q 331 1368 294 1368 q 382 1356 363 1368 q 416 1326 401 1343 q 444 1297 431 1310 q 476 1285 458 1285 q 506 1306 497 1285 q 515 1363 515 1326 l 618 1363 q 578 1226 617 1276 q 485 1176 540 1176 z "},"ȁ":{"ha":799,"x_min":68,"x_max":699,"o":"m 319 -17 q 190 10 246 -17 q 101 85 133 38 q 69 196 69 133 q 95 303 69 256 q 176 385 121 351 q 314 432 231 418 l 592 478 l 592 369 l 343 328 q 238 282 271 315 q 206 200 206 249 q 242 124 206 154 q 335 93 279 93 q 458 123 406 93 q 540 204 510 153 q 569 318 569 256 l 569 508 q 524 608 569 569 q 406 646 479 646 q 292 613 342 646 q 219 526 243 581 l 107 585 q 174 677 128 636 q 281 742 219 718 q 408 765 342 765 q 560 733 494 765 q 662 642 625 700 q 699 508 699 585 l 699 0 l 572 0 l 572 142 l 596 133 q 532 56 572 89 q 438 3 492 22 q 319 -17 383 -17 m 224 889 l 69 1110 l 233 1110 l 343 889 l 224 889 m 475 889 l 319 1110 l 483 1110 l 594 889 l 475 889 z "},"ä":{"ha":799,"x_min":69,"x_max":699,"o":"m 319 -17 q 190 10 246 -17 q 101 85 133 38 q 69 196 69 133 q 95 303 69 256 q 176 385 121 351 q 314 432 231 418 l 592 478 l 592 369 l 343 328 q 238 282 271 315 q 206 200 206 249 q 242 124 206 154 q 335 93 279 93 q 458 123 406 93 q 540 204 510 153 q 569 318 569 256 l 569 508 q 524 608 569 569 q 406 646 479 646 q 292 613 342 646 q 219 526 243 581 l 107 585 q 174 677 128 636 q 281 742 219 718 q 408 765 342 765 q 560 733 494 765 q 662 642 625 700 q 699 508 699 585 l 699 0 l 572 0 l 572 142 l 596 133 q 532 56 572 89 q 438 3 492 22 q 319 -17 383 -17 m 197 889 l 197 1046 l 353 1046 l 353 889 l 197 889 m 464 889 l 464 1046 l 621 1046 l 621 889 l 464 889 z "},"ạ":{"ha":799,"x_min":69,"x_max":699,"o":"m 319 -17 q 190 10 246 -17 q 101 85 133 38 q 69 196 69 133 q 95 303 69 256 q 176 385 121 351 q 314 432 231 418 l 592 478 l 592 369 l 343 328 q 238 282 271 315 q 206 200 206 249 q 242 124 206 154 q 335 93 279 93 q 458 123 406 93 q 540 204 510 153 q 569 318 569 256 l 569 508 q 524 608 569 569 q 406 646 479 646 q 292 613 342 646 q 219 526 243 581 l 107 585 q 174 677 128 636 q 281 742 219 718 q 408 765 342 765 q 560 733 494 765 q 662 642 625 700 q 699 508 699 585 l 699 0 l 572 0 l 572 142 l 596 133 q 532 56 572 89 q 438 3 492 22 q 319 -17 383 -17 m 322 -281 l 322 -125 l 478 -125 l 478 -281 l 322 -281 z "},"à":{"ha":799,"x_min":69,"x_max":699,"o":"m 319 -17 q 190 10 246 -17 q 101 85 133 38 q 69 196 69 133 q 95 303 69 256 q 176 385 121 351 q 314 432 231 418 l 592 478 l 592 369 l 343 328 q 238 282 271 315 q 206 200 206 249 q 242 124 206 154 q 335 93 279 93 q 458 123 406 93 q 540 204 510 153 q 569 318 569 256 l 569 508 q 524 608 569 569 q 406 646 479 646 q 292 613 342 646 q 219 526 243 581 l 107 585 q 174 677 128 636 q 281 742 219 718 q 408 765 342 765 q 560 733 494 765 q 662 642 625 700 q 699 508 699 585 l 699 0 l 572 0 l 572 142 l 596 133 q 532 56 572 89 q 438 3 492 22 q 319 -17 383 -17 m 344 889 l 190 1108 l 364 1108 l 475 889 l 344 889 z "},"ả":{"ha":799,"x_min":69,"x_max":699,"o":"m 319 -17 q 190 10 246 -17 q 101 85 133 38 q 69 196 69 133 q 95 303 69 256 q 176 385 121 351 q 314 432 231 418 l 592 478 l 592 369 l 343 328 q 238 282 271 315 q 206 200 206 249 q 242 124 206 154 q 335 93 279 93 q 458 123 406 93 q 540 204 510 153 q 569 318 569 256 l 569 508 q 524 608 569 569 q 406 646 479 646 q 292 613 342 646 q 219 526 243 581 l 107 585 q 174 677 128 636 q 281 742 219 718 q 408 765 342 765 q 560 733 494 765 q 662 642 625 700 q 699 508 699 585 l 699 0 l 572 0 l 572 142 l 596 133 q 532 56 572 89 q 438 3 492 22 q 319 -17 383 -17 m 419 833 l 363 906 q 415 939 399 919 q 431 985 431 958 q 410 1026 431 1010 q 357 1043 390 1043 q 324 1040 340 1043 q 286 1028 308 1038 l 268 1113 q 322 1133 294 1128 q 376 1138 350 1138 q 502 1098 454 1138 q 550 994 550 1058 q 514 901 550 943 q 419 833 478 858 z "},"ȃ":{"ha":799,"x_min":69,"x_max":699,"o":"m 319 -17 q 190 10 246 -17 q 101 85 133 38 q 69 196 69 133 q 95 303 69 256 q 176 385 121 351 q 314 432 231 418 l 592 478 l 592 369 l 343 328 q 238 282 271 315 q 206 200 206 249 q 242 124 206 154 q 335 93 279 93 q 458 123 406 93 q 540 204 510 153 q 569 318 569 256 l 569 508 q 524 608 569 569 q 406 646 479 646 q 292 613 342 646 q 219 526 243 581 l 107 585 q 174 677 128 636 q 281 742 219 718 q 408 765 342 765 q 560 733 494 765 q 662 642 625 700 q 699 508 699 585 l 699 0 l 572 0 l 572 142 l 596 133 q 532 56 572 89 q 438 3 492 22 q 319 -17 383 -17 m 171 889 q 198 998 171 949 q 278 1076 225 1047 q 410 1104 331 1104 q 542 1076 489 1104 q 621 999 594 1047 q 647 889 647 951 l 522 889 q 492 972 522 943 q 410 1001 463 1001 q 327 972 357 1001 q 297 889 297 943 l 171 889 z "},"ā":{"ha":799,"x_min":69,"x_max":699,"o":"m 319 -17 q 190 10 246 -17 q 101 85 133 38 q 69 196 69 133 q 95 303 69 256 q 176 385 121 351 q 314 432 231 418 l 592 478 l 592 369 l 343 328 q 238 282 271 315 q 206 200 206 249 q 242 124 206 154 q 335 93 279 93 q 458 123 406 93 q 540 204 510 153 q 569 318 569 256 l 569 508 q 524 608 569 569 q 406 646 479 646 q 292 613 342 646 q 219 526 243 581 l 107 585 q 174 677 128 636 q 281 742 219 718 q 408 765 342 765 q 560 733 494 765 q 662 642 625 700 q 699 508 699 585 l 699 0 l 572 0 l 572 142 l 596 133 q 532 56 572 89 q 438 3 492 22 q 319 -17 383 -17 m 210 917 l 210 1032 l 608 1032 l 608 917 l 210 917 z "},"ą":{"ha":799,"x_min":69,"x_max":758,"o":"m 319 -17 q 190 10 246 -17 q 101 85 133 38 q 69 196 69 133 q 95 303 69 256 q 176 385 121 351 q 314 432 231 418 l 592 478 l 592 369 l 343 328 q 238 282 271 315 q 206 200 206 249 q 242 124 206 154 q 335 93 279 93 q 458 123 406 93 q 540 204 510 153 q 569 318 569 256 l 569 508 q 524 608 569 569 q 406 646 479 646 q 292 613 342 646 q 219 526 243 581 l 107 585 q 174 677 128 636 q 281 742 219 718 q 408 765 342 765 q 560 733 494 765 q 662 642 625 700 q 699 508 699 585 l 699 0 l 572 0 l 572 142 l 596 133 q 532 56 572 89 q 438 3 492 22 q 319 -17 383 -17 m 614 -322 q 488 -281 535 -322 q 442 -174 442 -239 q 466 -80 442 -122 q 534 -7 490 -37 q 632 36 578 24 l 675 36 l 675 0 q 620 -29 647 -7 q 575 -84 593 -51 q 557 -158 557 -117 q 578 -206 557 -186 q 633 -226 600 -226 q 683 -217 658 -226 q 726 -189 707 -207 l 760 -274 q 695 -309 733 -296 q 614 -322 657 -322 z "},"å":{"ha":799,"x_min":69,"x_max":699,"o":"m 319 -17 q 190 10 246 -17 q 101 85 133 38 q 69 196 69 133 q 95 303 69 256 q 176 385 121 351 q 314 432 231 418 l 592 478 l 592 369 l 343 328 q 238 282 271 315 q 206 200 206 249 q 242 124 206 154 q 335 93 279 93 q 458 123 406 93 q 540 204 510 153 q 569 318 569 256 l 569 508 q 524 608 569 569 q 406 646 479 646 q 292 613 342 646 q 219 526 243 581 l 107 585 q 174 677 128 636 q 281 742 219 718 q 408 765 342 765 q 560 733 494 765 q 662 642 625 700 q 699 508 699 585 l 699 0 l 572 0 l 572 142 l 596 133 q 532 56 572 89 q 438 3 492 22 q 319 -17 383 -17 m 410 851 q 297 893 344 851 q 250 1006 250 935 q 297 1119 250 1076 q 410 1161 343 1161 q 522 1119 475 1161 q 568 1006 568 1076 q 522 894 568 936 q 410 851 475 851 m 410 938 q 457 956 438 938 q 476 1006 476 975 q 457 1056 476 1038 q 410 1075 438 1075 q 362 1056 382 1075 q 342 1006 342 1038 q 361 956 342 975 q 410 938 381 938 z "},"ǻ":{"ha":799,"x_min":69,"x_max":699,"o":"m 319 -17 q 190 10 246 -17 q 101 85 133 38 q 69 196 69 133 q 95 303 69 256 q 176 385 121 351 q 314 432 231 418 l 592 478 l 592 369 l 343 328 q 238 282 271 315 q 206 200 206 249 q 242 124 206 154 q 335 93 279 93 q 458 123 406 93 q 540 204 510 153 q 569 318 569 256 l 569 508 q 524 608 569 569 q 406 646 479 646 q 292 613 342 646 q 219 526 243 581 l 107 585 q 174 677 128 636 q 281 742 219 718 q 408 765 342 765 q 560 733 494 765 q 662 642 625 700 q 699 508 699 585 l 699 0 l 572 0 l 572 142 l 596 133 q 532 56 572 89 q 438 3 492 22 q 319 -17 383 -17 m 410 851 q 297 893 344 851 q 250 1006 250 935 q 297 1119 250 1076 q 410 1161 343 1161 q 522 1119 475 1161 q 568 1006 568 1076 q 522 894 568 936 q 410 851 475 851 m 410 938 q 457 956 438 938 q 476 1006 476 975 q 457 1056 476 1038 q 410 1075 438 1075 q 362 1056 382 1075 q 342 1006 342 1038 q 361 956 342 975 q 410 938 381 938 m 385 1092 l 465 1285 l 629 1285 l 515 1092 l 385 1092 z "},"ã":{"ha":799,"x_min":69,"x_max":699,"o":"m 319 -17 q 190 10 246 -17 q 101 85 133 38 q 69 196 69 133 q 95 303 69 256 q 176 385 121 351 q 314 432 231 418 l 592 478 l 592 369 l 343 328 q 238 282 271 315 q 206 200 206 249 q 242 124 206 154 q 335 93 279 93 q 458 123 406 93 q 540 204 510 153 q 569 318 569 256 l 569 508 q 524 608 569 569 q 406 646 479 646 q 292 613 342 646 q 219 526 243 581 l 107 585 q 174 677 128 636 q 281 742 219 718 q 408 765 342 765 q 560 733 494 765 q 662 642 625 700 q 699 508 699 585 l 699 0 l 572 0 l 572 142 l 596 133 q 532 56 572 89 q 438 3 492 22 q 319 -17 383 -17 m 497 889 q 437 901 460 889 q 397 931 414 914 q 364 960 381 947 q 324 972 347 972 q 288 955 301 972 q 275 894 275 938 l 171 894 q 212 1034 171 988 q 318 1081 253 1081 q 379 1068 356 1081 q 419 1039 403 1056 q 452 1010 436 1022 q 492 997 468 997 q 531 1017 517 997 q 544 1075 544 1038 l 647 1075 q 606 939 647 989 q 497 889 564 889 z "},"æ":{"ha":1358,"x_min":69,"x_max":1289,"o":"m 319 -17 q 190 10 246 -17 q 101 85 133 38 q 69 196 69 133 q 95 303 69 256 q 176 385 121 351 q 314 432 231 418 l 569 474 l 569 508 q 524 608 569 569 q 406 646 479 646 q 292 613 342 646 q 219 526 243 581 l 107 585 q 174 677 128 636 q 281 742 219 718 q 408 765 342 765 q 579 721 507 765 q 681 603 651 676 l 639 604 q 765 722 688 678 q 938 765 843 765 q 1085 735 1021 765 q 1196 655 1150 706 q 1265 540 1242 604 q 1289 406 1289 475 q 1288 372 1289 390 q 1282 336 1286 353 l 710 336 q 747 212 714 264 q 834 131 781 160 q 950 101 888 101 q 1078 136 1026 101 q 1161 225 1129 171 l 1269 169 q 1201 76 1247 118 q 1092 8 1154 33 q 957 -17 1031 -17 q 792 21 867 -17 q 667 129 717 58 l 693 154 l 693 0 l 572 0 l 572 158 l 593 129 q 529 53 569 86 q 435 1 489 19 q 319 -17 382 -17 m 335 93 q 458 123 406 93 q 540 204 510 153 q 569 318 569 256 l 569 365 l 343 328 q 238 282 271 315 q 206 200 206 249 q 242 124 206 154 q 335 93 279 93 m 714 447 l 1150 447 q 1120 553 1149 507 q 1044 624 1092 599 q 938 650 996 650 q 835 626 883 650 q 754 556 786 601 q 714 447 722 510 z "},"ǽ":{"ha":1358,"x_min":69,"x_max":1289,"o":"m 319 -17 q 190 10 246 -17 q 101 85 133 38 q 69 196 69 133 q 95 303 69 256 q 176 385 121 351 q 314 432 231 418 l 569 474 l 569 508 q 524 608 569 569 q 406 646 479 646 q 292 613 342 646 q 219 526 243 581 l 107 585 q 174 677 128 636 q 281 742 219 718 q 408 765 342 765 q 579 721 507 765 q 681 603 651 676 l 639 604 q 765 722 688 678 q 938 765 843 765 q 1085 735 1021 765 q 1196 655 1150 706 q 1265 540 1242 604 q 1289 406 1289 475 q 1288 372 1289 390 q 1282 336 1286 353 l 710 336 q 747 212 714 264 q 834 131 781 160 q 950 101 888 101 q 1078 136 1026 101 q 1161 225 1129 171 l 1269 169 q 1201 76 1247 118 q 1092 8 1154 33 q 957 -17 1031 -17 q 792 21 867 -17 q 667 129 717 58 l 693 154 l 693 0 l 572 0 l 572 158 l 593 129 q 529 53 569 86 q 435 1 489 19 q 319 -17 382 -17 m 335 93 q 458 123 406 93 q 540 204 510 153 q 569 318 569 256 l 569 365 l 343 328 q 238 282 271 315 q 206 200 206 249 q 242 124 206 154 q 335 93 279 93 m 714 447 l 1150 447 q 1120 553 1149 507 q 1044 624 1092 599 q 938 650 996 650 q 835 626 883 650 q 754 556 786 601 q 714 447 722 510 m 615 889 l 725 1108 l 900 1108 l 744 889 l 615 889 z "},"b":{"ha":929,"x_min":100,"x_max":860,"o":"m 488 -17 q 323 24 397 -17 q 208 138 249 64 l 226 160 l 226 0 l 100 0 l 100 1051 l 229 1051 l 229 588 l 210 619 q 324 726 251 686 q 489 765 396 765 q 678 714 594 765 q 811 574 763 663 q 860 374 860 486 q 811 175 860 264 q 678 35 763 86 q 488 -17 594 -17 m 478 108 q 604 143 549 108 q 691 238 660 178 q 722 374 722 299 q 691 510 722 451 q 604 605 660 569 q 478 640 549 640 q 351 606 407 640 q 262 510 294 571 q 229 374 229 450 q 262 238 229 299 q 351 143 294 178 q 478 108 407 108 z "},"c":{"ha":838,"x_min":69,"x_max":768,"o":"m 447 -17 q 252 35 338 -17 q 118 175 167 86 q 69 375 69 264 q 118 575 69 488 q 252 714 167 663 q 447 765 338 765 q 585 739 521 765 q 697 668 649 713 q 768 564 746 624 l 653 508 q 572 603 626 567 q 447 640 518 640 q 324 606 379 640 q 238 511 269 571 q 206 374 206 451 q 238 238 206 299 q 324 143 269 178 q 447 108 379 108 q 572 145 518 108 q 653 243 626 182 l 768 185 q 697 81 746 126 q 585 10 649 36 q 447 -17 521 -17 z "},"ć":{"ha":838,"x_min":69,"x_max":768,"o":"m 447 -17 q 252 35 338 -17 q 118 175 167 86 q 69 375 69 264 q 118 575 69 488 q 252 714 167 663 q 447 765 338 765 q 585 739 521 765 q 697 668 649 713 q 768 564 746 624 l 653 508 q 572 603 626 567 q 447 640 518 640 q 324 606 379 640 q 238 511 269 571 q 206 374 206 451 q 238 238 206 299 q 324 143 269 178 q 447 108 379 108 q 572 145 518 108 q 653 243 626 182 l 768 185 q 697 81 746 126 q 585 10 649 36 q 447 -17 521 -17 m 383 889 l 493 1108 l 668 1108 l 513 889 l 383 889 z "},"č":{"ha":838,"x_min":69,"x_max":768,"o":"m 447 -17 q 252 35 338 -17 q 118 175 167 86 q 69 375 69 264 q 118 575 69 488 q 252 714 167 663 q 447 765 338 765 q 585 739 521 765 q 697 668 649 713 q 768 564 746 624 l 653 508 q 572 603 626 567 q 447 640 518 640 q 324 606 379 640 q 238 511 269 571 q 206 374 206 451 q 238 238 206 299 q 324 143 269 178 q 447 108 379 108 q 572 145 518 108 q 653 243 626 182 l 768 185 q 697 81 746 126 q 585 10 649 36 q 447 -17 521 -17 m 372 889 l 207 1104 l 349 1104 l 447 978 l 546 1104 l 688 1104 l 521 889 l 372 889 z "},"ç":{"ha":838,"x_min":69,"x_max":768,"o":"m 447 -17 q 252 35 338 -17 q 118 175 167 86 q 69 375 69 264 q 118 575 69 488 q 252 714 167 663 q 447 765 338 765 q 585 739 521 765 q 697 668 649 713 q 768 564 746 624 l 653 508 q 572 603 626 567 q 447 640 518 640 q 324 606 379 640 q 238 511 269 571 q 206 374 206 451 q 238 238 206 299 q 324 143 269 178 q 447 108 379 108 q 572 145 518 108 q 653 243 626 182 l 768 185 q 697 81 746 126 q 585 10 649 36 q 447 -17 521 -17 m 464 -322 q 383 -309 425 -322 q 315 -274 342 -296 l 347 -189 q 394 -217 368 -207 q 446 -226 421 -226 q 494 -212 476 -226 q 513 -174 513 -197 q 481 -126 513 -143 q 379 -100 449 -108 l 411 14 l 496 14 l 481 -49 q 591 -97 553 -62 q 629 -182 629 -132 q 583 -283 629 -244 q 464 -322 536 -322 z "},"ḉ":{"ha":838,"x_min":69,"x_max":768,"o":"m 447 -17 q 252 35 338 -17 q 118 175 167 86 q 69 375 69 264 q 118 575 69 488 q 252 714 167 663 q 447 765 338 765 q 585 739 521 765 q 697 668 649 713 q 768 564 746 624 l 653 508 q 572 603 626 567 q 447 640 518 640 q 324 606 379 640 q 238 511 269 571 q 206 374 206 451 q 238 238 206 299 q 324 143 269 178 q 447 108 379 108 q 572 145 518 108 q 653 243 626 182 l 768 185 q 697 81 746 126 q 585 10 649 36 q 447 -17 521 -17 m 464 -322 q 383 -309 425 -322 q 315 -274 342 -296 l 347 -189 q 394 -217 368 -207 q 446 -226 421 -226 q 494 -212 476 -226 q 513 -174 513 -197 q 481 -126 513 -143 q 379 -100 449 -108 l 411 14 l 496 14 l 481 -49 q 591 -97 553 -62 q 629 -182 629 -132 q 583 -283 629 -244 q 464 -322 536 -322 m 383 889 l 493 1108 l 668 1108 l 513 889 l 383 889 z "},"ĉ":{"ha":838,"x_min":69,"x_max":768,"o":"m 447 -17 q 252 35 338 -17 q 118 175 167 86 q 69 375 69 264 q 118 575 69 488 q 252 714 167 663 q 447 765 338 765 q 585 739 521 765 q 697 668 649 713 q 768 564 746 624 l 653 508 q 572 603 626 567 q 447 640 518 640 q 324 606 379 640 q 238 511 269 571 q 206 374 206 451 q 238 238 206 299 q 324 143 269 178 q 447 108 379 108 q 572 145 518 108 q 653 243 626 182 l 768 185 q 697 81 746 126 q 585 10 649 36 q 447 -17 521 -17 m 208 889 l 374 1104 l 522 1104 l 689 889 l 547 889 l 449 1015 l 350 889 l 208 889 z "},"ċ":{"ha":838,"x_min":69,"x_max":768,"o":"m 447 -17 q 252 35 338 -17 q 118 175 167 86 q 69 375 69 264 q 118 575 69 488 q 252 714 167 663 q 447 765 338 765 q 585 739 521 765 q 697 668 649 713 q 768 564 746 624 l 653 508 q 572 603 626 567 q 447 640 518 640 q 324 606 379 640 q 238 511 269 571 q 206 374 206 451 q 238 238 206 299 q 324 143 269 178 q 447 108 379 108 q 572 145 518 108 q 653 243 626 182 l 768 185 q 697 81 746 126 q 585 10 649 36 q 447 -17 521 -17 m 371 889 l 371 1046 l 526 1046 l 526 889 l 371 889 z "},"d":{"ha":929,"x_min":69,"x_max":829,"o":"m 440 -17 q 251 35 335 -17 q 118 175 167 86 q 69 374 69 264 q 118 574 69 486 q 251 714 167 663 q 440 765 335 765 q 606 726 533 765 q 719 619 678 686 l 699 588 l 699 1051 l 829 1051 l 829 0 l 703 0 l 703 160 l 719 138 q 606 24 681 64 q 440 -17 532 -17 m 451 108 q 578 143 522 108 q 666 238 633 178 q 699 374 699 299 q 666 510 699 450 q 578 606 633 571 q 451 640 522 640 q 326 605 382 640 q 238 510 269 569 q 206 374 206 451 q 238 238 206 299 q 325 143 269 178 q 451 108 381 108 z "},"ď":{"ha":1133,"x_min":69,"x_max":1082,"o":"m 440 -17 q 251 35 335 -17 q 118 175 167 86 q 69 374 69 264 q 118 574 69 486 q 251 714 167 663 q 440 765 335 765 q 606 726 533 765 q 719 619 678 686 l 699 588 l 699 1051 l 829 1051 l 829 0 l 703 0 l 703 160 l 719 138 q 606 24 681 64 q 440 -17 532 -17 m 451 108 q 578 143 522 108 q 666 238 633 178 q 699 374 699 299 q 666 510 699 450 q 578 606 633 571 q 451 640 522 640 q 326 605 382 640 q 238 510 269 569 q 206 374 206 451 q 238 238 206 299 q 325 143 269 178 q 451 108 381 108 m 929 810 l 929 1051 l 1082 1051 l 1042 810 l 929 810 z "},"đ":{"ha":929,"x_min":69,"x_max":963,"o":"m 567 833 l 567 944 l 963 944 l 963 833 l 567 833 m 440 -17 q 251 35 335 -17 q 118 175 167 86 q 69 374 69 264 q 118 574 69 486 q 251 714 167 663 q 440 765 335 765 q 606 726 533 765 q 719 619 678 686 l 699 588 l 699 1051 l 829 1051 l 829 0 l 703 0 l 703 160 l 719 138 q 606 24 681 64 q 440 -17 532 -17 m 451 108 q 578 143 522 108 q 666 238 633 178 q 699 374 699 299 q 666 510 699 450 q 578 606 633 571 q 451 640 522 640 q 326 605 382 640 q 238 510 269 569 q 206 374 206 451 q 238 238 206 299 q 325 143 269 178 q 451 108 381 108 z "},"ḍ":{"ha":929,"x_min":69,"x_max":829,"o":"m 440 -17 q 251 35 335 -17 q 118 175 167 86 q 69 374 69 264 q 118 574 69 486 q 251 714 167 663 q 440 765 335 765 q 606 726 533 765 q 719 619 678 686 l 699 588 l 699 1051 l 829 1051 l 829 0 l 703 0 l 703 160 l 719 138 q 606 24 681 64 q 440 -17 532 -17 m 451 108 q 578 143 522 108 q 666 238 633 178 q 699 374 699 299 q 666 510 699 450 q 578 606 633 571 q 451 640 522 640 q 326 605 382 640 q 238 510 269 569 q 206 374 206 451 q 238 238 206 299 q 325 143 269 178 q 451 108 381 108 m 388 -281 l 388 -125 l 543 -125 l 543 -281 l 388 -281 z "},"ḏ":{"ha":929,"x_min":69,"x_max":829,"o":"m 440 -17 q 251 35 335 -17 q 118 175 167 86 q 69 374 69 264 q 118 574 69 486 q 251 714 167 663 q 440 765 335 765 q 606 726 533 765 q 719 619 678 686 l 699 588 l 699 1051 l 829 1051 l 829 0 l 703 0 l 703 160 l 719 138 q 606 24 681 64 q 440 -17 532 -17 m 451 108 q 578 143 522 108 q 666 238 633 178 q 699 374 699 299 q 666 510 699 450 q 578 606 633 571 q 451 640 522 640 q 326 605 382 640 q 238 510 269 569 q 206 374 206 451 q 238 238 206 299 q 325 143 269 178 q 451 108 381 108 m 267 -253 l 267 -139 l 665 -139 l 665 -253 l 267 -253 z "},"ǆ":{"ha":1567,"x_min":69,"x_max":1540,"o":"m 440 -17 q 251 35 335 -17 q 118 175 167 86 q 69 374 69 264 q 118 574 69 486 q 251 714 167 663 q 440 765 335 765 q 606 726 533 765 q 719 619 678 686 l 699 588 l 699 1051 l 829 1051 l 829 0 l 703 0 l 703 160 l 719 138 q 606 24 681 64 q 440 -17 532 -17 m 451 108 q 578 143 522 108 q 666 238 633 178 q 699 374 699 299 q 666 510 699 450 q 578 606 633 571 q 451 640 522 640 q 326 605 382 640 q 238 510 269 569 q 206 374 206 451 q 238 238 206 299 q 325 143 269 178 q 451 108 381 108 m 956 0 l 956 110 l 1401 672 l 1424 625 l 978 625 l 978 749 l 1539 749 l 1539 639 l 1097 75 l 1075 124 l 1542 124 l 1542 0 l 956 0 m 1169 889 l 1004 1104 l 1146 1104 l 1244 978 l 1343 1104 l 1485 1104 l 1318 889 l 1169 889 z "},"ð":{"ha":908,"x_min":69,"x_max":840,"o":"m 461 -17 q 306 13 378 -17 q 182 94 235 42 q 99 217 129 146 q 69 369 69 288 q 119 565 69 479 q 256 701 169 651 q 450 751 342 751 q 549 739 500 751 q 641 699 597 726 q 718 622 685 671 l 689 563 q 667 701 689 636 q 608 818 646 765 q 517 908 569 871 q 402 966 464 946 q 272 986 340 986 q 194 980 233 986 q 114 960 154 974 l 92 1071 q 285 1104 193 1104 q 481 1069 393 1104 q 636 969 569 1033 q 749 821 703 904 q 817 641 794 738 q 840 443 840 544 q 789 181 840 283 q 652 31 738 79 q 461 -17 567 -17 m 456 108 q 581 143 525 108 q 670 238 638 178 q 703 371 703 297 q 672 499 703 442 q 585 592 640 557 q 456 626 529 626 q 326 592 382 626 q 238 500 269 558 q 206 368 206 442 q 240 235 206 294 q 331 142 274 176 q 456 108 388 108 m 326 806 l 326 888 l 760 1049 l 760 965 l 326 806 z "},"e":{"ha":853,"x_min":69,"x_max":785,"o":"m 444 -17 q 251 35 336 -17 q 118 176 167 86 q 69 376 69 265 q 117 576 69 489 q 248 715 165 664 q 433 765 331 765 q 581 735 517 765 q 691 655 646 706 q 760 540 736 604 q 785 406 785 475 q 783 372 785 390 q 778 336 781 353 l 164 336 l 164 447 l 703 447 l 642 397 q 628 526 654 469 q 550 617 601 583 q 433 650 499 650 q 314 617 368 650 q 230 522 260 583 q 206 375 200 460 q 231 231 200 293 q 320 135 263 169 q 446 101 378 101 q 572 136 521 101 q 656 225 624 171 l 764 169 q 695 76 742 118 q 585 8 649 33 q 444 -17 522 -17 z "},"é":{"ha":853,"x_min":69,"x_max":785,"o":"m 444 -17 q 251 35 336 -17 q 118 176 167 86 q 69 376 69 265 q 117 576 69 489 q 248 715 165 664 q 433 765 331 765 q 581 735 517 765 q 691 655 646 706 q 760 540 736 604 q 785 406 785 475 q 783 372 785 390 q 778 336 781 353 l 164 336 l 164 447 l 703 447 l 642 397 q 628 526 654 469 q 550 617 601 583 q 433 650 499 650 q 314 617 368 650 q 230 522 260 583 q 206 375 200 460 q 231 231 200 293 q 320 135 263 169 q 446 101 378 101 q 572 136 521 101 q 656 225 624 171 l 764 169 q 695 76 742 118 q 585 8 649 33 q 444 -17 522 -17 m 363 889 l 472 1108 l 647 1108 l 492 889 l 363 889 z "},"ĕ":{"ha":853,"x_min":69,"x_max":785,"o":"m 444 -17 q 251 35 336 -17 q 118 176 167 86 q 69 376 69 265 q 117 576 69 489 q 248 715 165 664 q 433 765 331 765 q 581 735 517 765 q 691 655 646 706 q 760 540 736 604 q 785 406 785 475 q 783 372 785 390 q 778 336 781 353 l 164 336 l 164 447 l 703 447 l 642 397 q 628 526 654 469 q 550 617 601 583 q 433 650 499 650 q 314 617 368 650 q 230 522 260 583 q 206 375 200 460 q 231 231 200 293 q 320 135 263 169 q 446 101 378 101 q 572 136 521 101 q 656 225 624 171 l 764 169 q 695 76 742 118 q 585 8 649 33 q 444 -17 522 -17 m 428 890 q 296 919 349 890 q 216 997 243 947 q 189 1106 189 1046 l 315 1106 q 345 1022 315 1051 q 428 993 375 993 q 510 1022 481 993 q 540 1106 540 1051 l 665 1106 q 639 996 665 1044 q 560 919 613 947 q 428 890 507 890 z "},"ě":{"ha":853,"x_min":69,"x_max":785,"o":"m 444 -17 q 251 35 336 -17 q 118 176 167 86 q 69 376 69 265 q 117 576 69 489 q 248 715 165 664 q 433 765 331 765 q 581 735 517 765 q 691 655 646 706 q 760 540 736 604 q 785 406 785 475 q 783 372 785 390 q 778 336 781 353 l 164 336 l 164 447 l 703 447 l 642 397 q 628 526 654 469 q 550 617 601 583 q 433 650 499 650 q 314 617 368 650 q 230 522 260 583 q 206 375 200 460 q 231 231 200 293 q 320 135 263 169 q 446 101 378 101 q 572 136 521 101 q 656 225 624 171 l 764 169 q 695 76 742 118 q 585 8 649 33 q 444 -17 522 -17 m 351 889 l 186 1104 l 328 1104 l 426 978 l 525 1104 l 667 1104 l 500 889 l 351 889 z "},"ḝ":{"ha":853,"x_min":69,"x_max":785,"o":"m 444 -17 q 251 35 336 -17 q 118 176 167 86 q 69 376 69 265 q 117 576 69 489 q 248 715 165 664 q 433 765 331 765 q 581 735 517 765 q 691 655 646 706 q 760 540 736 604 q 785 406 785 475 q 783 372 785 390 q 778 336 781 353 l 164 336 l 164 447 l 703 447 l 642 397 q 628 526 654 469 q 550 617 601 583 q 433 650 499 650 q 314 617 368 650 q 230 522 260 583 q 206 375 200 460 q 231 231 200 293 q 320 135 263 169 q 446 101 378 101 q 572 136 521 101 q 656 225 624 171 l 764 169 q 695 76 742 118 q 585 8 649 33 q 444 -17 522 -17 m 443 -322 q 363 -309 404 -322 q 294 -274 321 -296 l 326 -189 q 374 -217 347 -207 q 425 -226 400 -226 q 474 -212 456 -226 q 492 -174 492 -197 q 460 -126 492 -143 q 358 -100 428 -108 l 390 14 l 475 14 l 460 -49 q 570 -97 532 -62 q 608 -182 608 -132 q 562 -283 608 -244 q 443 -322 515 -322 m 428 890 q 296 919 349 890 q 216 997 243 947 q 189 1106 189 1046 l 315 1106 q 345 1022 315 1051 q 428 993 375 993 q 510 1022 481 993 q 540 1106 540 1051 l 665 1106 q 639 996 665 1044 q 560 919 613 947 q 428 890 507 890 z "},"ê":{"ha":853,"x_min":69,"x_max":785,"o":"m 444 -17 q 251 35 336 -17 q 118 176 167 86 q 69 376 69 265 q 117 576 69 489 q 248 715 165 664 q 433 765 331 765 q 581 735 517 765 q 691 655 646 706 q 760 540 736 604 q 785 406 785 475 q 783 372 785 390 q 778 336 781 353 l 164 336 l 164 447 l 703 447 l 642 397 q 628 526 654 469 q 550 617 601 583 q 433 650 499 650 q 314 617 368 650 q 230 522 260 583 q 206 375 200 460 q 231 231 200 293 q 320 135 263 169 q 446 101 378 101 q 572 136 521 101 q 656 225 624 171 l 764 169 q 695 76 742 118 q 585 8 649 33 q 444 -17 522 -17 m 188 889 l 353 1104 l 501 1104 l 668 889 l 526 889 l 428 1015 l 329 889 l 188 889 z "},"ế":{"ha":853,"x_min":69,"x_max":858,"o":"m 444 -17 q 251 35 336 -17 q 118 176 167 86 q 69 376 69 265 q 117 576 69 489 q 248 715 165 664 q 433 765 331 765 q 581 735 517 765 q 691 655 646 706 q 760 540 736 604 q 785 406 785 475 q 783 372 785 390 q 778 336 781 353 l 164 336 l 164 447 l 703 447 l 642 397 q 628 526 654 469 q 550 617 601 583 q 433 650 499 650 q 314 617 368 650 q 230 522 260 583 q 206 375 200 460 q 231 231 200 293 q 320 135 263 169 q 446 101 378 101 q 572 136 521 101 q 656 225 624 171 l 764 169 q 695 76 742 118 q 585 8 649 33 q 444 -17 522 -17 m 188 889 l 353 1090 l 501 1090 l 668 889 l 526 889 l 428 1001 l 329 889 l 188 889 m 611 990 l 694 1178 l 858 1178 l 731 990 l 611 990 z "},"ệ":{"ha":853,"x_min":69,"x_max":785,"o":"m 444 -17 q 251 35 336 -17 q 118 176 167 86 q 69 376 69 265 q 117 576 69 489 q 248 715 165 664 q 433 765 331 765 q 581 735 517 765 q 691 655 646 706 q 760 540 736 604 q 785 406 785 475 q 783 372 785 390 q 778 336 781 353 l 164 336 l 164 447 l 703 447 l 642 397 q 628 526 654 469 q 550 617 601 583 q 433 650 499 650 q 314 617 368 650 q 230 522 260 583 q 206 375 200 460 q 231 231 200 293 q 320 135 263 169 q 446 101 378 101 q 572 136 521 101 q 656 225 624 171 l 764 169 q 695 76 742 118 q 585 8 649 33 q 444 -17 522 -17 m 350 -281 l 350 -125 l 506 -125 l 506 -281 l 350 -281 m 188 889 l 353 1104 l 501 1104 l 668 889 l 526 889 l 428 1015 l 329 889 l 188 889 z "},"ề":{"ha":853,"x_min":69,"x_max":814,"o":"m 444 -17 q 251 35 336 -17 q 118 176 167 86 q 69 376 69 265 q 117 576 69 489 q 248 715 165 664 q 433 765 331 765 q 581 735 517 765 q 691 655 646 706 q 760 540 736 604 q 785 406 785 475 q 783 372 785 390 q 778 336 781 353 l 164 336 l 164 447 l 703 447 l 642 397 q 628 526 654 469 q 550 617 601 583 q 433 650 499 650 q 314 617 368 650 q 230 522 260 583 q 206 375 200 460 q 231 231 200 293 q 320 135 263 169 q 446 101 378 101 q 572 136 521 101 q 656 225 624 171 l 764 169 q 695 76 742 118 q 585 8 649 33 q 444 -17 522 -17 m 188 889 l 353 1090 l 501 1090 l 668 889 l 526 889 l 428 1001 l 329 889 l 188 889 m 694 990 l 567 1178 l 731 1178 l 814 990 l 694 990 z "},"ể":{"ha":853,"x_min":69,"x_max":785,"o":"m 444 -17 q 251 35 336 -17 q 118 176 167 86 q 69 376 69 265 q 117 576 69 489 q 248 715 165 664 q 433 765 331 765 q 581 735 517 765 q 691 655 646 706 q 760 540 736 604 q 785 406 785 475 q 783 372 785 390 q 778 336 781 353 l 164 336 l 164 447 l 703 447 l 642 397 q 628 526 654 469 q 550 617 601 583 q 433 650 499 650 q 314 617 368 650 q 230 522 260 583 q 206 375 200 460 q 231 231 200 293 q 320 135 263 169 q 446 101 378 101 q 572 136 521 101 q 656 225 624 171 l 764 169 q 695 76 742 118 q 585 8 649 33 q 444 -17 522 -17 m 188 889 l 353 1090 l 501 1090 l 668 889 l 526 889 l 428 1001 l 329 889 l 188 889 m 653 986 l 599 1056 q 649 1088 633 1069 q 665 1133 665 1107 q 646 1174 665 1157 q 593 1190 626 1190 q 562 1188 578 1190 q 524 1175 546 1185 l 506 1257 q 559 1276 532 1271 q 611 1282 586 1282 q 734 1243 688 1282 q 781 1142 781 1204 q 745 1051 781 1093 q 653 986 710 1010 z "},"ễ":{"ha":853,"x_min":69,"x_max":785,"o":"m 444 -17 q 251 35 336 -17 q 118 176 167 86 q 69 376 69 265 q 117 576 69 489 q 248 715 165 664 q 433 765 331 765 q 581 735 517 765 q 691 655 646 706 q 760 540 736 604 q 785 406 785 475 q 783 372 785 390 q 778 336 781 353 l 164 336 l 164 447 l 703 447 l 642 397 q 628 526 654 469 q 550 617 601 583 q 433 650 499 650 q 314 617 368 650 q 230 522 260 583 q 206 375 200 460 q 231 231 200 293 q 320 135 263 169 q 446 101 378 101 q 572 136 521 101 q 656 225 624 171 l 764 169 q 695 76 742 118 q 585 8 649 33 q 444 -17 522 -17 m 186 889 l 351 1090 l 501 1090 l 668 889 l 526 889 l 426 1001 l 328 889 l 186 889 m 503 1176 q 454 1190 474 1176 q 420 1219 435 1203 q 392 1248 406 1235 q 360 1261 379 1261 q 331 1242 342 1261 q 321 1182 321 1224 l 219 1182 q 237 1285 219 1244 q 283 1347 254 1326 q 349 1368 313 1368 q 400 1356 381 1368 q 434 1326 419 1343 q 463 1297 449 1310 q 494 1285 476 1285 q 524 1306 515 1285 q 533 1363 533 1326 l 636 1363 q 597 1226 635 1276 q 503 1176 558 1176 z "},"ȅ":{"ha":853,"x_min":69,"x_max":785,"o":"m 444 -17 q 251 35 336 -17 q 118 176 167 86 q 69 376 69 265 q 117 576 69 489 q 248 715 165 664 q 433 765 331 765 q 581 735 517 765 q 691 655 646 706 q 760 540 736 604 q 785 406 785 475 q 783 372 785 390 q 778 336 781 353 l 164 336 l 164 447 l 703 447 l 642 397 q 628 526 654 469 q 550 617 601 583 q 433 650 499 650 q 314 617 368 650 q 230 522 260 583 q 206 375 200 460 q 231 231 200 293 q 320 135 263 169 q 446 101 378 101 q 572 136 521 101 q 656 225 624 171 l 764 169 q 695 76 742 118 q 585 8 649 33 q 444 -17 522 -17 m 242 889 l 88 1110 l 251 1110 l 361 889 l 242 889 m 493 889 l 338 1110 l 501 1110 l 613 889 l 493 889 z "},"ë":{"ha":853,"x_min":69,"x_max":785,"o":"m 444 -17 q 251 35 336 -17 q 118 176 167 86 q 69 376 69 265 q 117 576 69 489 q 248 715 165 664 q 433 765 331 765 q 581 735 517 765 q 691 655 646 706 q 760 540 736 604 q 785 406 785 475 q 783 372 785 390 q 778 336 781 353 l 164 336 l 164 447 l 703 447 l 642 397 q 628 526 654 469 q 550 617 601 583 q 433 650 499 650 q 314 617 368 650 q 230 522 260 583 q 206 375 200 460 q 231 231 200 293 q 320 135 263 169 q 446 101 378 101 q 572 136 521 101 q 656 225 624 171 l 764 169 q 695 76 742 118 q 585 8 649 33 q 444 -17 522 -17 m 217 889 l 217 1046 l 372 1046 l 372 889 l 217 889 m 483 889 l 483 1046 l 640 1046 l 640 889 l 483 889 z "},"ė":{"ha":853,"x_min":69,"x_max":785,"o":"m 444 -17 q 251 35 336 -17 q 118 176 167 86 q 69 376 69 265 q 117 576 69 489 q 248 715 165 664 q 433 765 331 765 q 581 735 517 765 q 691 655 646 706 q 760 540 736 604 q 785 406 785 475 q 783 372 785 390 q 778 336 781 353 l 164 336 l 164 447 l 703 447 l 642 397 q 628 526 654 469 q 550 617 601 583 q 433 650 499 650 q 314 617 368 650 q 230 522 260 583 q 206 375 200 460 q 231 231 200 293 q 320 135 263 169 q 446 101 378 101 q 572 136 521 101 q 656 225 624 171 l 764 169 q 695 76 742 118 q 585 8 649 33 q 444 -17 522 -17 m 350 889 l 350 1046 l 506 1046 l 506 889 l 350 889 z "},"ẹ":{"ha":853,"x_min":69,"x_max":785,"o":"m 444 -17 q 251 35 336 -17 q 118 176 167 86 q 69 376 69 265 q 117 576 69 489 q 248 715 165 664 q 433 765 331 765 q 581 735 517 765 q 691 655 646 706 q 760 540 736 604 q 785 406 785 475 q 783 372 785 390 q 778 336 781 353 l 164 336 l 164 447 l 703 447 l 642 397 q 628 526 654 469 q 550 617 601 583 q 433 650 499 650 q 314 617 368 650 q 230 522 260 583 q 206 375 200 460 q 231 231 200 293 q 320 135 263 169 q 446 101 378 101 q 572 136 521 101 q 656 225 624 171 l 764 169 q 695 76 742 118 q 585 8 649 33 q 444 -17 522 -17 m 350 -281 l 350 -125 l 506 -125 l 506 -281 l 350 -281 z "},"è":{"ha":853,"x_min":69,"x_max":785,"o":"m 444 -17 q 251 35 336 -17 q 118 176 167 86 q 69 376 69 265 q 117 576 69 489 q 248 715 165 664 q 433 765 331 765 q 581 735 517 765 q 691 655 646 706 q 760 540 736 604 q 785 406 785 475 q 783 372 785 390 q 778 336 781 353 l 164 336 l 164 447 l 703 447 l 642 397 q 628 526 654 469 q 550 617 601 583 q 433 650 499 650 q 314 617 368 650 q 230 522 260 583 q 206 375 200 460 q 231 231 200 293 q 320 135 263 169 q 446 101 378 101 q 572 136 521 101 q 656 225 624 171 l 764 169 q 695 76 742 118 q 585 8 649 33 q 444 -17 522 -17 m 363 889 l 208 1108 l 382 1108 l 493 889 l 363 889 z "},"ẻ":{"ha":853,"x_min":69,"x_max":785,"o":"m 444 -17 q 251 35 336 -17 q 118 176 167 86 q 69 376 69 265 q 117 576 69 489 q 248 715 165 664 q 433 765 331 765 q 581 735 517 765 q 691 655 646 706 q 760 540 736 604 q 785 406 785 475 q 783 372 785 390 q 778 336 781 353 l 164 336 l 164 447 l 703 447 l 642 397 q 628 526 654 469 q 550 617 601 583 q 433 650 499 650 q 314 617 368 650 q 230 522 260 583 q 206 375 200 460 q 231 231 200 293 q 320 135 263 169 q 446 101 378 101 q 572 136 521 101 q 656 225 624 171 l 764 169 q 695 76 742 118 q 585 8 649 33 q 444 -17 522 -17 m 438 833 l 381 906 q 433 939 417 919 q 449 985 449 958 q 428 1026 449 1010 q 375 1043 408 1043 q 342 1040 358 1043 q 304 1028 326 1038 l 286 1113 q 340 1133 313 1128 q 394 1138 368 1138 q 520 1098 472 1138 q 568 994 568 1058 q 532 901 568 943 q 438 833 496 858 z "},"ȇ":{"ha":853,"x_min":69,"x_max":785,"o":"m 444 -17 q 251 35 336 -17 q 118 176 167 86 q 69 376 69 265 q 117 576 69 489 q 248 715 165 664 q 433 765 331 765 q 581 735 517 765 q 691 655 646 706 q 760 540 736 604 q 785 406 785 475 q 783 372 785 390 q 778 336 781 353 l 164 336 l 164 447 l 703 447 l 642 397 q 628 526 654 469 q 550 617 601 583 q 433 650 499 650 q 314 617 368 650 q 230 522 260 583 q 206 375 200 460 q 231 231 200 293 q 320 135 263 169 q 446 101 378 101 q 572 136 521 101 q 656 225 624 171 l 764 169 q 695 76 742 118 q 585 8 649 33 q 444 -17 522 -17 m 189 889 q 216 998 189 949 q 296 1076 243 1047 q 428 1104 349 1104 q 560 1076 507 1104 q 639 999 613 1047 q 665 889 665 951 l 540 889 q 510 972 540 943 q 428 1001 481 1001 q 345 972 375 1001 q 315 889 315 943 l 189 889 z "},"ē":{"ha":853,"x_min":69,"x_max":785,"o":"m 444 -17 q 251 35 336 -17 q 118 176 167 86 q 69 376 69 265 q 117 576 69 489 q 248 715 165 664 q 433 765 331 765 q 581 735 517 765 q 691 655 646 706 q 760 540 736 604 q 785 406 785 475 q 783 372 785 390 q 778 336 781 353 l 164 336 l 164 447 l 703 447 l 642 397 q 628 526 654 469 q 550 617 601 583 q 433 650 499 650 q 314 617 368 650 q 230 522 260 583 q 206 375 200 460 q 231 231 200 293 q 320 135 263 169 q 446 101 378 101 q 572 136 521 101 q 656 225 624 171 l 764 169 q 695 76 742 118 q 585 8 649 33 q 444 -17 522 -17 m 228 917 l 228 1032 l 626 1032 l 626 917 l 228 917 z "},"ḗ":{"ha":853,"x_min":69,"x_max":785,"o":"m 444 -17 q 251 35 336 -17 q 118 176 167 86 q 69 376 69 265 q 117 576 69 489 q 248 715 165 664 q 433 765 331 765 q 581 735 517 765 q 691 655 646 706 q 760 540 736 604 q 785 406 785 475 q 783 372 785 390 q 778 336 781 353 l 164 336 l 164 447 l 703 447 l 642 397 q 628 526 654 469 q 550 617 601 583 q 433 650 499 650 q 314 617 368 650 q 230 522 260 583 q 206 375 200 460 q 231 231 200 293 q 320 135 263 169 q 446 101 378 101 q 572 136 521 101 q 656 225 624 171 l 764 169 q 695 76 742 118 q 585 8 649 33 q 444 -17 522 -17 m 353 1125 l 464 1344 l 639 1344 l 483 1125 l 353 1125 m 219 917 l 219 1032 l 618 1032 l 618 917 l 219 917 z "},"ḕ":{"ha":853,"x_min":69,"x_max":785,"o":"m 444 -17 q 251 35 336 -17 q 118 176 167 86 q 69 376 69 265 q 117 576 69 489 q 248 715 165 664 q 433 765 331 765 q 581 735 517 765 q 691 655 646 706 q 760 540 736 604 q 785 406 785 475 q 783 372 785 390 q 778 336 781 353 l 164 336 l 164 447 l 703 447 l 642 397 q 628 526 654 469 q 550 617 601 583 q 433 650 499 650 q 314 617 368 650 q 230 522 260 583 q 206 375 200 460 q 231 231 200 293 q 320 135 263 169 q 446 101 378 101 q 572 136 521 101 q 656 225 624 171 l 764 169 q 695 76 742 118 q 585 8 649 33 q 444 -17 522 -17 m 228 917 l 228 1032 l 628 1032 l 628 917 l 228 917 m 363 1125 l 208 1344 l 382 1344 l 493 1125 l 363 1125 z "},"ę":{"ha":853,"x_min":69,"x_max":785,"o":"m 444 -17 q 251 35 336 -17 q 118 176 167 86 q 69 376 69 265 q 117 576 69 489 q 248 715 165 664 q 433 765 331 765 q 581 735 517 765 q 691 655 646 706 q 760 540 736 604 q 785 406 785 475 q 783 372 785 390 q 778 336 781 353 l 164 336 l 164 447 l 703 447 l 642 397 q 628 526 654 469 q 550 617 601 583 q 433 650 499 650 q 314 617 368 650 q 230 522 260 583 q 206 375 200 460 q 231 231 200 293 q 320 135 263 169 q 446 101 378 101 q 572 136 521 101 q 656 225 624 171 l 764 169 q 695 76 742 118 q 585 8 649 33 q 444 -17 522 -17 m 404 -322 q 278 -281 325 -322 q 232 -174 232 -239 q 256 -80 232 -122 q 324 -7 281 -37 q 422 36 368 24 l 465 36 l 465 0 q 410 -29 438 -7 q 365 -84 383 -51 q 347 -158 347 -117 q 369 -206 347 -186 q 424 -226 390 -226 q 473 -217 449 -226 q 517 -189 497 -207 l 550 -274 q 485 -309 524 -296 q 404 -322 447 -322 z "},"ẽ":{"ha":853,"x_min":69,"x_max":785,"o":"m 444 -17 q 251 35 336 -17 q 118 176 167 86 q 69 376 69 265 q 117 576 69 489 q 248 715 165 664 q 433 765 331 765 q 581 735 517 765 q 691 655 646 706 q 760 540 736 604 q 785 406 785 475 q 783 372 785 390 q 778 336 781 353 l 164 336 l 164 447 l 703 447 l 642 397 q 628 526 654 469 q 550 617 601 583 q 433 650 499 650 q 314 617 368 650 q 230 522 260 583 q 206 375 200 460 q 231 231 200 293 q 320 135 263 169 q 446 101 378 101 q 572 136 521 101 q 656 225 624 171 l 764 169 q 695 76 742 118 q 585 8 649 33 q 444 -17 522 -17 m 515 889 q 455 901 478 889 q 415 931 432 914 q 382 960 399 947 q 342 972 365 972 q 306 955 319 972 q 293 894 293 938 l 189 894 q 230 1034 189 988 q 336 1081 271 1081 q 397 1068 374 1081 q 438 1039 421 1056 q 470 1010 454 1022 q 510 997 486 997 q 549 1017 535 997 q 563 1075 563 1038 l 665 1075 q 624 939 665 989 q 515 889 582 889 z "},"ə":{"ha":853,"x_min":69,"x_max":785,"o":"m 419 -17 q 272 13 338 -17 q 162 94 207 43 q 93 208 117 144 q 69 343 69 272 q 71 377 69 358 q 75 413 72 396 l 689 413 l 689 301 l 150 301 l 213 351 q 226 222 200 279 q 303 132 251 165 q 419 99 356 99 q 540 132 486 99 q 624 227 593 165 q 647 374 654 289 q 622 518 654 457 q 533 613 590 579 q 407 647 476 647 q 282 613 333 647 q 197 524 231 578 l 89 579 q 158 674 113 632 q 268 740 204 715 q 408 765 332 765 q 601 714 517 765 q 735 574 686 663 q 785 372 785 485 q 737 172 785 260 q 606 34 689 85 q 419 -17 524 -17 z "},"f":{"ha":551,"x_min":36,"x_max":506,"o":"m 179 0 l 179 625 l 36 625 l 36 749 l 179 749 l 179 801 q 215 938 179 882 q 309 1022 250 993 q 440 1051 368 1051 q 474 1049 456 1051 q 506 1044 493 1047 l 506 929 q 479 933 494 932 q 456 933 464 933 q 351 903 392 933 q 310 801 310 872 l 310 749 l 488 749 l 488 625 l 310 625 l 310 0 l 179 0 z "},"g":{"ha":915,"x_min":69,"x_max":815,"o":"m 457 -306 q 310 -281 378 -306 q 195 -212 243 -256 q 122 -110 147 -168 l 243 -54 q 317 -144 263 -107 q 456 -181 372 -181 q 572 -156 519 -181 q 654 -84 624 -132 q 685 32 685 -36 l 685 200 l 708 175 q 597 58 669 99 q 436 18 524 18 q 247 67 331 18 q 117 202 164 117 q 69 392 69 288 q 117 582 69 497 q 247 716 164 667 q 435 765 329 765 q 594 726 522 765 q 708 617 665 686 l 689 582 l 689 749 l 815 749 l 815 32 q 769 -142 815 -65 q 642 -262 724 -218 q 457 -306 561 -306 m 447 143 q 567 176 514 143 q 653 266 621 210 q 685 392 685 322 q 653 517 685 460 q 567 607 621 574 q 447 640 514 640 q 324 607 379 640 q 237 517 268 574 q 206 392 206 461 q 237 266 206 322 q 323 176 268 210 q 447 143 378 143 z "},"ğ":{"ha":915,"x_min":69,"x_max":815,"o":"m 457 -306 q 310 -281 378 -306 q 195 -212 243 -256 q 122 -110 147 -168 l 243 -54 q 317 -144 263 -107 q 456 -181 372 -181 q 572 -156 519 -181 q 654 -84 624 -132 q 685 32 685 -36 l 685 200 l 708 175 q 597 58 669 99 q 436 18 524 18 q 247 67 331 18 q 117 202 164 117 q 69 392 69 288 q 117 582 69 497 q 247 716 164 667 q 435 765 329 765 q 594 726 522 765 q 708 617 665 686 l 689 582 l 689 749 l 815 749 l 815 32 q 769 -142 815 -65 q 642 -262 724 -218 q 457 -306 561 -306 m 447 143 q 567 176 514 143 q 653 266 621 210 q 685 392 685 322 q 653 517 685 460 q 567 607 621 574 q 447 640 514 640 q 324 607 379 640 q 237 517 268 574 q 206 392 206 461 q 237 266 206 322 q 323 176 268 210 q 447 143 378 143 m 458 890 q 326 919 379 890 q 247 997 274 947 q 219 1106 219 1046 l 346 1106 q 376 1022 346 1051 q 458 993 406 993 q 541 1022 511 993 q 571 1106 571 1051 l 696 1106 q 669 996 696 1044 q 590 919 643 947 q 458 890 538 890 z "},"ǧ":{"ha":915,"x_min":69,"x_max":815,"o":"m 457 -306 q 310 -281 378 -306 q 195 -212 243 -256 q 122 -110 147 -168 l 243 -54 q 317 -144 263 -107 q 456 -181 372 -181 q 572 -156 519 -181 q 654 -84 624 -132 q 685 32 685 -36 l 685 200 l 708 175 q 597 58 669 99 q 436 18 524 18 q 247 67 331 18 q 117 202 164 117 q 69 392 69 288 q 117 582 69 497 q 247 716 164 667 q 435 765 329 765 q 594 726 522 765 q 708 617 665 686 l 689 582 l 689 749 l 815 749 l 815 32 q 769 -142 815 -65 q 642 -262 724 -218 q 457 -306 561 -306 m 447 143 q 567 176 514 143 q 653 266 621 210 q 685 392 685 322 q 653 517 685 460 q 567 607 621 574 q 447 640 514 640 q 324 607 379 640 q 237 517 268 574 q 206 392 206 461 q 237 266 206 322 q 323 176 268 210 q 447 143 378 143 m 382 889 l 217 1104 l 358 1104 l 457 978 l 556 1104 l 697 1104 l 531 889 l 382 889 z "},"ĝ":{"ha":915,"x_min":69,"x_max":815,"o":"m 457 -306 q 310 -281 378 -306 q 195 -212 243 -256 q 122 -110 147 -168 l 243 -54 q 317 -144 263 -107 q 456 -181 372 -181 q 572 -156 519 -181 q 654 -84 624 -132 q 685 32 685 -36 l 685 200 l 708 175 q 597 58 669 99 q 436 18 524 18 q 247 67 331 18 q 117 202 164 117 q 69 392 69 288 q 117 582 69 497 q 247 716 164 667 q 435 765 329 765 q 594 726 522 765 q 708 617 665 686 l 689 582 l 689 749 l 815 749 l 815 32 q 769 -142 815 -65 q 642 -262 724 -218 q 457 -306 561 -306 m 447 143 q 567 176 514 143 q 653 266 621 210 q 685 392 685 322 q 653 517 685 460 q 567 607 621 574 q 447 640 514 640 q 324 607 379 640 q 237 517 268 574 q 206 392 206 461 q 237 266 206 322 q 323 176 268 210 q 447 143 378 143 m 218 889 l 383 1104 l 532 1104 l 699 889 l 557 889 l 458 1015 l 360 889 l 218 889 z "},"ģ":{"ha":915,"x_min":69,"x_max":815,"o":"m 457 -306 q 310 -281 378 -306 q 195 -212 243 -256 q 122 -110 147 -168 l 243 -54 q 317 -144 263 -107 q 456 -181 372 -181 q 572 -156 519 -181 q 654 -84 624 -132 q 685 32 685 -36 l 685 200 l 708 175 q 597 58 669 99 q 436 18 524 18 q 247 67 331 18 q 117 202 164 117 q 69 392 69 288 q 117 582 69 497 q 247 716 164 667 q 435 765 329 765 q 594 726 522 765 q 708 617 665 686 l 689 582 l 689 749 l 815 749 l 815 32 q 769 -142 815 -65 q 642 -262 724 -218 q 457 -306 561 -306 m 447 143 q 567 176 514 143 q 653 266 621 210 q 685 392 685 322 q 653 517 685 460 q 567 607 621 574 q 447 640 514 640 q 324 607 379 640 q 237 517 268 574 q 206 392 206 461 q 237 266 206 322 q 323 176 268 210 q 447 143 378 143 m 369 853 l 463 1097 l 583 1097 l 529 853 l 369 853 z "},"ġ":{"ha":915,"x_min":69,"x_max":815,"o":"m 457 -306 q 310 -281 378 -306 q 195 -212 243 -256 q 122 -110 147 -168 l 243 -54 q 317 -144 263 -107 q 456 -181 372 -181 q 572 -156 519 -181 q 654 -84 624 -132 q 685 32 685 -36 l 685 200 l 708 175 q 597 58 669 99 q 436 18 524 18 q 247 67 331 18 q 117 202 164 117 q 69 392 69 288 q 117 582 69 497 q 247 716 164 667 q 435 765 329 765 q 594 726 522 765 q 708 617 665 686 l 689 582 l 689 749 l 815 749 l 815 32 q 769 -142 815 -65 q 642 -262 724 -218 q 457 -306 561 -306 m 447 143 q 567 176 514 143 q 653 266 621 210 q 685 392 685 322 q 653 517 685 460 q 567 607 621 574 q 447 640 514 640 q 324 607 379 640 q 237 517 268 574 q 206 392 206 461 q 237 266 206 322 q 323 176 268 210 q 447 143 378 143 m 381 889 l 381 1046 l 536 1046 l 536 889 l 381 889 z "},"ḡ":{"ha":915,"x_min":69,"x_max":815,"o":"m 457 -306 q 310 -281 378 -306 q 195 -212 243 -256 q 122 -110 147 -168 l 243 -54 q 317 -144 263 -107 q 456 -181 372 -181 q 572 -156 519 -181 q 654 -84 624 -132 q 685 32 685 -36 l 685 200 l 708 175 q 597 58 669 99 q 436 18 524 18 q 247 67 331 18 q 117 202 164 117 q 69 392 69 288 q 117 582 69 497 q 247 716 164 667 q 435 765 329 765 q 594 726 522 765 q 708 617 665 686 l 689 582 l 689 749 l 815 749 l 815 32 q 769 -142 815 -65 q 642 -262 724 -218 q 457 -306 561 -306 m 447 143 q 567 176 514 143 q 653 266 621 210 q 685 392 685 322 q 653 517 685 460 q 567 607 621 574 q 447 640 514 640 q 324 607 379 640 q 237 517 268 574 q 206 392 206 461 q 237 266 206 322 q 323 176 268 210 q 447 143 378 143 m 258 917 l 258 1032 l 657 1032 l 657 917 l 258 917 z "},"h":{"ha":806,"x_min":100,"x_max":721,"o":"m 100 0 l 100 1051 l 229 1051 l 229 603 l 206 615 q 295 726 233 686 q 440 765 357 765 q 584 729 521 765 q 684 629 647 693 q 721 485 721 565 l 721 0 l 590 0 l 590 443 q 567 549 590 506 q 504 616 544 592 q 411 640 464 640 q 318 616 360 640 q 253 548 276 592 q 229 443 229 504 l 229 0 l 100 0 z "},"ħ":{"ha":806,"x_min":-33,"x_max":721,"o":"m -33 833 l -33 944 l 363 944 l 363 833 l -33 833 m 100 0 l 100 1051 l 229 1051 l 229 603 l 206 615 q 295 726 233 686 q 440 765 357 765 q 584 729 521 765 q 684 629 647 693 q 721 485 721 565 l 721 0 l 590 0 l 590 443 q 567 549 590 506 q 504 616 544 592 q 411 640 464 640 q 318 616 360 640 q 253 548 276 592 q 229 443 229 504 l 229 0 l 100 0 z "},"ḫ":{"ha":806,"x_min":100,"x_max":721,"o":"m 100 0 l 100 1051 l 229 1051 l 229 603 l 206 615 q 295 726 233 686 q 440 765 357 765 q 584 729 521 765 q 684 629 647 693 q 721 485 721 565 l 721 0 l 590 0 l 590 443 q 567 549 590 506 q 504 616 544 592 q 411 640 464 640 q 318 616 360 640 q 253 548 276 592 q 229 443 229 504 l 229 0 l 100 0 m 404 -340 q 272 -312 325 -340 q 192 -234 219 -283 q 165 -125 165 -185 l 292 -125 q 322 -208 292 -179 q 404 -237 351 -237 q 487 -208 457 -237 q 517 -125 517 -179 l 642 -125 q 615 -235 642 -186 q 536 -312 589 -283 q 404 -340 483 -340 z "},"ĥ":{"ha":806,"x_min":-75,"x_max":721,"o":"m 100 0 l 100 1051 l 229 1051 l 229 603 l 206 615 q 295 726 233 686 q 440 765 357 765 q 584 729 521 765 q 684 629 647 693 q 721 485 721 565 l 721 0 l 590 0 l 590 443 q 567 549 590 506 q 504 616 544 592 q 411 640 464 640 q 318 616 360 640 q 253 548 276 592 q 229 443 229 504 l 229 0 l 100 0 m -75 1176 l 90 1392 l 239 1392 l 406 1176 l 264 1176 l 165 1303 l 67 1176 l -75 1176 z "},"ḥ":{"ha":806,"x_min":100,"x_max":721,"o":"m 100 0 l 100 1051 l 229 1051 l 229 603 l 206 615 q 295 726 233 686 q 440 765 357 765 q 584 729 521 765 q 684 629 647 693 q 721 485 721 565 l 721 0 l 590 0 l 590 443 q 567 549 590 506 q 504 616 544 592 q 411 640 464 640 q 318 616 360 640 q 253 548 276 592 q 229 443 229 504 l 229 0 l 100 0 m 326 -281 l 326 -125 l 482 -125 l 482 -281 l 326 -281 z "},"i":{"ha":329,"x_min":100,"x_max":229,"o":"m 100 0 l 100 749 l 229 749 l 229 0 l 100 0 m 100 868 l 100 1035 l 229 1035 l 229 868 l 100 868 z "},"ı":{"ha":290,"x_min":81,"x_max":210,"o":"m 81 0 l 81 749 l 210 749 l 210 0 l 81 0 z "},"í":{"ha":290,"x_min":79,"x_max":364,"o":"m 81 0 l 81 749 l 210 749 l 210 0 l 81 0 m 81 889 l 190 1108 l 365 1108 l 210 889 l 81 889 z "},"ĭ":{"ha":290,"x_min":-94,"x_max":383,"o":"m 81 0 l 81 749 l 210 749 l 210 0 l 81 0 m 144 890 q 13 919 65 890 q -67 997 -40 947 q -94 1106 -94 1046 l 32 1106 q 62 1022 32 1051 q 144 993 92 993 q 227 1022 197 993 q 257 1106 257 1051 l 382 1106 q 356 996 382 1044 q 276 919 329 947 q 144 890 224 890 z "},"î":{"ha":290,"x_min":-96,"x_max":386,"o":"m 81 0 l 81 749 l 210 749 l 210 0 l 81 0 m -94 889 l 71 1104 l 219 1104 l 386 889 l 244 889 l 146 1015 l 47 889 l -94 889 z "},"ȉ":{"ha":290,"x_min":-196,"x_max":329,"o":"m 81 0 l 81 749 l 210 749 l 210 0 l 81 0 m -40 889 l -194 1110 l -31 1110 l 79 889 l -40 889 m 211 889 l 56 1110 l 219 1110 l 331 889 l 211 889 z "},"ï":{"ha":290,"x_min":-67,"x_max":357,"o":"m 81 0 l 81 749 l 210 749 l 210 0 l 81 0 m -67 889 l -67 1046 l 89 1046 l 89 889 l -67 889 m 200 889 l 200 1046 l 357 1046 l 357 889 l 200 889 z "},"ḯ":{"ha":290,"x_min":-72,"x_max":358,"o":"m 81 0 l 81 749 l 210 749 l 210 0 l 81 0 m 72 1125 l 183 1344 l 357 1344 l 203 1125 l 72 1125 m -72 889 l -72 1046 l 83 1046 l 83 889 l -72 889 m 194 889 l 194 1046 l 351 1046 l 351 889 l 194 889 z "},"ị":{"ha":329,"x_min":88,"x_max":243,"o":"m 100 0 l 100 749 l 229 749 l 229 0 l 100 0 m 100 868 l 100 1035 l 229 1035 l 229 868 l 100 868 m 88 -281 l 88 -125 l 243 -125 l 243 -281 l 88 -281 z "},"ì":{"ha":290,"x_min":-75,"x_max":210,"o":"m 81 0 l 81 749 l 210 749 l 210 0 l 81 0 m 79 889 l -75 1108 l 99 1108 l 210 889 l 79 889 z "},"ỉ":{"ha":290,"x_min":3,"x_max":285,"o":"m 81 0 l 81 749 l 210 749 l 210 0 l 81 0 m 156 833 l 99 906 q 151 939 135 919 q 167 985 167 958 q 147 1026 167 1010 q 93 1043 126 1043 q 60 1040 76 1043 q 22 1028 44 1038 l 4 1113 q 58 1133 31 1128 q 113 1138 86 1138 q 238 1098 190 1138 q 286 994 286 1058 q 250 901 286 943 q 156 833 214 858 z "},"ȋ":{"ha":290,"x_min":-94,"x_max":383,"o":"m 81 0 l 81 749 l 210 749 l 210 0 l 81 0 m -94 889 q -67 998 -94 949 q 13 1076 -40 1047 q 144 1104 65 1104 q 276 1076 224 1104 q 356 999 329 1047 q 382 889 382 951 l 257 889 q 227 972 257 943 q 144 1001 197 1001 q 62 972 92 1001 q 32 889 32 943 l -94 889 z "},"ī":{"ha":290,"x_min":-56,"x_max":344,"o":"m 81 0 l 81 749 l 210 749 l 210 0 l 81 0 m -54 917 l -54 1032 l 344 1032 l 344 917 l -54 917 z "},"į":{"ha":290,"x_min":-40,"x_max":279,"o":"m 81 0 l 81 749 l 210 749 l 210 0 l 81 0 m 67 889 l 67 1046 l 222 1046 l 222 889 l 67 889 m 133 -322 q 8 -281 54 -322 q -39 -174 -39 -239 q -15 -80 -39 -122 q 53 -7 10 -37 q 151 36 97 24 l 194 36 l 194 0 q 140 -29 167 -7 q 94 -84 113 -51 q 76 -158 76 -117 q 98 -206 76 -186 q 153 -226 119 -226 q 202 -217 178 -226 q 246 -189 226 -207 l 279 -274 q 215 -309 253 -296 q 133 -322 176 -322 z "},"ĩ":{"ha":290,"x_min":-94,"x_max":383,"o":"m 81 0 l 81 749 l 210 749 l 210 0 l 81 0 m 233 889 q 173 901 196 889 q 133 931 150 914 q 100 960 117 947 q 60 972 83 972 q 24 955 38 972 q 11 894 11 938 l -93 894 q -52 1034 -93 988 q 54 1081 -11 1081 q 115 1068 92 1081 q 156 1039 139 1056 q 188 1010 172 1022 q 228 997 204 997 q 267 1017 253 997 q 281 1075 281 1038 l 383 1075 q 342 939 383 989 q 233 889 300 889 z "},"ĳ":{"ha":658,"x_min":100,"x_max":558,"o":"m 100 0 l 100 749 l 229 749 l 229 0 l 100 0 m 100 868 l 100 1035 l 229 1035 l 229 868 l 100 868 m 301 -306 q 271 -304 289 -306 q 242 -300 253 -303 l 242 -183 q 297 -187 269 -187 q 392 -156 354 -187 q 429 -58 429 -124 l 429 749 l 558 749 l 558 -58 q 525 -194 558 -139 q 433 -277 492 -249 q 301 -306 375 -306 m 429 868 l 429 1035 l 558 1035 l 558 868 l 429 868 z "},"j":{"ha":329,"x_min":-87,"x_max":229,"o":"m -28 -306 q -58 -304 -40 -306 q -87 -300 -76 -303 l -87 -183 q -32 -187 -60 -187 q 63 -156 25 -187 q 100 -58 100 -124 l 100 749 l 229 749 l 229 -58 q 196 -194 229 -139 q 104 -277 163 -249 q -28 -306 46 -306 m 100 868 l 100 1035 l 229 1035 l 229 868 l 100 868 z "},"ȷ":{"ha":329,"x_min":-87,"x_max":229,"o":"m -28 -306 q -58 -304 -40 -306 q -87 -300 -76 -303 l -87 -183 q -32 -187 -60 -187 q 63 -156 25 -187 q 100 -58 100 -124 l 100 749 l 229 749 l 229 -58 q 196 -194 229 -139 q 104 -277 163 -249 q -28 -306 46 -306 z "},"ĵ":{"ha":329,"x_min":-87,"x_max":407,"o":"m -28 -306 q -58 -304 -40 -306 q -87 -300 -76 -303 l -87 -183 q -32 -187 -60 -187 q 63 -156 25 -187 q 100 -58 100 -124 l 100 749 l 229 749 l 229 -58 q 196 -194 229 -139 q 104 -277 163 -249 q -28 -306 46 -306 m -75 889 l 90 1104 l 239 1104 l 406 889 l 264 889 l 165 1015 l 67 889 l -75 889 z "},"k":{"ha":775,"x_min":100,"x_max":758,"o":"m 100 0 l 100 1051 l 229 1051 l 229 331 l 176 343 l 574 749 l 739 749 l 451 447 l 758 0 l 606 0 l 325 406 l 406 410 l 188 182 l 229 276 l 229 0 l 100 0 z "},"ķ":{"ha":775,"x_min":100,"x_max":758,"o":"m 100 0 l 100 1051 l 229 1051 l 229 331 l 176 343 l 574 749 l 739 749 l 451 447 l 758 0 l 606 0 l 325 406 l 406 410 l 188 182 l 229 276 l 229 0 l 100 0 m 254 -342 l 308 -97 l 468 -97 l 375 -342 l 254 -342 z "},"ĸ":{"ha":775,"x_min":100,"x_max":760,"o":"m 607 0 l 367 338 l 369 451 l 567 749 l 718 749 l 485 393 l 760 0 l 607 0 m 100 0 l 100 749 l 229 749 l 229 0 l 100 0 m 176 333 l 176 457 l 453 457 l 453 333 l 176 333 z "},"l":{"ha":329,"x_min":100,"x_max":229,"o":"m 100 0 l 100 1051 l 229 1051 l 229 0 l 100 0 z "},"ĺ":{"ha":329,"x_min":100,"x_max":385,"o":"m 100 0 l 100 1051 l 229 1051 l 229 0 l 100 0 m 100 1176 l 210 1396 l 385 1396 l 229 1176 l 100 1176 z "},"ľ":{"ha":533,"x_min":100,"x_max":483,"o":"m 100 0 l 100 1051 l 229 1051 l 229 0 l 100 0 m 329 810 l 329 1051 l 482 1051 l 442 810 l 329 810 z "},"ļ":{"ha":329,"x_min":31,"x_max":246,"o":"m 100 0 l 100 1051 l 229 1051 l 229 0 l 100 0 m 32 -342 l 86 -97 l 246 -97 l 153 -342 l 32 -342 z "},"ŀ":{"ha":546,"x_min":100,"x_max":496,"o":"m 410 431 q 347 456 372 431 q 322 518 322 481 q 347 579 322 554 q 410 604 372 604 q 471 579 446 604 q 496 518 496 554 q 471 456 496 481 q 410 431 446 431 m 100 0 l 100 1051 l 229 1051 l 229 0 l 100 0 z "},"ḷ":{"ha":329,"x_min":88,"x_max":243,"o":"m 100 0 l 100 1051 l 229 1051 l 229 0 l 100 0 m 88 -281 l 88 -125 l 243 -125 l 243 -281 l 88 -281 z "},"ǉ":{"ha":658,"x_min":100,"x_max":558,"o":"m 100 0 l 100 1051 l 229 1051 l 229 0 l 100 0 m 301 -306 q 271 -304 289 -306 q 242 -300 253 -303 l 242 -183 q 297 -187 269 -187 q 392 -156 354 -187 q 429 -58 429 -124 l 429 749 l 558 749 l 558 -58 q 525 -194 558 -139 q 433 -277 492 -249 q 301 -306 375 -306 m 429 868 l 429 1035 l 558 1035 l 558 868 l 429 868 z "},"ḻ":{"ha":329,"x_min":-35,"x_max":365,"o":"m 100 0 l 100 1051 l 229 1051 l 229 0 l 100 0 m -33 -253 l -33 -139 l 365 -139 l 365 -253 l -33 -253 z "},"ł":{"ha":478,"x_min":49,"x_max":428,"o":"m 49 361 l 49 497 l 428 726 l 428 592 l 49 361 m 174 0 l 174 1051 l 304 1051 l 304 0 l 174 0 z "},"m":{"ha":1268,"x_min":100,"x_max":1185,"o":"m 100 0 l 100 749 l 226 749 l 226 596 l 208 619 q 297 728 236 690 q 435 765 358 765 q 592 717 522 765 q 689 589 663 668 l 653 588 q 751 720 682 675 q 906 765 821 765 q 1047 729 983 765 q 1147 629 1110 693 q 1185 485 1185 565 l 1185 0 l 1054 0 l 1054 443 q 1032 549 1054 506 q 972 616 1010 592 q 882 640 933 640 q 792 616 832 640 q 730 548 753 592 q 707 443 707 504 l 707 0 l 576 0 l 576 443 q 554 549 576 506 q 494 616 532 592 q 404 640 456 640 q 315 616 354 640 q 252 548 275 592 q 229 443 229 504 l 229 0 l 100 0 z "},"ṃ":{"ha":1268,"x_min":100,"x_max":1185,"o":"m 100 0 l 100 749 l 226 749 l 226 596 l 208 619 q 297 728 236 690 q 435 765 358 765 q 592 717 522 765 q 689 589 663 668 l 653 588 q 751 720 682 675 q 906 765 821 765 q 1047 729 983 765 q 1147 629 1110 693 q 1185 485 1185 565 l 1185 0 l 1054 0 l 1054 443 q 1032 549 1054 506 q 972 616 1010 592 q 882 640 933 640 q 792 616 832 640 q 730 548 753 592 q 707 443 707 504 l 707 0 l 576 0 l 576 443 q 554 549 576 506 q 494 616 532 592 q 404 640 456 640 q 315 616 354 640 q 252 548 275 592 q 229 443 229 504 l 229 0 l 100 0 m 557 -281 l 557 -125 l 713 -125 l 713 -281 l 557 -281 z "},"n":{"ha":806,"x_min":100,"x_max":721,"o":"m 100 0 l 100 749 l 226 749 l 226 603 l 206 615 q 295 726 233 686 q 440 765 357 765 q 584 729 521 765 q 684 629 647 693 q 721 485 721 565 l 721 0 l 590 0 l 590 443 q 568 549 590 506 q 505 616 546 592 q 411 640 464 640 q 317 616 358 640 q 253 548 276 592 q 229 443 229 504 l 229 0 l 100 0 z "},"ń":{"ha":806,"x_min":100,"x_max":721,"o":"m 100 0 l 100 749 l 226 749 l 226 603 l 206 615 q 295 726 233 686 q 440 765 357 765 q 584 729 521 765 q 684 629 647 693 q 721 485 721 565 l 721 0 l 590 0 l 590 443 q 568 549 590 506 q 505 616 546 592 q 411 640 464 640 q 317 616 358 640 q 253 548 276 592 q 229 443 229 504 l 229 0 l 100 0 m 339 889 l 449 1108 l 624 1108 l 468 889 l 339 889 z "},"ň":{"ha":806,"x_min":100,"x_max":721,"o":"m 100 0 l 100 749 l 226 749 l 226 603 l 206 615 q 295 726 233 686 q 440 765 357 765 q 584 729 521 765 q 684 629 647 693 q 721 485 721 565 l 721 0 l 590 0 l 590 443 q 568 549 590 506 q 505 616 546 592 q 411 640 464 640 q 317 616 358 640 q 253 548 276 592 q 229 443 229 504 l 229 0 l 100 0 m 328 889 l 163 1104 l 304 1104 l 403 978 l 501 1104 l 643 1104 l 476 889 l 328 889 z "},"ņ":{"ha":806,"x_min":100,"x_max":721,"o":"m 100 0 l 100 749 l 226 749 l 226 603 l 206 615 q 295 726 233 686 q 440 765 357 765 q 584 729 521 765 q 684 629 647 693 q 721 485 721 565 l 721 0 l 590 0 l 590 443 q 568 549 590 506 q 505 616 546 592 q 411 640 464 640 q 317 616 358 640 q 253 548 276 592 q 229 443 229 504 l 229 0 l 100 0 m 269 -342 l 324 -97 l 483 -97 l 390 -342 l 269 -342 z "},"ṅ":{"ha":806,"x_min":100,"x_max":721,"o":"m 100 0 l 100 749 l 226 749 l 226 603 l 206 615 q 295 726 233 686 q 440 765 357 765 q 584 729 521 765 q 684 629 647 693 q 721 485 721 565 l 721 0 l 590 0 l 590 443 q 568 549 590 506 q 505 616 546 592 q 411 640 464 640 q 317 616 358 640 q 253 548 276 592 q 229 443 229 504 l 229 0 l 100 0 m 326 889 l 326 1046 l 482 1046 l 482 889 l 326 889 z "},"ṇ":{"ha":806,"x_min":100,"x_max":721,"o":"m 100 0 l 100 749 l 226 749 l 226 603 l 206 615 q 295 726 233 686 q 440 765 357 765 q 584 729 521 765 q 684 629 647 693 q 721 485 721 565 l 721 0 l 590 0 l 590 443 q 568 549 590 506 q 505 616 546 592 q 411 640 464 640 q 317 616 358 640 q 253 548 276 592 q 229 443 229 504 l 229 0 l 100 0 m 326 -281 l 326 -125 l 482 -125 l 482 -281 l 326 -281 z "},"ǌ":{"ha":1133,"x_min":100,"x_max":1035,"o":"m 100 0 l 100 749 l 226 749 l 226 603 l 206 615 q 295 726 233 686 q 440 765 357 765 q 584 729 521 765 q 684 629 647 693 q 721 485 721 565 l 721 0 l 590 0 l 590 443 q 568 549 590 506 q 505 616 546 592 q 411 640 464 640 q 317 616 358 640 q 253 548 276 592 q 229 443 229 504 l 229 0 l 100 0 m 778 -306 q 747 -304 765 -306 q 718 -300 729 -303 l 718 -183 q 774 -187 746 -187 q 868 -156 831 -187 q 906 -58 906 -124 l 906 749 l 1035 749 l 1035 -58 q 1001 -194 1035 -139 q 910 -277 968 -249 q 778 -306 851 -306 m 906 868 l 906 1035 l 1035 1035 l 1035 868 l 906 868 z "},"ṉ":{"ha":806,"x_min":100,"x_max":721,"o":"m 100 0 l 100 749 l 226 749 l 226 603 l 206 615 q 295 726 233 686 q 440 765 357 765 q 584 729 521 765 q 684 629 647 693 q 721 485 721 565 l 721 0 l 590 0 l 590 443 q 568 549 590 506 q 505 616 546 592 q 411 640 464 640 q 317 616 358 640 q 253 548 276 592 q 229 443 229 504 l 229 0 l 100 0 m 204 -253 l 204 -139 l 603 -139 l 603 -253 l 204 -253 z "},"ñ":{"ha":806,"x_min":100,"x_max":721,"o":"m 100 0 l 100 749 l 226 749 l 226 603 l 206 615 q 295 726 233 686 q 440 765 357 765 q 584 729 521 765 q 684 629 647 693 q 721 485 721 565 l 721 0 l 590 0 l 590 443 q 568 549 590 506 q 505 616 546 592 q 411 640 464 640 q 317 616 358 640 q 253 548 276 592 q 229 443 229 504 l 229 0 l 100 0 m 492 889 q 431 901 454 889 q 392 931 408 914 q 358 960 375 947 q 318 972 342 972 q 283 955 296 972 q 269 894 269 938 l 165 894 q 206 1034 165 988 q 313 1081 247 1081 q 374 1068 350 1081 q 414 1039 397 1056 q 447 1010 431 1022 q 486 997 463 997 q 525 1017 511 997 q 539 1075 539 1038 l 642 1075 q 600 939 642 989 q 492 889 558 889 z "},"ŋ":{"ha":833,"x_min":85,"x_max":707,"o":"m 450 -306 q 419 -304 438 -306 q 389 -300 401 -303 l 389 -183 q 444 -187 417 -187 q 540 -156 503 -187 q 576 -58 576 -124 l 576 443 q 554 549 576 506 q 491 616 532 592 q 397 640 450 640 q 303 616 344 640 q 238 548 261 592 q 215 443 215 504 l 215 0 l 85 0 l 85 749 l 213 749 l 213 603 l 192 615 q 281 726 219 686 q 425 765 343 765 q 570 729 507 765 q 670 629 633 693 q 707 485 707 565 l 707 -58 q 673 -194 707 -139 q 581 -277 639 -249 q 450 -306 524 -306 z "},"o":{"ha":908,"x_min":69,"x_max":840,"o":"m 456 -17 q 260 34 347 -17 q 121 174 172 85 q 69 375 69 263 q 120 575 69 488 q 258 714 171 663 q 456 765 346 765 q 651 715 564 765 q 790 576 739 664 q 840 375 840 489 q 788 173 840 261 q 648 34 735 85 q 456 -17 561 -17 m 456 108 q 581 143 525 108 q 670 239 638 178 q 703 375 703 300 q 670 510 703 451 q 581 605 638 569 q 456 640 525 640 q 328 605 385 640 q 239 510 272 569 q 206 375 206 451 q 239 239 206 300 q 328 143 272 178 q 456 108 385 108 z "},"ó":{"ha":908,"x_min":69,"x_max":840,"o":"m 456 -17 q 260 34 347 -17 q 121 174 172 85 q 69 375 69 263 q 120 575 69 488 q 258 714 171 663 q 456 765 346 765 q 651 715 564 765 q 790 576 739 664 q 840 375 840 489 q 788 173 840 261 q 648 34 735 85 q 456 -17 561 -17 m 456 108 q 581 143 525 108 q 670 239 638 178 q 703 375 703 300 q 670 510 703 451 q 581 605 638 569 q 456 640 525 640 q 328 605 385 640 q 239 510 272 569 q 206 375 206 451 q 239 239 206 300 q 328 143 272 178 q 456 108 385 108 m 390 889 l 500 1108 l 675 1108 l 519 889 l 390 889 z "},"ŏ":{"ha":908,"x_min":69,"x_max":840,"o":"m 456 -17 q 260 34 347 -17 q 121 174 172 85 q 69 375 69 263 q 120 575 69 488 q 258 714 171 663 q 456 765 346 765 q 651 715 564 765 q 790 576 739 664 q 840 375 840 489 q 788 173 840 261 q 648 34 735 85 q 456 -17 561 -17 m 456 108 q 581 143 525 108 q 670 239 638 178 q 703 375 703 300 q 670 510 703 451 q 581 605 638 569 q 456 640 525 640 q 328 605 385 640 q 239 510 272 569 q 206 375 206 451 q 239 239 206 300 q 328 143 272 178 q 456 108 385 108 m 456 890 q 324 919 376 890 q 244 997 271 947 q 217 1106 217 1046 l 343 1106 q 373 1022 343 1051 q 456 993 403 993 q 538 1022 508 993 q 568 1106 568 1051 l 693 1106 q 667 996 693 1044 q 588 919 640 947 q 456 890 535 890 z "},"ô":{"ha":908,"x_min":69,"x_max":840,"o":"m 456 -17 q 260 34 347 -17 q 121 174 172 85 q 69 375 69 263 q 120 575 69 488 q 258 714 171 663 q 456 765 346 765 q 651 715 564 765 q 790 576 739 664 q 840 375 840 489 q 788 173 840 261 q 648 34 735 85 q 456 -17 561 -17 m 456 108 q 581 143 525 108 q 670 239 638 178 q 703 375 703 300 q 670 510 703 451 q 581 605 638 569 q 456 640 525 640 q 328 605 385 640 q 239 510 272 569 q 206 375 206 451 q 239 239 206 300 q 328 143 272 178 q 456 108 385 108 m 215 889 l 381 1104 l 529 1104 l 696 889 l 554 889 l 456 1015 l 357 889 l 215 889 z "},"ố":{"ha":908,"x_min":69,"x_max":886,"o":"m 456 -17 q 260 34 347 -17 q 121 174 172 85 q 69 375 69 263 q 120 575 69 488 q 258 714 171 663 q 456 765 346 765 q 651 715 564 765 q 790 576 739 664 q 840 375 840 489 q 788 173 840 261 q 648 34 735 85 q 456 -17 561 -17 m 456 108 q 581 143 525 108 q 670 239 638 178 q 703 375 703 300 q 670 510 703 451 q 581 605 638 569 q 456 640 525 640 q 328 605 385 640 q 239 510 272 569 q 206 375 206 451 q 239 239 206 300 q 328 143 272 178 q 456 108 385 108 m 215 889 l 381 1090 l 529 1090 l 696 889 l 554 889 l 456 1001 l 357 889 l 215 889 m 639 990 l 722 1178 l 886 1178 l 758 990 l 639 990 z "},"ộ":{"ha":908,"x_min":69,"x_max":840,"o":"m 456 -17 q 260 34 347 -17 q 121 174 172 85 q 69 375 69 263 q 120 575 69 488 q 258 714 171 663 q 456 765 346 765 q 651 715 564 765 q 790 576 739 664 q 840 375 840 489 q 788 173 840 261 q 648 34 735 85 q 456 -17 561 -17 m 456 108 q 581 143 525 108 q 670 239 638 178 q 703 375 703 300 q 670 510 703 451 q 581 605 638 569 q 456 640 525 640 q 328 605 385 640 q 239 510 272 569 q 206 375 206 451 q 239 239 206 300 q 328 143 272 178 q 456 108 385 108 m 378 -281 l 378 -125 l 533 -125 l 533 -281 l 378 -281 m 215 889 l 381 1104 l 529 1104 l 696 889 l 554 889 l 456 1015 l 357 889 l 215 889 z "},"ồ":{"ha":908,"x_min":69,"x_max":842,"o":"m 456 -17 q 260 34 347 -17 q 121 174 172 85 q 69 375 69 263 q 120 575 69 488 q 258 714 171 663 q 456 765 346 765 q 651 715 564 765 q 790 576 739 664 q 840 375 840 489 q 788 173 840 261 q 648 34 735 85 q 456 -17 561 -17 m 456 108 q 581 143 525 108 q 670 239 638 178 q 703 375 703 300 q 670 510 703 451 q 581 605 638 569 q 456 640 525 640 q 328 605 385 640 q 239 510 272 569 q 206 375 206 451 q 239 239 206 300 q 328 143 272 178 q 456 108 385 108 m 215 889 l 381 1090 l 529 1090 l 696 889 l 554 889 l 456 1001 l 357 889 l 215 889 m 722 990 l 594 1178 l 758 1178 l 842 990 l 722 990 z "},"ổ":{"ha":908,"x_min":69,"x_max":840,"o":"m 456 -17 q 260 34 347 -17 q 121 174 172 85 q 69 375 69 263 q 120 575 69 488 q 258 714 171 663 q 456 765 346 765 q 651 715 564 765 q 790 576 739 664 q 840 375 840 489 q 788 173 840 261 q 648 34 735 85 q 456 -17 561 -17 m 456 108 q 581 143 525 108 q 670 239 638 178 q 703 375 703 300 q 670 510 703 451 q 581 605 638 569 q 456 640 525 640 q 328 605 385 640 q 239 510 272 569 q 206 375 206 451 q 239 239 206 300 q 328 143 272 178 q 456 108 385 108 m 215 889 l 381 1090 l 529 1090 l 696 889 l 554 889 l 456 1001 l 357 889 l 215 889 m 681 986 l 626 1056 q 677 1088 661 1069 q 693 1133 693 1107 q 674 1174 693 1157 q 621 1190 654 1190 q 590 1188 606 1190 q 551 1175 574 1185 l 533 1257 q 587 1276 560 1271 q 639 1282 614 1282 q 762 1243 715 1282 q 808 1142 808 1204 q 773 1051 808 1093 q 681 986 738 1010 z "},"ỗ":{"ha":908,"x_min":69,"x_max":840,"o":"m 456 -17 q 260 34 347 -17 q 121 174 172 85 q 69 375 69 263 q 120 575 69 488 q 258 714 171 663 q 456 765 346 765 q 651 715 564 765 q 790 576 739 664 q 840 375 840 489 q 788 173 840 261 q 648 34 735 85 q 456 -17 561 -17 m 456 108 q 581 143 525 108 q 670 239 638 178 q 703 375 703 300 q 670 510 703 451 q 581 605 638 569 q 456 640 525 640 q 328 605 385 640 q 239 510 272 569 q 206 375 206 451 q 239 239 206 300 q 328 143 272 178 q 456 108 385 108 m 214 889 l 379 1090 l 529 1090 l 696 889 l 554 889 l 454 1001 l 356 889 l 214 889 m 531 1176 q 482 1190 501 1176 q 448 1219 463 1203 q 420 1248 433 1235 q 388 1261 407 1261 q 359 1242 369 1261 q 349 1182 349 1224 l 247 1182 q 265 1285 247 1244 q 311 1347 282 1326 q 376 1368 340 1368 q 428 1356 408 1368 q 462 1326 447 1343 q 490 1297 476 1310 q 522 1285 504 1285 q 552 1306 543 1285 q 561 1363 561 1326 l 664 1363 q 624 1226 663 1276 q 531 1176 586 1176 z "},"ȍ":{"ha":908,"x_min":69,"x_max":840,"o":"m 456 -17 q 260 34 347 -17 q 121 174 172 85 q 69 375 69 263 q 120 575 69 488 q 258 714 171 663 q 456 765 346 765 q 651 715 564 765 q 790 576 739 664 q 840 375 840 489 q 788 173 840 261 q 648 34 735 85 q 456 -17 561 -17 m 456 108 q 581 143 525 108 q 670 239 638 178 q 703 375 703 300 q 670 510 703 451 q 581 605 638 569 q 456 640 525 640 q 328 605 385 640 q 239 510 272 569 q 206 375 206 451 q 239 239 206 300 q 328 143 272 178 q 456 108 385 108 m 269 889 l 115 1110 l 279 1110 l 389 889 l 269 889 m 521 889 l 365 1110 l 529 1110 l 640 889 l 521 889 z "},"ö":{"ha":908,"x_min":69,"x_max":840,"o":"m 456 -17 q 260 34 347 -17 q 121 174 172 85 q 69 375 69 263 q 120 575 69 488 q 258 714 171 663 q 456 765 346 765 q 651 715 564 765 q 790 576 739 664 q 840 375 840 489 q 788 173 840 261 q 648 34 735 85 q 456 -17 561 -17 m 456 108 q 581 143 525 108 q 670 239 638 178 q 703 375 703 300 q 670 510 703 451 q 581 605 638 569 q 456 640 525 640 q 328 605 385 640 q 239 510 272 569 q 206 375 206 451 q 239 239 206 300 q 328 143 272 178 q 456 108 385 108 m 244 889 l 244 1046 l 400 1046 l 400 889 l 244 889 m 511 889 l 511 1046 l 668 1046 l 668 889 l 511 889 z "},"ȫ":{"ha":908,"x_min":69,"x_max":840,"o":"m 456 -17 q 260 34 347 -17 q 121 174 172 85 q 69 375 69 263 q 120 575 69 488 q 258 714 171 663 q 456 765 346 765 q 651 715 564 765 q 790 576 739 664 q 840 375 840 489 q 788 173 840 261 q 648 34 735 85 q 456 -17 561 -17 m 456 108 q 581 143 525 108 q 670 239 638 178 q 703 375 703 300 q 670 510 703 451 q 581 605 638 569 q 456 640 525 640 q 328 605 385 640 q 239 510 272 569 q 206 375 206 451 q 239 239 206 300 q 328 143 272 178 q 456 108 385 108 m 244 889 l 244 1046 l 400 1046 l 400 889 l 244 889 m 511 889 l 511 1046 l 668 1046 l 668 889 l 511 889 m 256 1157 l 256 1271 l 656 1271 l 656 1157 l 256 1157 z "},"ȱ":{"ha":908,"x_min":69,"x_max":840,"o":"m 456 -17 q 260 34 347 -17 q 121 174 172 85 q 69 375 69 263 q 120 575 69 488 q 258 714 171 663 q 456 765 346 765 q 651 715 564 765 q 790 576 739 664 q 840 375 840 489 q 788 173 840 261 q 648 34 735 85 q 456 -17 561 -17 m 456 108 q 581 143 525 108 q 670 239 638 178 q 703 375 703 300 q 670 510 703 451 q 581 605 638 569 q 456 640 525 640 q 328 605 385 640 q 239 510 272 569 q 206 375 206 451 q 239 239 206 300 q 328 143 272 178 q 456 108 385 108 m 376 889 l 376 1046 l 533 1046 l 533 889 l 376 889 m 256 1157 l 256 1271 l 654 1271 l 654 1157 l 256 1157 z "},"ọ":{"ha":908,"x_min":69,"x_max":840,"o":"m 456 -17 q 260 34 347 -17 q 121 174 172 85 q 69 375 69 263 q 120 575 69 488 q 258 714 171 663 q 456 765 346 765 q 651 715 564 765 q 790 576 739 664 q 840 375 840 489 q 788 173 840 261 q 648 34 735 85 q 456 -17 561 -17 m 456 108 q 581 143 525 108 q 670 239 638 178 q 703 375 703 300 q 670 510 703 451 q 581 605 638 569 q 456 640 525 640 q 328 605 385 640 q 239 510 272 569 q 206 375 206 451 q 239 239 206 300 q 328 143 272 178 q 456 108 385 108 m 378 -281 l 378 -125 l 533 -125 l 533 -281 l 378 -281 z "},"ò":{"ha":908,"x_min":69,"x_max":840,"o":"m 456 -17 q 260 34 347 -17 q 121 174 172 85 q 69 375 69 263 q 120 575 69 488 q 258 714 171 663 q 456 765 346 765 q 651 715 564 765 q 790 576 739 664 q 840 375 840 489 q 788 173 840 261 q 648 34 735 85 q 456 -17 561 -17 m 456 108 q 581 143 525 108 q 670 239 638 178 q 703 375 703 300 q 670 510 703 451 q 581 605 638 569 q 456 640 525 640 q 328 605 385 640 q 239 510 272 569 q 206 375 206 451 q 239 239 206 300 q 328 143 272 178 q 456 108 385 108 m 390 889 l 236 1108 l 410 1108 l 521 889 l 390 889 z "},"ỏ":{"ha":908,"x_min":69,"x_max":840,"o":"m 456 -17 q 260 34 347 -17 q 121 174 172 85 q 69 375 69 263 q 120 575 69 488 q 258 714 171 663 q 456 765 346 765 q 651 715 564 765 q 790 576 739 664 q 840 375 840 489 q 788 173 840 261 q 648 34 735 85 q 456 -17 561 -17 m 456 108 q 581 143 525 108 q 670 239 638 178 q 703 375 703 300 q 670 510 703 451 q 581 605 638 569 q 456 640 525 640 q 328 605 385 640 q 239 510 272 569 q 206 375 206 451 q 239 239 206 300 q 328 143 272 178 q 456 108 385 108 m 465 833 l 408 906 q 460 939 444 919 q 476 985 476 958 q 456 1026 476 1010 q 403 1043 436 1043 q 370 1040 386 1043 q 332 1028 354 1038 l 314 1113 q 368 1133 340 1128 q 422 1138 396 1138 q 548 1098 500 1138 q 596 994 596 1058 q 560 901 596 943 q 465 833 524 858 z "},"ơ":{"ha":908,"x_min":69,"x_max":840,"o":"m 456 -17 q 260 34 347 -17 q 121 174 172 85 q 69 375 69 263 q 120 575 69 488 q 258 714 171 663 q 456 765 346 765 l 608 765 q 641 770 625 765 q 667 790 657 775 q 678 838 678 806 q 669 892 678 864 q 649 947 661 919 l 769 947 q 792 890 782 918 q 801 825 801 861 q 765 717 801 756 q 672 669 729 679 l 679 696 q 797 562 753 644 q 840 375 840 479 q 788 173 840 261 q 648 34 735 85 q 456 -17 561 -17 m 456 108 q 581 143 525 108 q 670 239 638 178 q 703 375 703 300 q 670 510 703 451 q 581 605 638 569 q 456 640 525 640 q 328 605 385 640 q 239 510 272 569 q 206 375 206 451 q 239 239 206 300 q 328 143 272 178 q 456 108 385 108 z "},"ớ":{"ha":908,"x_min":69,"x_max":840,"o":"m 456 -17 q 260 34 347 -17 q 121 174 172 85 q 69 375 69 263 q 120 575 69 488 q 258 714 171 663 q 456 765 346 765 l 608 765 q 641 770 625 765 q 667 790 657 775 q 678 838 678 806 q 669 892 678 864 q 649 947 661 919 l 769 947 q 792 890 782 918 q 801 825 801 861 q 765 717 801 756 q 672 669 729 679 l 679 696 q 797 562 753 644 q 840 375 840 479 q 788 173 840 261 q 648 34 735 85 q 456 -17 561 -17 m 456 108 q 581 143 525 108 q 670 239 638 178 q 703 375 703 300 q 670 510 703 451 q 581 605 638 569 q 456 640 525 640 q 328 605 385 640 q 239 510 272 569 q 206 375 206 451 q 239 239 206 300 q 328 143 272 178 q 456 108 385 108 m 390 889 l 500 1108 l 675 1108 l 519 889 l 390 889 z "},"ợ":{"ha":908,"x_min":69,"x_max":840,"o":"m 456 -17 q 260 34 347 -17 q 121 174 172 85 q 69 375 69 263 q 120 575 69 488 q 258 714 171 663 q 456 765 346 765 l 608 765 q 641 770 625 765 q 667 790 657 775 q 678 838 678 806 q 669 892 678 864 q 649 947 661 919 l 769 947 q 792 890 782 918 q 801 825 801 861 q 765 717 801 756 q 672 669 729 679 l 679 696 q 797 562 753 644 q 840 375 840 479 q 788 173 840 261 q 648 34 735 85 q 456 -17 561 -17 m 456 108 q 581 143 525 108 q 670 239 638 178 q 703 375 703 300 q 670 510 703 451 q 581 605 638 569 q 456 640 525 640 q 328 605 385 640 q 239 510 272 569 q 206 375 206 451 q 239 239 206 300 q 328 143 272 178 q 456 108 385 108 m 378 -281 l 378 -125 l 533 -125 l 533 -281 l 378 -281 z "},"ờ":{"ha":908,"x_min":69,"x_max":840,"o":"m 456 -17 q 260 34 347 -17 q 121 174 172 85 q 69 375 69 263 q 120 575 69 488 q 258 714 171 663 q 456 765 346 765 l 608 765 q 641 770 625 765 q 667 790 657 775 q 678 838 678 806 q 669 892 678 864 q 649 947 661 919 l 769 947 q 792 890 782 918 q 801 825 801 861 q 765 717 801 756 q 672 669 729 679 l 679 696 q 797 562 753 644 q 840 375 840 479 q 788 173 840 261 q 648 34 735 85 q 456 -17 561 -17 m 456 108 q 581 143 525 108 q 670 239 638 178 q 703 375 703 300 q 670 510 703 451 q 581 605 638 569 q 456 640 525 640 q 328 605 385 640 q 239 510 272 569 q 206 375 206 451 q 239 239 206 300 q 328 143 272 178 q 456 108 385 108 m 390 889 l 236 1108 l 410 1108 l 521 889 l 390 889 z "},"ở":{"ha":908,"x_min":69,"x_max":840,"o":"m 456 -17 q 260 34 347 -17 q 121 174 172 85 q 69 375 69 263 q 120 575 69 488 q 258 714 171 663 q 456 765 346 765 l 608 765 q 641 770 625 765 q 667 790 657 775 q 678 838 678 806 q 669 892 678 864 q 649 947 661 919 l 769 947 q 792 890 782 918 q 801 825 801 861 q 765 717 801 756 q 672 669 729 679 l 679 696 q 797 562 753 644 q 840 375 840 479 q 788 173 840 261 q 648 34 735 85 q 456 -17 561 -17 m 456 108 q 581 143 525 108 q 670 239 638 178 q 703 375 703 300 q 670 510 703 451 q 581 605 638 569 q 456 640 525 640 q 328 605 385 640 q 239 510 272 569 q 206 375 206 451 q 239 239 206 300 q 328 143 272 178 q 456 108 385 108 m 465 833 l 408 906 q 460 939 444 919 q 476 985 476 958 q 456 1026 476 1010 q 403 1043 436 1043 q 370 1040 386 1043 q 332 1028 354 1038 l 314 1113 q 368 1133 340 1128 q 422 1138 396 1138 q 548 1098 500 1138 q 596 994 596 1058 q 560 901 596 943 q 465 833 524 858 z "},"ỡ":{"ha":908,"x_min":69,"x_max":840,"o":"m 456 -17 q 260 34 347 -17 q 121 174 172 85 q 69 375 69 263 q 120 575 69 488 q 258 714 171 663 q 456 765 346 765 l 608 765 q 641 770 625 765 q 667 790 657 775 q 678 838 678 806 q 669 892 678 864 q 649 947 661 919 l 769 947 q 792 890 782 918 q 801 825 801 861 q 765 717 801 756 q 672 669 729 679 l 679 696 q 797 562 753 644 q 840 375 840 479 q 788 173 840 261 q 648 34 735 85 q 456 -17 561 -17 m 456 108 q 581 143 525 108 q 670 239 638 178 q 703 375 703 300 q 670 510 703 451 q 581 605 638 569 q 456 640 525 640 q 328 605 385 640 q 239 510 272 569 q 206 375 206 451 q 239 239 206 300 q 328 143 272 178 q 456 108 385 108 m 543 889 q 483 901 506 889 q 443 931 460 914 q 410 960 426 947 q 369 972 393 972 q 334 955 347 972 q 321 894 321 938 l 217 894 q 258 1034 217 988 q 364 1081 299 1081 q 425 1068 401 1081 q 465 1039 449 1056 q 498 1010 482 1022 q 538 997 514 997 q 576 1017 563 997 q 590 1075 590 1038 l 693 1075 q 651 939 693 989 q 543 889 610 889 z "},"ő":{"ha":908,"x_min":69,"x_max":840,"o":"m 456 -17 q 260 34 347 -17 q 121 174 172 85 q 69 375 69 263 q 120 575 69 488 q 258 714 171 663 q 456 765 346 765 q 651 715 564 765 q 790 576 739 664 q 840 375 840 489 q 788 173 840 261 q 648 34 735 85 q 456 -17 561 -17 m 456 108 q 581 143 525 108 q 670 239 638 178 q 703 375 703 300 q 670 510 703 451 q 581 605 638 569 q 456 640 525 640 q 328 605 385 640 q 239 510 272 569 q 206 375 206 451 q 239 239 206 300 q 328 143 272 178 q 456 108 385 108 m 271 889 l 343 1108 l 507 1108 l 390 889 l 271 889 m 521 889 l 593 1108 l 757 1108 l 640 889 l 521 889 z "},"ȏ":{"ha":908,"x_min":69,"x_max":840,"o":"m 456 -17 q 260 34 347 -17 q 121 174 172 85 q 69 375 69 263 q 120 575 69 488 q 258 714 171 663 q 456 765 346 765 q 651 715 564 765 q 790 576 739 664 q 840 375 840 489 q 788 173 840 261 q 648 34 735 85 q 456 -17 561 -17 m 456 108 q 581 143 525 108 q 670 239 638 178 q 703 375 703 300 q 670 510 703 451 q 581 605 638 569 q 456 640 525 640 q 328 605 385 640 q 239 510 272 569 q 206 375 206 451 q 239 239 206 300 q 328 143 272 178 q 456 108 385 108 m 217 889 q 244 998 217 949 q 324 1076 271 1047 q 456 1104 376 1104 q 588 1076 535 1104 q 667 999 640 1047 q 693 889 693 951 l 568 889 q 538 972 568 943 q 456 1001 508 1001 q 373 972 403 1001 q 343 889 343 943 l 217 889 z "}}}
